<?xml version="1.0" encoding="UTF-8" standalone="no"?>
<!DOCTYPE svg PUBLIC "-//W3C//DTD SVG 1.1//EN" "http://www.w3.org/Graphics/SVG/1.1/DTD/svg11.dtd">
<svg width="100%" height="100%" viewBox="0 0 6000 2700" version="1.1" xmlns="http://www.w3.org/2000/svg" xmlns:xlink="http://www.w3.org/1999/xlink" xml:space="preserve" xmlns:serif="http://www.serif.com/" style="fill-rule:evenodd;clip-rule:evenodd;stroke-linecap:round;stroke-linejoin:round;stroke-miterlimit:1.5;">
    <g transform="matrix(1,0,0,1,-124.103,12.0246)">
        <path d="M1474.17,1965.29L2762.84,210.919L4676.84,2331.92" style="fill:none;stroke:white;stroke-width:5px;"/>
    </g>
    <g transform="matrix(1,0,0,1,-124.103,12.0246)">
        <path d="M1474.17,1965.29L2762.84,704.669L4676.84,2331.92" style="fill:none;stroke:white;stroke-width:5px;"/>
    </g>
    <g transform="matrix(1,0,0,1,-124.103,12.0246)">
        <path d="M1474.17,1965.29L3041.84,1156.42L4676.84,2331.92" style="fill:none;stroke:white;stroke-width:5px;"/>
    </g>
    <g transform="matrix(1,0,0,1,-124.103,12.0246)">
        <path d="M1474.17,1965.29L3233.84,836.919L4676.84,2331.92" style="fill:none;stroke:white;stroke-width:5px;"/>
    </g>
    <g transform="matrix(1,0,0,1,-124.103,12.0246)">
        <path d="M1474.17,1965.29L3471.59,317.919L4676.84,2331.92" style="fill:none;stroke:white;stroke-width:5px;"/>
    </g>
    <g transform="matrix(1,0,0,1,-124.103,12.0246)">
        <path d="M1474.17,1965.29L3501.59,1401.21L4676.84,2331.92" style="fill:none;stroke:white;stroke-width:5px;"/>
    </g>
    <g transform="matrix(-8.47458,5.41879e-16,5.18918e-16,8.84956,5508.12,1060.32)">
        <path d="M490.65,100.23C488.695,100.23 487.11,101.748 487.11,103.62C487.11,105.492 488.695,107.01 490.65,107.01C492.605,107.01 494.19,105.492 494.19,103.62C494.19,101.748 492.605,100.23 490.65,100.23" style="fill:white;"/>
    </g>
    <g transform="matrix(-8.47458,5.41879e-16,5.18918e-16,8.84956,11977.2,1835.27)">
        <path d="M876.09,54.09C874.135,54.09 872.55,55.608 872.55,57.48C872.55,59.352 874.135,60.87 876.09,60.87C878.045,60.87 879.63,59.352 879.63,57.48C879.63,55.608 878.045,54.09 876.09,54.09" style="fill:white;"/>
    </g>
    <g transform="matrix(-8.26446,5.37126e-16,5.06052e-16,8.77193,7980.97,-2513.9)">
        <path d="M646.41,308.58C644.405,308.58 642.78,310.111 642.78,312C642.78,313.889 644.405,315.42 646.41,315.42C648.415,315.42 650.04,313.889 650.04,312C650.04,310.111 648.415,308.58 646.41,308.58" style="fill:rgb(255,0,0);"/>
    </g>
    <g transform="matrix(-8.40336,5.41879e-16,5.14557e-16,8.84956,9494.21,-2317.49)">
        <path d="M731.46,295.77C729.488,295.77 727.89,297.288 727.89,299.16C727.89,301.032 729.488,302.55 731.46,302.55C733.432,302.55 735.03,301.032 735.03,299.16C735.03,297.288 733.432,295.77 731.46,295.77" style="fill:rgb(255,0,0);"/>
    </g>
    <g transform="matrix(-8.47458,5.37126e-16,5.18918e-16,8.77193,8116.79,-1500.41)">
        <path d="M646.41,249.33C644.455,249.33 642.87,250.861 642.87,252.75C642.87,254.639 644.455,256.17 646.41,256.17C648.365,256.17 649.95,254.639 649.95,252.75C649.95,250.861 648.365,249.33 646.41,249.33" style="fill:rgb(255,0,0);"/>
    </g>
    <g transform="matrix(-8.26446,5.37126e-16,5.06052e-16,8.77193,8919.08,-1228.95)">
        <path d="M702.93,233.46C700.925,233.46 699.3,234.991 699.3,236.88C699.3,238.769 700.925,240.3 702.93,240.3C704.935,240.3 706.56,238.769 706.56,236.88C706.56,234.991 704.935,233.46 702.93,233.46" style="fill:rgb(255,0,0);"/>
    </g>
    <g transform="matrix(-8.26446,5.41879e-16,5.06052e-16,8.84956,9432.53,-21.4519)">
        <path d="M732.66,158.73C730.655,158.73 729.03,160.248 729.03,162.12C729.03,163.992 730.655,165.51 732.66,165.51C734.665,165.51 736.29,163.992 736.29,162.12C736.29,160.248 734.665,158.73 732.66,158.73" style="fill:rgb(255,0,0);"/>
    </g>
    <g transform="matrix(-8.26446,5.37126e-16,5.06052e-16,8.77193,8536.67,-573.135)">
        <path d="M679.89,195.12C677.885,195.12 676.26,196.651 676.26,198.54C676.26,200.429 677.885,201.96 679.89,201.96C681.895,201.96 683.52,200.429 683.52,198.54C683.52,196.651 681.895,195.12 679.89,195.12" style="fill:rgb(255,0,0);"/>
    </g>
    <g transform="matrix(-8.47458,5.37126e-16,5.18918e-16,8.77193,6141.99,183.865)">
        <path d="M527.37,151.23C525.415,151.23 523.83,152.761 523.83,154.65C523.83,156.539 525.415,158.07 527.37,158.07C529.325,158.07 530.91,156.539 530.91,154.65C530.91,152.761 529.325,151.23 527.37,151.23" style="fill:rgb(33,117,217);"/>
    </g>
    <g transform="matrix(-8.47458,5.37126e-16,5.18918e-16,8.77193,6467.88,110.582)">
        <path d="M546.39,155.01C544.435,155.01 542.85,156.541 542.85,158.43C542.85,160.319 544.435,161.85 546.39,161.85C548.345,161.85 549.93,160.319 549.93,158.43C549.93,156.541 548.345,155.01 546.39,155.01" style="fill:rgb(33,117,217);"/>
    </g>
    <g transform="matrix(-8.26446,5.37126e-16,5.06052e-16,8.77193,6245.24,487.85)">
        <path d="M540.45,135.06C538.445,135.06 536.82,136.591 536.82,138.48C536.82,140.369 538.445,141.9 540.45,141.9C542.455,141.9 544.08,140.369 544.08,138.48C544.08,136.591 542.455,135.06 540.45,135.06" style="fill:rgb(33,117,217);"/>
    </g>
    <g transform="matrix(-8.40336,5.37126e-16,5.14557e-16,8.77193,6551.77,505.461)">
        <path d="M554.67,132.54C552.698,132.54 551.1,134.071 551.1,135.96C551.1,137.849 552.698,139.38 554.67,139.38C556.642,139.38 558.24,137.849 558.24,135.96C558.24,134.071 556.642,132.54 554.67,132.54" style="fill:rgb(33,117,217);"/>
    </g>
    <g transform="matrix(-8.26446,5.41879e-16,5.06052e-16,8.84956,6578.29,765.121)">
        <path d="M561.9,116.37C559.895,116.37 558.27,117.888 558.27,119.76C558.27,121.632 559.895,123.15 561.9,123.15C563.905,123.15 565.53,121.632 565.53,119.76C565.53,117.888 563.905,116.37 561.9,116.37" style="fill:rgb(33,117,217);"/>
    </g>
    <g transform="matrix(-8.40336,5.37126e-16,5.14557e-16,8.77193,6148,499.534)">
        <path d="M529.83,132.54C527.858,132.54 526.26,134.071 526.26,135.96C526.26,137.849 527.858,139.38 529.83,139.38C531.802,139.38 533.4,137.849 533.4,135.96C533.4,134.071 531.802,132.54 529.83,132.54" style="fill:rgb(33,117,217);"/>
    </g>
    <g transform="matrix(-8.47458,5.37126e-16,5.18918e-16,8.77193,10860.8,581.983)">
        <path d="M809.67,127.59C807.715,127.59 806.13,129.121 806.13,131.01C806.13,132.899 807.715,134.43 809.67,134.43C811.625,134.43 813.21,132.899 813.21,131.01C813.21,129.121 811.625,127.59 809.67,127.59" style="fill:rgb(33,117,217);"/>
    </g>
    <g transform="matrix(-8.40336,5.37126e-16,5.14557e-16,8.77193,11125.3,499.534)">
        <path d="M828.69,132.54C826.718,132.54 825.12,134.071 825.12,135.96C825.12,137.849 826.718,139.38 828.69,139.38C830.662,139.38 832.26,137.849 832.26,135.96C832.26,134.071 830.662,132.54 828.69,132.54" style="fill:rgb(33,117,217);"/>
    </g>
    <g transform="matrix(-8.47458,5.37126e-16,5.18918e-16,8.77193,11041.4,860.115)">
        <path d="M820.41,111.33C818.455,111.33 816.87,112.861 816.87,114.75C816.87,116.639 818.455,118.17 820.41,118.17C822.365,118.17 823.95,116.639 823.95,114.75C823.95,112.861 822.365,111.33 820.41,111.33" style="fill:rgb(33,117,217);"/>
    </g>
    <g transform="matrix(-8.47458,5.41879e-16,5.18918e-16,8.84956,10902.7,893.477)">
        <path d="M812.16,108.9C810.205,108.9 808.62,110.418 808.62,112.29C808.62,114.162 810.205,115.68 812.16,115.68C814.115,115.68 815.7,114.162 815.7,112.29C815.7,110.418 814.115,108.9 812.16,108.9" style="fill:rgb(33,117,217);"/>
    </g>
    <g transform="matrix(-8.47458,5.37126e-16,5.18918e-16,8.77193,11083.5,1161.93)">
        <path d="M822.75,91.47C820.795,91.47 819.21,93.001 819.21,94.89C819.21,96.779 820.795,98.31 822.75,98.31C824.705,98.31 826.29,96.779 826.29,94.89C826.29,93.001 824.705,91.47 822.75,91.47" style="fill:rgb(33,117,217);"/>
    </g>
    <g transform="matrix(-8.26446,5.37126e-16,5.06052e-16,8.77193,10506.8,873.907)">
        <path d="M800.25,110.1C798.245,110.1 796.62,111.631 796.62,113.52C796.62,115.409 798.245,116.94 800.25,116.94C802.255,116.94 803.88,115.409 803.88,113.52C803.88,111.631 802.255,110.1 800.25,110.1" style="fill:rgb(33,117,217);"/>
    </g>
    <g transform="matrix(-8.06,-2.11679,-2.11679,8.06,1442.98,1085.54)">
        <path d="M-95.447,77.495L-7.109,77.495L10.007,12.325L-78.331,12.325L-95.447,77.495Z" style="fill:none;fill-rule:nonzero;stroke:white;stroke-width:1.74px;stroke-linecap:butt;stroke-linejoin:miter;stroke-miterlimit:8;"/>
    </g>
    <g transform="matrix(8.06,-2.11681,-2.11681,-8.06,3814.93,2239.42)">
        <path d="M-9.998,12.331L78.401,12.331L95.498,77.429L7.099,77.429L-9.998,12.331Z" style="fill:none;fill-rule:nonzero;stroke:white;stroke-width:1.74px;stroke-linecap:butt;stroke-linejoin:miter;stroke-miterlimit:8;"/>
    </g>
    <g transform="matrix(8.33333,0,0,8.33333,-2734.04,-1770.01)">
        <text x="470.258px" y="468.644px" style="font-family:'Arial-ItalicMT', 'Arial', sans-serif;font-style:italic;font-size:18px;fill:white;">C</text>
        <text x="483.257px" y="474.638px" style="font-family:'Arial-ItalicMT', 'Arial', sans-serif;font-style:italic;font-size:10.494px;fill:white;">1</text>
    </g>
    <g transform="matrix(8.33333,0,0,8.33333,681.832,-1424.05)">
        <text x="470.258px" y="468.644px" style="font-family:'Arial-ItalicMT', 'Arial', sans-serif;font-style:italic;font-size:18px;fill:white;">C</text>
        <text x="483.257px" y="474.638px" style="font-family:'Arial-ItalicMT', 'Arial', sans-serif;font-style:italic;font-size:10.494px;fill:white;">2</text>
    </g>
    <g transform="matrix(8.33333,0,0,8.33333,-1264.02,-1522.64)">
        <text x="470.258px" y="468.652px" style="font-family:'Arial-ItalicMT', 'Arial', sans-serif;font-style:italic;font-size:18px;fill:white;">R,T</text>
        <text x="504.254px" y="468.652px" style="font-family:'ArialMT', 'Arial', sans-serif;font-size:18px;fill:white;">= ?</text>
    </g>
    <g transform="matrix(8.33333,0,0,8.33333,-456.521,-3612.8)">
        <text x="470.258px" y="468.652px" style="font-family:'Arial-ItalicMT', 'Arial', sans-serif;font-style:italic;font-size:18px;fill:white;">P</text>
        <text x="482.264px" y="462.658px" style="font-family:'Arial-ItalicMT', 'Arial', sans-serif;font-style:italic;font-size:10.494px;fill:white;">i</text>
        <text x="489.596px" y="468.652px" style="font-family:'ArialMT', 'Arial', sans-serif;font-size:18px;fill:white;">= ?</text>
    </g>
    <g transform="matrix(1,0,0,1,0,15.1003)">
        <g transform="matrix(1,-0,-0,1,0,-15.1003)">
            <path d="M1502.75,2149.57L1460.35,2097.59L1527.37,2094.86L1502.75,2149.57Z" style="fill:white;"/>
            <path d="M4316.98,2443.56C3321.3,2598.33 2380.06,2505.99 1504.12,2117.29" style="fill:none;stroke:white;stroke-width:10px;"/>
        </g>
    </g>
</svg>
