<?xml version="1.0" encoding="UTF-8" standalone="no"?>
<!DOCTYPE svg PUBLIC "-//W3C//DTD SVG 1.1//EN" "http://www.w3.org/Graphics/SVG/1.1/DTD/svg11.dtd">
<svg width="100%" height="100%" viewBox="0 0 2200 1030" version="1.1" xmlns="http://www.w3.org/2000/svg" xmlns:xlink="http://www.w3.org/1999/xlink" xml:space="preserve" xmlns:serif="http://www.serif.com/" style="fill-rule:evenodd;clip-rule:evenodd;stroke-linecap:round;stroke-miterlimit:8;">
    <g transform="matrix(1,0,0,1,-1.07492,11.9749)">
        <g transform="matrix(-0.0988066,-0.0562005,-4.12009,7.24357,2129.77,-1225.59)">
            <path d="M-124.55,214.131L368.143,214.131" style="fill:none;fill-rule:nonzero;stroke:rgb(255,226,0);stroke-width:0.34px;"/>
        </g>
        <g transform="matrix(-0.0288237,-0.0163947,-4.12009,7.24357,2096.39,-1260.25)">
            <path d="M-124.55,214.131L368.143,214.131" style="fill:none;fill-rule:nonzero;stroke:rgb(255,226,0);stroke-width:0.34px;"/>
        </g>
        <g transform="matrix(-0.180002,-0.102384,-4.12009,7.24357,2051.97,-1227.05)">
            <path d="M-124.55,214.131L368.143,214.131" style="fill:none;fill-rule:nonzero;stroke:rgb(255,226,0);stroke-width:0.34px;"/>
        </g>
        <g transform="matrix(-0.487,-0.277002,-4.12009,7.24357,1986.8,-1199.96)">
            <path d="M-124.55,214.131L368.143,214.131" style="fill:none;fill-rule:nonzero;stroke:rgb(255,226,0);stroke-width:0.34px;"/>
        </g>
        <g transform="matrix(-0.0467307,-0.0265801,-4.12009,7.24357,2080.33,-1182.81)">
            <path d="M-124.55,214.131L368.143,214.131" style="fill:none;fill-rule:nonzero;stroke:rgb(255,226,0);stroke-width:0.34px;"/>
        </g>
        <g transform="matrix(-0.0451013,-0.0256533,-4.12009,7.24357,2072.15,-1169.65)">
            <path d="M-124.55,214.131L368.143,214.131" style="fill:none;fill-rule:nonzero;stroke:rgb(255,226,0);stroke-width:0.34px;"/>
        </g>
        <g transform="matrix(-0.0528837,-0.0300799,-4.12009,7.24357,2059.31,-1140.86)">
            <path d="M-124.55,214.131L368.143,214.131" style="fill:none;fill-rule:nonzero;stroke:rgb(255,226,0);stroke-width:0.34px;"/>
        </g>
        <g transform="matrix(-0.018527,-0.010538,-4.12009,7.24357,2039.27,-1135.73)">
            <path d="M-124.55,214.131L368.143,214.131" style="fill:none;fill-rule:nonzero;stroke:rgb(255,226,0);stroke-width:0.34px;"/>
        </g>
        <g transform="matrix(-0.0311365,-0.0177102,-4.12009,7.24357,2030.81,-1109.38)">
            <path d="M-124.55,214.131L368.143,214.131" style="fill:none;fill-rule:nonzero;stroke:rgb(255,226,0);stroke-width:0.34px;"/>
        </g>
        <g transform="matrix(-0.0227504,-0.0129403,-4.12009,7.24357,2019.97,-1097.44)">
            <path d="M-124.55,214.131L368.143,214.131" style="fill:none;fill-rule:nonzero;stroke:rgb(255,226,0);stroke-width:0.34px;"/>
        </g>
        <g transform="matrix(-0.0227504,-0.0129403,-4.12009,7.24357,1985.23,-1035.89)">
            <path d="M-124.55,214.131L368.143,214.131" style="fill:none;fill-rule:nonzero;stroke:rgb(255,226,0);stroke-width:0.34px;"/>
        </g>
        <g transform="matrix(-0.00810587,-0.00461056,-4.12009,7.24357,1989.15,-1054.89)">
            <path d="M-124.55,214.131L368.143,214.131" style="fill:none;fill-rule:nonzero;stroke:rgb(255,226,0);stroke-width:0.34px;"/>
        </g>
        <g transform="matrix(-0.0270296,-0.0153742,-4.12009,7.24357,1998.17,-1054.63)">
            <path d="M-124.55,214.131L368.143,214.131" style="fill:none;fill-rule:nonzero;stroke:rgb(255,226,0);stroke-width:0.34px;"/>
        </g>
        <g transform="matrix(-0.00647785,-0.00368456,-4.12009,7.24357,1990.23,-1067.61)">
            <path d="M-124.55,214.131L368.143,214.131" style="fill:none;fill-rule:nonzero;stroke:rgb(255,226,0);stroke-width:0.34px;"/>
        </g>
        <g transform="matrix(-0.0155127,-0.00882352,-4.12009,7.24357,1986.37,-1063.16)">
            <path d="M-124.55,214.131L368.143,214.131" style="fill:none;fill-rule:nonzero;stroke:rgb(255,226,0);stroke-width:0.34px;"/>
        </g>
        <g transform="matrix(-0.17616,-0.100199,-4.12009,7.24357,1969.56,-1080.24)">
            <path d="M-124.55,214.131L368.143,214.131" style="fill:none;fill-rule:nonzero;stroke:rgb(255,226,0);stroke-width:0.34px;"/>
        </g>
        <g transform="matrix(-0.425177,-0.241838,-4.12009,7.24357,1914.84,-1055.26)">
            <path d="M-124.55,214.131L368.143,214.131" style="fill:none;fill-rule:nonzero;stroke:rgb(255,226,0);stroke-width:0.34px;"/>
        </g>
        <g transform="matrix(-0.714939,-0.406652,-4.12009,7.24357,1866.83,-1055.9)">
            <path d="M-124.55,214.131L368.143,214.131" style="fill:none;fill-rule:nonzero;stroke:rgb(255,226,0);stroke-width:0.34px;"/>
        </g>
        <g transform="matrix(-0.4751,-0.270234,-4.12009,7.24357,1882.14,-1013.2)">
            <path d="M-124.55,214.131L368.143,214.131" style="fill:none;fill-rule:nonzero;stroke:rgb(255,226,0);stroke-width:0.34px;"/>
        </g>
        <g transform="matrix(-0.439588,-0.250035,-4.12009,7.24357,1870.19,-981.156)">
            <path d="M-124.55,214.131L368.143,214.131" style="fill:none;fill-rule:nonzero;stroke:rgb(255,226,0);stroke-width:0.34px;"/>
        </g>
        <g transform="matrix(-0.355257,-0.202068,-4.12009,7.24357,1812.89,-856.15)">
            <path d="M-124.55,214.131L368.143,214.131" style="fill:none;fill-rule:nonzero;stroke:rgb(255,226,0);stroke-width:0.34px;"/>
        </g>
        <g transform="matrix(-0.508295,-0.289115,-4.12009,7.24357,1805.78,-887.407)">
            <path d="M-124.55,214.131L368.143,214.131" style="fill:none;fill-rule:nonzero;stroke:rgb(255,226,0);stroke-width:0.34px;"/>
        </g>
        <g transform="matrix(-0.63544,-0.361434,-4.12009,7.24357,1786.31,-891.318)">
            <path d="M-124.55,214.131L368.143,214.131" style="fill:none;fill-rule:nonzero;stroke:rgb(255,226,0);stroke-width:0.34px;"/>
        </g>
        <g transform="matrix(-0.355257,-0.202068,-4.12009,7.24357,1788.16,-813.71)">
            <path d="M-124.55,214.131L368.143,214.131" style="fill:none;fill-rule:nonzero;stroke:rgb(255,226,0);stroke-width:0.34px;"/>
        </g>
        <g transform="matrix(-0.542812,-0.308747,-4.12009,7.24357,1867.99,-1007.84)">
            <path d="M-124.55,214.131L368.143,214.131" style="fill:none;fill-rule:nonzero;stroke:rgb(255,226,0);stroke-width:0.34px;"/>
        </g>
        <g transform="matrix(-0.618083,-0.351561,-4.12009,7.24357,1858.62,-1013.6)">
            <path d="M-124.55,214.131L368.143,214.131" style="fill:none;fill-rule:nonzero;stroke:rgb(255,226,0);stroke-width:0.34px;"/>
        </g>
        <g transform="matrix(-0.0153742,-0.00874476,-4.12009,7.24357,1949.88,-980.723)">
            <path d="M-124.55,214.131L368.143,214.131" style="fill:none;fill-rule:nonzero;stroke:rgb(255,226,0);stroke-width:0.34px;"/>
        </g>
        <g transform="matrix(-0.0285124,-0.0162177,-4.12009,7.24357,1943.43,-990.957)">
            <path d="M-124.55,214.131L368.143,214.131" style="fill:none;fill-rule:nonzero;stroke:rgb(255,226,0);stroke-width:0.34px;"/>
        </g>
        <g transform="matrix(-0.0153742,-0.00874476,-4.12009,7.24357,1936.76,-975.25)">
            <path d="M-124.55,214.131L368.143,214.131" style="fill:none;fill-rule:nonzero;stroke:rgb(255,226,0);stroke-width:0.34px;"/>
        </g>
        <g transform="matrix(-0.016564,-0.00942152,-4.12009,7.24357,1932.83,-969.827)">
            <path d="M-124.55,214.131L368.143,214.131" style="fill:none;fill-rule:nonzero;stroke:rgb(255,226,0);stroke-width:0.34px;"/>
        </g>
        <g transform="matrix(-0.0383222,-0.0217974,-4.12009,7.24357,1923.52,-958.968)">
            <path d="M-124.55,214.131L368.143,214.131" style="fill:none;fill-rule:nonzero;stroke:rgb(255,226,0);stroke-width:0.34px;"/>
        </g>
        <g transform="matrix(-0.0579823,-0.0329799,-4.12009,7.24357,1903.54,-929.358)">
            <path d="M-124.55,214.131L368.143,214.131" style="fill:none;fill-rule:nonzero;stroke:rgb(255,226,0);stroke-width:0.34px;"/>
        </g>
        <g transform="matrix(-0.104726,-0.0595673,-4.12009,7.24357,1854.08,-855.272)">
            <path d="M-124.55,214.131L368.143,214.131" style="fill:none;fill-rule:nonzero;stroke:rgb(255,226,0);stroke-width:0.34px;"/>
        </g>
        <g transform="matrix(-0.11612,-0.0660481,-4.12009,7.24357,1851.63,-854.91)">
            <path d="M-124.55,214.131L368.143,214.131" style="fill:none;fill-rule:nonzero;stroke:rgb(255,226,0);stroke-width:0.34px;"/>
        </g>
        <g transform="matrix(-0.0998148,-0.0567739,-4.12009,7.24357,1836.76,-824.255)">
            <path d="M-124.55,214.131L368.143,214.131" style="fill:none;fill-rule:nonzero;stroke:rgb(255,226,0);stroke-width:0.34px;"/>
        </g>
        <g transform="matrix(-0.111548,-0.0634475,-4.12009,7.24357,1829.31,-814.477)">
            <path d="M-124.55,214.131L368.143,214.131" style="fill:none;fill-rule:nonzero;stroke:rgb(255,226,0);stroke-width:0.34px;"/>
        </g>
        <g transform="matrix(-0.16206,-0.0921783,-4.12009,7.24357,1824.77,-821.304)">
            <path d="M-124.55,214.131L368.143,214.131" style="fill:none;fill-rule:nonzero;stroke:rgb(255,226,0);stroke-width:0.34px;"/>
        </g>
        <g transform="matrix(-0.110979,-0.063124,-4.12009,7.24357,1811.4,-783.336)">
            <path d="M-124.55,214.131L368.143,214.131" style="fill:none;fill-rule:nonzero;stroke:rgb(255,226,0);stroke-width:0.34px;"/>
        </g>
        <g transform="matrix(-0.136308,-0.0775312,-4.12009,7.24357,1803.75,-777.206)">
            <path d="M-124.55,214.131L368.143,214.131" style="fill:none;fill-rule:nonzero;stroke:rgb(255,226,0);stroke-width:0.34px;"/>
        </g>
        <g transform="matrix(-0.217617,-0.123779,-4.12009,7.24357,1727.16,-664.652)">
            <path d="M-124.55,214.131L368.143,214.131" style="fill:none;fill-rule:nonzero;stroke:rgb(255,226,0);stroke-width:0.34px;"/>
        </g>
        <g transform="matrix(-0.228882,-0.130186,-4.12009,7.24357,1725.76,-667.179)">
            <path d="M-124.55,214.131L368.143,214.131" style="fill:none;fill-rule:nonzero;stroke:rgb(255,226,0);stroke-width:0.34px;"/>
        </g>
        <g transform="matrix(-0.0753924,-0.0428827,-4.12009,7.24357,1788.98,-647.135)">
            <path d="M-124.55,214.131L368.143,214.131" style="fill:none;fill-rule:nonzero;stroke:rgb(255,226,0);stroke-width:0.34px;"/>
        </g>
        <g transform="matrix(-0.270038,-0.153596,-4.12009,7.24357,1879.54,-637.458)">
            <path d="M-124.55,214.131L368.143,214.131" style="fill:none;fill-rule:nonzero;stroke:rgb(255,226,0);stroke-width:0.34px;"/>
        </g>
        <g transform="matrix(-0.38909,-0.221311,-4.12009,7.24357,1941.7,-646.106)">
            <path d="M-124.55,214.131L368.143,214.131" style="fill:none;fill-rule:nonzero;stroke:rgb(255,226,0);stroke-width:0.34px;"/>
        </g>
        <g transform="matrix(-0.613498,-0.348953,-4.12009,7.24357,2080.13,-696.266)">
            <path d="M-124.55,214.131L368.143,214.131" style="fill:none;fill-rule:nonzero;stroke:rgb(255,226,0);stroke-width:0.34px;"/>
        </g>
        <g transform="matrix(-0.335689,-0.190938,-4.12009,7.24357,2018.07,-825.971)">
            <path d="M-124.55,214.131L368.143,214.131" style="fill:none;fill-rule:nonzero;stroke:rgb(255,226,0);stroke-width:0.34px;"/>
        </g>
        <g transform="matrix(-0.228512,-0.129976,-4.12009,7.24357,2032.48,-943.445)">
            <path d="M-124.55,214.131L368.143,214.131" style="fill:none;fill-rule:nonzero;stroke:rgb(255,226,0);stroke-width:0.34px;"/>
        </g>
        <g transform="matrix(-0.29629,-0.168528,-4.12009,7.24357,1687.16,-619.199)">
            <path d="M-124.55,214.131L368.143,214.131" style="fill:none;fill-rule:nonzero;stroke:rgb(255,226,0);stroke-width:0.34px;"/>
        </g>
        <g transform="matrix(-0.298939,-0.170034,-4.12009,7.24357,1680.36,-607.679)">
            <path d="M-124.55,214.131L368.143,214.131" style="fill:none;fill-rule:nonzero;stroke:rgb(255,226,0);stroke-width:0.34px;"/>
        </g>
        <g transform="matrix(-0.254467,-0.144739,-4.12009,7.24357,1668.4,-573.415)">
            <path d="M-124.55,214.131L368.143,214.131" style="fill:none;fill-rule:nonzero;stroke:rgb(255,226,0);stroke-width:0.34px;"/>
        </g>
        <g transform="matrix(-0.280172,-0.15936,-4.12009,7.24357,1658.64,-562.974)">
            <path d="M-124.55,214.131L368.143,214.131" style="fill:none;fill-rule:nonzero;stroke:rgb(255,226,0);stroke-width:0.34px;"/>
        </g>
        <g transform="matrix(-0.29385,-0.16714,-4.12009,7.24357,1661.5,-573.473)">
            <path d="M-124.55,214.131L368.143,214.131" style="fill:none;fill-rule:nonzero;stroke:rgb(255,226,0);stroke-width:0.34px;"/>
        </g>
        <g transform="matrix(-0.186341,-0.105989,-4.12009,7.24357,1802.82,-788.675)">
            <path d="M-124.55,214.131L368.143,214.131" style="fill:none;fill-rule:nonzero;stroke:rgb(255,226,0);stroke-width:0.34px;"/>
        </g>
        <g transform="matrix(-0.128136,-0.0728828,-4.12009,7.24357,2071.54,-1097.45)">
            <path d="M-124.55,214.131L368.143,214.131" style="fill:none;fill-rule:nonzero;stroke:rgb(255,226,0);stroke-width:0.34px;"/>
        </g>
        <g transform="matrix(-0.0832185,-0.0473341,-4.12009,7.24357,2094.34,-1175.17)">
            <path d="M-124.55,214.131L368.143,214.131" style="fill:none;fill-rule:nonzero;stroke:rgb(255,226,0);stroke-width:0.34px;"/>
        </g>
        <g transform="matrix(-0.287568,-0.163567,-4.12009,7.24357,2193.41,-1175.42)">
            <path d="M-124.55,214.131L368.143,214.131" style="fill:none;fill-rule:nonzero;stroke:rgb(255,226,0);stroke-width:0.34px;"/>
        </g>
        <g transform="matrix(-0.339799,-0.193275,-4.12009,7.24357,2186.28,-1118.14)">
            <path d="M-124.55,214.131L368.143,214.131" style="fill:none;fill-rule:nonzero;stroke:rgb(255,226,0);stroke-width:0.34px;"/>
        </g>
        <g transform="matrix(-0.354914,-0.201873,-4.12009,7.24357,2196.18,-1121.9)">
            <path d="M-124.55,214.131L368.143,214.131" style="fill:none;fill-rule:nonzero;stroke:rgb(255,226,0);stroke-width:0.34px;"/>
        </g>
        <g transform="matrix(-0.108093,-0.0614827,-4.12009,7.24357,2099.96,-1165.23)">
            <path d="M-124.55,214.131L368.143,214.131" style="fill:none;fill-rule:nonzero;stroke:rgb(255,226,0);stroke-width:0.34px;"/>
        </g>
        <g transform="matrix(-0.140255,-0.0797763,-4.12009,7.24357,2161,-1244.81)">
            <path d="M-124.55,214.131L368.143,214.131" style="fill:none;fill-rule:nonzero;stroke:rgb(255,226,0);stroke-width:0.34px;"/>
        </g>
        <g transform="matrix(-0.120218,-0.0683794,-4.12009,7.24357,2164.21,-1267.61)">
            <path d="M-124.55,214.131L368.143,214.131" style="fill:none;fill-rule:nonzero;stroke:rgb(255,226,0);stroke-width:0.34px;"/>
        </g>
        <g transform="matrix(-0.130509,-0.0742326,-4.12009,7.24357,2197.66,-1317.03)">
            <path d="M-124.55,214.131L368.143,214.131" style="fill:none;fill-rule:nonzero;stroke:rgb(255,226,0);stroke-width:0.34px;"/>
        </g>
        <g transform="matrix(-0.498921,-0.283783,-4.12009,7.24357,2347.07,-1264.61)">
            <path d="M-124.55,214.131L368.143,214.131" style="fill:none;fill-rule:nonzero;stroke:rgb(255,226,0);stroke-width:0.34px;"/>
        </g>
        <g transform="matrix(-0.498921,-0.283783,-4.12009,7.24357,2331.72,-1237.99)">
            <path d="M-124.55,214.131L368.143,214.131" style="fill:none;fill-rule:nonzero;stroke:rgb(255,226,0);stroke-width:0.34px;"/>
        </g>
        <g transform="matrix(-0.571952,-0.325323,-4.12009,7.24357,2332.93,-1176.54)">
            <path d="M-124.55,214.131L368.143,214.131" style="fill:none;fill-rule:nonzero;stroke:rgb(255,226,0);stroke-width:0.34px;"/>
        </g>
        <g transform="matrix(-0.630178,-0.358441,-4.12009,7.24357,2335.77,-1131.92)">
            <path d="M-124.55,214.131L368.143,214.131" style="fill:none;fill-rule:nonzero;stroke:rgb(255,226,0);stroke-width:0.34px;"/>
        </g>
        <g transform="matrix(-0.608993,-0.346391,-4.12009,7.24357,2284.25,-1061.9)">
            <path d="M-124.55,214.131L368.143,214.131" style="fill:none;fill-rule:nonzero;stroke:rgb(255,226,0);stroke-width:0.34px;"/>
        </g>
        <g transform="matrix(-0.720806,-0.409989,-4.12009,7.24357,2310.19,-1009.55)">
            <path d="M-124.55,214.131L368.143,214.131" style="fill:none;fill-rule:nonzero;stroke:rgb(255,226,0);stroke-width:0.34px;"/>
        </g>
        <g transform="matrix(-0.57956,-0.32965,-4.12009,7.24357,2228.69,-988.194)">
            <path d="M-124.55,214.131L368.143,214.131" style="fill:none;fill-rule:nonzero;stroke:rgb(255,226,0);stroke-width:0.34px;"/>
        </g>
        <g transform="matrix(-0.719773,-0.409402,-4.12009,7.24357,2251.62,-907.255)">
            <path d="M-124.55,214.131L368.143,214.131" style="fill:none;fill-rule:nonzero;stroke:rgb(255,226,0);stroke-width:0.34px;"/>
        </g>
        <g transform="matrix(-0.789587,-0.449111,-4.12009,7.24357,2264.39,-869.825)">
            <path d="M-124.55,214.131L368.143,214.131" style="fill:none;fill-rule:nonzero;stroke:rgb(255,226,0);stroke-width:0.34px;"/>
        </g>
        <g transform="matrix(-0.905649,-0.515127,-4.12009,7.24357,2259.5,-761.126)">
            <path d="M-124.55,214.131L368.143,214.131" style="fill:none;fill-rule:nonzero;stroke:rgb(255,226,0);stroke-width:0.34px;"/>
        </g>
        <g transform="matrix(-0.636009,-0.361757,-4.12009,7.24357,2142.11,-788.23)">
            <path d="M-124.55,214.131L368.143,214.131" style="fill:none;fill-rule:nonzero;stroke:rgb(255,226,0);stroke-width:0.34px;"/>
        </g>
        <g transform="matrix(-0.898936,-0.511309,-4.12009,7.24357,2236.35,-726.964)">
            <path d="M-124.55,214.131L368.143,214.131" style="fill:none;fill-rule:nonzero;stroke:rgb(255,226,0);stroke-width:0.34px;"/>
        </g>
        <g transform="matrix(-0.954898,-0.543139,-4.12009,7.24357,2231.63,-670.665)">
            <path d="M-124.55,214.131L368.143,214.131" style="fill:none;fill-rule:nonzero;stroke:rgb(255,226,0);stroke-width:0.34px;"/>
        </g>
        <g transform="matrix(-0.148392,-0.0844045,-4.12009,7.24357,2141.62,-1373.76)">
            <path d="M-124.55,214.131L368.143,214.131" style="fill:none;fill-rule:nonzero;stroke:rgb(255,226,0);stroke-width:0.34px;"/>
        </g>
        <g transform="matrix(-0.318783,-0.181321,-4.12009,7.24357,2119.17,-1385.09)">
            <path d="M-124.55,214.131L368.143,214.131" style="fill:none;fill-rule:nonzero;stroke:rgb(255,226,0);stroke-width:0.34px;"/>
        </g>
        <g transform="matrix(-0.461124,-0.262284,-4.12009,7.24357,2093.63,-1380.38)">
            <path d="M-124.55,214.131L368.143,214.131" style="fill:none;fill-rule:nonzero;stroke:rgb(255,226,0);stroke-width:0.34px;"/>
        </g>
        <g transform="matrix(-0.24179,-0.137529,-4.12009,7.24357,2161.25,-1436.45)">
            <path d="M-124.55,214.131L368.143,214.131" style="fill:none;fill-rule:nonzero;stroke:rgb(255,226,0);stroke-width:0.34px;"/>
        </g>
        <g transform="matrix(-0.120887,-0.0687596,-4.12009,7.24357,2187.14,-1447.97)">
            <path d="M-124.55,214.131L368.143,214.131" style="fill:none;fill-rule:nonzero;stroke:rgb(255,226,0);stroke-width:0.34px;"/>
        </g>
        <g transform="matrix(-0.190293,-0.108237,-4.12009,7.24357,2261.4,-1377.99)">
            <path d="M-124.55,214.131L368.143,214.131" style="fill:none;fill-rule:nonzero;stroke:rgb(255,226,0);stroke-width:0.34px;"/>
        </g>
        <g transform="matrix(-0.229508,-0.130542,-4.12009,7.24357,2274.09,-1367.14)">
            <path d="M-124.55,214.131L368.143,214.131" style="fill:none;fill-rule:nonzero;stroke:rgb(255,226,0);stroke-width:0.34px;"/>
        </g>
        <g transform="matrix(-0.252624,-0.143691,-4.12009,7.24357,2287.58,-1370.55)">
            <path d="M-124.55,214.131L368.143,214.131" style="fill:none;fill-rule:nonzero;stroke:rgb(255,226,0);stroke-width:0.34px;"/>
        </g>
        <g transform="matrix(-0.244387,-0.139006,-4.12009,7.24357,2296.07,-1392.56)">
            <path d="M-124.55,214.131L368.143,214.131" style="fill:none;fill-rule:nonzero;stroke:rgb(255,226,0);stroke-width:0.34px;"/>
        </g>
        <g transform="matrix(-0.196169,-0.111579,-4.12009,7.24357,2281.5,-1408.89)">
            <path d="M-124.55,214.131L368.143,214.131" style="fill:none;fill-rule:nonzero;stroke:rgb(255,226,0);stroke-width:0.34px;"/>
        </g>
        <g transform="matrix(-0.230038,-0.130844,-4.12009,7.24357,2335.48,-1473.86)">
            <path d="M-124.55,214.131L368.143,214.131" style="fill:none;fill-rule:nonzero;stroke:rgb(255,226,0);stroke-width:0.34px;"/>
        </g>
        <g transform="matrix(-0.288752,-0.16424,-4.12009,7.24357,2373.78,-1493.18)">
            <path d="M-124.55,214.131L368.143,214.131" style="fill:none;fill-rule:nonzero;stroke:rgb(255,226,0);stroke-width:0.34px;"/>
        </g>
        <g transform="matrix(-0.282101,-0.160457,-4.12009,7.24357,2357.98,-1470.06)">
            <path d="M-124.55,214.131L368.143,214.131" style="fill:none;fill-rule:nonzero;stroke:rgb(255,226,0);stroke-width:0.34px;"/>
        </g>
    </g>
    <g transform="matrix(1,0,0,1,-1.07492,11.9749)">
        <g transform="matrix(1.08087,0,0,1.08087,588.915,-28.5086)">
            <circle cx="122.564" cy="345.998" r="7.008" style="fill:rgb(206,206,206);"/>
        </g>
        <g transform="matrix(1.08087,0,0,1.08087,616.361,34.0713)">
            <circle cx="122.564" cy="345.998" r="7.008" style="fill:rgb(206,206,206);"/>
        </g>
        <g transform="matrix(1.08087,0,0,1.08087,653.446,55.5913)">
            <circle cx="122.564" cy="345.998" r="7.008" style="fill:rgb(206,206,206);"/>
        </g>
        <g transform="matrix(1.08087,0,0,1.08087,692.521,64.4112)">
            <circle cx="122.564" cy="345.998" r="7.008" style="fill:rgb(206,206,206);"/>
        </g>
        <g transform="matrix(1.08087,0,0,1.08087,693.637,103.894)">
            <circle cx="122.564" cy="345.998" r="7.008" style="fill:rgb(206,206,206);"/>
        </g>
        <g transform="matrix(1.08087,0,0,1.08087,537.657,152.721)">
            <circle cx="122.564" cy="345.998" r="7.008" style="fill:rgb(206,206,206);"/>
        </g>
        <g transform="matrix(1.08087,0,0,1.08087,603.938,183.256)">
            <circle cx="122.564" cy="345.998" r="7.008" style="fill:rgb(206,206,206);"/>
        </g>
        <g transform="matrix(1.08087,0,0,1.08087,667.383,246.558)">
            <circle cx="122.564" cy="345.998" r="7.008" style="fill:rgb(206,206,206);"/>
        </g>
        <g transform="matrix(1.08087,0,0,1.08087,642.662,288.999)">
            <circle cx="122.564" cy="345.998" r="7.008" style="fill:rgb(206,206,206);"/>
        </g>
        <g transform="matrix(1.08087,0,0,1.08087,750.39,321.859)">
            <circle cx="122.564" cy="345.998" r="7.008" style="fill:rgb(206,206,206);"/>
        </g>
        <g transform="matrix(1.08087,0,0,1.08087,719.509,349.404)">
            <circle cx="122.564" cy="345.998" r="7.008" style="fill:rgb(206,206,206);"/>
        </g>
        <g transform="matrix(1.08087,0,0,1.08087,738.857,371.35)">
            <circle cx="122.564" cy="345.998" r="7.008" style="fill:rgb(206,206,206);"/>
        </g>
        <g transform="matrix(1.08087,0,0,1.08087,755.825,370.523)">
            <circle cx="122.564" cy="345.998" r="7.008" style="fill:rgb(206,206,206);"/>
        </g>
        <g transform="matrix(1.08087,0,0,1.08087,773.523,339.263)">
            <circle cx="122.564" cy="345.998" r="7.008" style="fill:rgb(206,206,206);"/>
        </g>
        <g transform="matrix(1.08087,0,0,1.08087,785.302,331.942)">
            <circle cx="122.564" cy="345.998" r="7.008" style="fill:rgb(206,206,206);"/>
        </g>
        <g transform="matrix(1.08087,0,0,1.08087,794.167,297.873)">
            <circle cx="122.564" cy="345.998" r="7.008" style="fill:rgb(206,206,206);"/>
        </g>
        <g transform="matrix(1.08087,0,0,1.08087,800.811,299.897)">
            <circle cx="122.564" cy="345.998" r="7.008" style="fill:rgb(206,206,206);"/>
        </g>
        <g transform="matrix(1.08087,0,0,1.08087,867.473,235.599)">
            <circle cx="122.564" cy="345.998" r="7.008" style="fill:rgb(206,206,206);"/>
        </g>
        <g transform="matrix(1.08087,0,0,1.08087,894.691,210.106)">
            <circle cx="122.564" cy="345.998" r="7.008" style="fill:rgb(206,206,206);"/>
        </g>
        <g transform="matrix(1.08087,0,0,1.08087,912.014,203.803)">
            <circle cx="122.564" cy="345.998" r="7.008" style="fill:rgb(206,206,206);"/>
        </g>
        <g transform="matrix(1.08087,0,0,1.08087,916.388,198.629)">
            <circle cx="122.564" cy="345.998" r="7.008" style="fill:rgb(206,206,206);"/>
        </g>
        <g transform="matrix(1.08087,0,0,1.08087,918.217,180.171)">
            <circle cx="122.564" cy="345.998" r="7.008" style="fill:rgb(206,206,206);"/>
        </g>
        <g transform="matrix(1.08087,0,0,1.08087,937.083,197.464)">
            <circle cx="122.564" cy="345.998" r="7.008" style="fill:rgb(206,206,206);"/>
        </g>
        <g transform="matrix(1.08087,0,0,1.08087,1046.22,249.842)">
            <circle cx="122.564" cy="345.998" r="7.008" style="fill:rgb(206,206,206);"/>
        </g>
        <g transform="matrix(1.08087,0,0,1.08087,1045.17,374.909)">
            <circle cx="122.564" cy="345.998" r="7.008" style="fill:rgb(206,206,206);"/>
        </g>
        <g transform="matrix(1.08087,0,0,1.08087,973.346,142.821)">
            <circle cx="122.564" cy="345.998" r="7.008" style="fill:rgb(206,206,206);"/>
        </g>
        <g transform="matrix(1.08087,0,0,1.08087,986.823,124.383)">
            <circle cx="122.564" cy="345.998" r="7.008" style="fill:rgb(206,206,206);"/>
        </g>
        <g transform="matrix(1.08087,0,0,1.08087,975.441,122.78)">
            <circle cx="122.564" cy="345.998" r="7.008" style="fill:rgb(206,206,206);"/>
        </g>
        <g transform="matrix(1.08087,0,0,1.08087,977.249,118.019)">
            <circle cx="122.564" cy="345.998" r="7.008" style="fill:rgb(206,206,206);"/>
        </g>
        <g transform="matrix(1.08087,0,0,1.08087,965.947,110.694)">
            <circle cx="122.564" cy="345.998" r="7.008" style="fill:rgb(206,206,206);"/>
        </g>
        <g transform="matrix(1.08087,0,0,1.08087,973.131,108.129)">
            <circle cx="122.564" cy="345.998" r="7.008" style="fill:rgb(206,206,206);"/>
        </g>
        <g transform="matrix(1.08087,0,0,1.08087,889.989,59.9756)">
            <circle cx="122.564" cy="345.998" r="7.008" style="fill:rgb(206,206,206);"/>
        </g>
        <g transform="matrix(1.08087,0,0,1.08087,1008.08,81.2659)">
            <circle cx="122.564" cy="345.998" r="7.008" style="fill:rgb(206,206,206);"/>
        </g>
        <g transform="matrix(1.08087,0,0,1.08087,1019.97,69.9216)">
            <circle cx="122.564" cy="345.998" r="7.008" style="fill:rgb(206,206,206);"/>
        </g>
        <g transform="matrix(1.08087,0,0,1.08087,1072.79,88.7267)">
            <circle cx="122.564" cy="345.998" r="7.008" style="fill:rgb(206,206,206);"/>
        </g>
        <g transform="matrix(1.08087,0,0,1.08087,1026.86,42.6799)">
            <circle cx="122.564" cy="345.998" r="7.008" style="fill:rgb(206,206,206);"/>
        </g>
        <g transform="matrix(1.08087,0,0,1.08087,1051.18,39.9832)">
            <circle cx="122.564" cy="345.998" r="7.008" style="fill:rgb(206,206,206);"/>
        </g>
        <g transform="matrix(1.08087,0,0,1.08087,1063.05,10.6462)">
            <circle cx="122.564" cy="345.998" r="7.008" style="fill:rgb(206,206,206);"/>
        </g>
        <g transform="matrix(1.08087,0,0,1.08087,1071.43,-2.39814)">
            <circle cx="122.564" cy="345.998" r="7.008" style="fill:rgb(206,206,206);"/>
        </g>
        <g transform="matrix(1.08087,0,0,1.08087,1089.98,7.82721)">
            <circle cx="122.564" cy="345.998" r="7.008" style="fill:rgb(206,206,206);"/>
        </g>
        <g transform="matrix(1.08087,0,0,1.08087,1127.36,-41.4957)">
            <circle cx="122.564" cy="345.998" r="7.008" style="fill:rgb(206,206,206);"/>
        </g>
        <g transform="matrix(1.08087,0,0,1.08087,1163.75,-57.7765)">
            <circle cx="122.564" cy="345.998" r="7.008" style="fill:rgb(206,206,206);"/>
        </g>
        <g transform="matrix(1.08087,0,0,1.08087,1164.47,-81.9972)">
            <circle cx="122.564" cy="345.998" r="7.008" style="fill:rgb(206,206,206);"/>
        </g>
        <g transform="matrix(1.08087,0,0,1.08087,1214.51,22.048)">
            <circle cx="122.564" cy="345.998" r="7.008" style="fill:rgb(206,206,206);"/>
        </g>
        <g transform="matrix(1.08087,0,0,1.08087,1394.5,-52.1619)">
            <circle cx="122.564" cy="345.998" r="7.008" style="fill:rgb(206,206,206);"/>
        </g>
        <g transform="matrix(1.08087,0,0,1.08087,1379.15,-25.5433)">
            <circle cx="122.564" cy="345.998" r="7.008" style="fill:rgb(206,206,206);"/>
        </g>
        <g transform="matrix(1.08087,0,0,1.08087,1389.45,41.0742)">
            <circle cx="122.564" cy="345.998" r="7.008" style="fill:rgb(206,206,206);"/>
        </g>
        <g transform="matrix(1.08087,0,0,1.08087,1399.54,89.8271)">
            <circle cx="122.564" cy="345.998" r="7.008" style="fill:rgb(206,206,206);"/>
        </g>
        <g transform="matrix(1.08087,0,0,1.08087,1345.39,158.337)">
            <circle cx="122.564" cy="345.998" r="7.008" style="fill:rgb(206,206,206);"/>
        </g>
        <g transform="matrix(1.08087,0,0,1.08087,1385.25,218.616)">
            <circle cx="122.564" cy="345.998" r="7.008" style="fill:rgb(206,206,206);"/>
        </g>
        <g transform="matrix(1.08087,0,0,1.08087,1286.16,229.963)">
            <circle cx="122.564" cy="345.998" r="7.008" style="fill:rgb(206,206,206);"/>
        </g>
        <g transform="matrix(1.08087,0,0,1.08087,1326.55,320.835)">
            <circle cx="122.564" cy="345.998" r="7.008" style="fill:rgb(206,206,206);"/>
        </g>
        <g transform="matrix(1.08087,0,0,1.08087,1348.02,363.211)">
            <circle cx="122.564" cy="345.998" r="7.008" style="fill:rgb(206,206,206);"/>
        </g>
        <g transform="matrix(1.08087,0,0,1.08087,1206.61,433.925)">
            <circle cx="122.564" cy="345.998" r="7.008" style="fill:rgb(206,206,206);"/>
        </g>
        <g transform="matrix(1.08087,0,0,1.08087,1357.58,480.131)">
            <circle cx="122.564" cy="345.998" r="7.008" style="fill:rgb(206,206,206);"/>
        </g>
        <g transform="matrix(1.08087,0,0,1.08087,1333.6,513.818)">
            <circle cx="122.564" cy="345.998" r="7.008" style="fill:rgb(206,206,206);"/>
        </g>
        <g transform="matrix(1.08087,0,0,1.08087,1335.85,574.081)">
            <circle cx="122.564" cy="345.998" r="7.008" style="fill:rgb(206,206,206);"/>
        </g>
        <g transform="matrix(1.08087,0,0,1.08087,1141.82,524.295)">
            <circle cx="122.564" cy="345.998" r="7.008" style="fill:rgb(206,206,206);"/>
        </g>
        <g transform="matrix(1.08087,0,0,1.08087,975.442,558.557)">
            <circle cx="122.564" cy="345.998" r="7.008" style="fill:rgb(206,206,206);"/>
        </g>
        <g transform="matrix(1.08087,0,0,1.08087,898.459,558.771)">
            <circle cx="122.564" cy="345.998" r="7.008" style="fill:rgb(206,206,206);"/>
        </g>
        <g transform="matrix(1.08087,0,0,1.08087,783.659,535.304)">
            <circle cx="122.564" cy="345.998" r="7.008" style="fill:rgb(206,206,206);"/>
        </g>
        <g transform="matrix(1.08087,0,0,1.08087,632.328,466.878)">
            <circle cx="122.564" cy="345.998" r="7.008" style="fill:rgb(206,206,206);"/>
        </g>
        <g transform="matrix(1.08087,0,0,1.08087,626.778,461.993)">
            <circle cx="122.564" cy="345.998" r="7.008" style="fill:rgb(206,206,206);"/>
        </g>
        <g transform="matrix(1.08087,0,0,1.08087,563.363,495.857)">
            <circle cx="122.564" cy="345.998" r="7.008" style="fill:rgb(206,206,206);"/>
        </g>
        <g transform="matrix(1.08087,0,0,1.08087,555.588,506.822)">
            <circle cx="122.564" cy="345.998" r="7.008" style="fill:rgb(206,206,206);"/>
        </g>
        <g transform="matrix(1.08087,0,0,1.08087,538.604,542.094)">
            <circle cx="122.564" cy="345.998" r="7.008" style="fill:rgb(206,206,206);"/>
        </g>
        <g transform="matrix(1.08087,0,0,1.08087,540.778,555.457)">
            <circle cx="122.564" cy="345.998" r="7.008" style="fill:rgb(206,206,206);"/>
        </g>
        <g transform="matrix(1.08087,0,0,1.08087,560.004,550.399)">
            <circle cx="122.564" cy="345.998" r="7.008" style="fill:rgb(206,206,206);"/>
        </g>
        <g transform="matrix(1.08087,0,0,1.08087,1213.88,83.0325)">
            <circle cx="122.564" cy="345.998" r="7.008" style="fill:rgb(206,206,206);"/>
        </g>
        <g transform="matrix(1.08087,0,0,1.08087,1225.67,80.3443)">
            <circle cx="122.564" cy="345.998" r="7.008" style="fill:rgb(206,206,206);"/>
        </g>
        <g transform="matrix(1.08087,0,0,1.08087,1071.06,-89.1847)">
            <circle cx="122.564" cy="345.998" r="7.008" style="fill:rgb(206,206,206);"/>
        </g>
        <g transform="matrix(1.08087,0,0,1.08087,970.99,-87.6472)">
            <circle cx="122.564" cy="345.998" r="7.008" style="fill:rgb(206,206,206);"/>
        </g>
        <g transform="matrix(1.08087,0,0,1.08087,792.798,-124.835)">
            <circle cx="122.564" cy="345.998" r="7.008" style="fill:rgb(206,206,206);"/>
        </g>
        <g transform="matrix(1.08087,0,0,1.08087,1072.27,-227.733)">
            <circle cx="122.564" cy="345.998" r="7.008" style="fill:rgb(206,206,206);"/>
        </g>
        <g transform="matrix(1.08087,0,0,1.08087,987.099,-274.746)">
            <circle cx="122.564" cy="345.998" r="7.008" style="fill:rgb(206,206,206);"/>
        </g>
        <g transform="matrix(1.08087,0,0,1.08087,909.156,-299.844)">
            <circle cx="122.564" cy="345.998" r="7.008" style="fill:rgb(206,206,206);"/>
        </g>
        <g transform="matrix(1.08087,0,0,1.08087,1057.52,-309.981)">
            <circle cx="122.564" cy="345.998" r="7.008" style="fill:rgb(206,206,206);"/>
        </g>
        <g transform="matrix(1.08087,0,0,1.08087,1127.92,-296.182)">
            <circle cx="122.564" cy="345.998" r="7.008" style="fill:rgb(206,206,206);"/>
        </g>
        <g transform="matrix(1.08087,0,0,1.08087,1166.55,-220.45)">
            <circle cx="122.564" cy="345.998" r="7.008" style="fill:rgb(206,206,206);"/>
        </g>
        <g transform="matrix(1.08087,0,0,1.08087,1199.2,-130.688)">
            <circle cx="122.564" cy="345.998" r="7.008" style="fill:rgb(206,206,206);"/>
        </g>
        <g transform="matrix(1.08087,0,0,1.08087,1270.38,-187.413)">
            <circle cx="122.564" cy="345.998" r="7.008" style="fill:rgb(206,206,206);"/>
        </g>
        <g transform="matrix(1.08087,0,0,1.08087,1287.96,-173.786)">
            <circle cx="122.564" cy="345.998" r="7.008" style="fill:rgb(206,206,206);"/>
        </g>
        <g transform="matrix(1.08087,0,0,1.08087,1304.33,-175.556)">
            <circle cx="122.564" cy="345.998" r="7.008" style="fill:rgb(206,206,206);"/>
        </g>
        <g transform="matrix(1.08087,0,0,1.08087,1311.79,-198.152)">
            <circle cx="122.564" cy="345.998" r="7.008" style="fill:rgb(206,206,206);"/>
        </g>
        <g transform="matrix(1.08087,0,0,1.08087,1291.22,-217.89)">
            <circle cx="122.564" cy="345.998" r="7.008" style="fill:rgb(206,206,206);"/>
        </g>
        <g transform="matrix(1.08087,0,0,1.08087,1349.42,-280.465)">
            <circle cx="122.564" cy="345.998" r="7.008" style="fill:rgb(206,206,206);"/>
        </g>
        <g transform="matrix(1.08087,0,0,1.08087,1378.4,-272.973)">
            <circle cx="122.564" cy="345.998" r="7.008" style="fill:rgb(206,206,206);"/>
        </g>
        <g transform="matrix(1.08087,0,0,1.08087,1395.03,-295.63)">
            <circle cx="122.564" cy="345.998" r="7.008" style="fill:rgb(206,206,206);"/>
        </g>
        <g transform="matrix(1.08087,0,0,1.08087,1098.71,19.5272)">
            <circle cx="122.564" cy="345.998" r="7.008" style="fill:rgb(206,206,206);"/>
        </g>
        <g transform="matrix(1.08087,0,0,1.08087,743.597,32.8103)">
            <circle cx="122.564" cy="345.998" r="7.008" style="fill:rgb(206,206,206);"/>
        </g>
    </g>
    <g transform="matrix(1.17935,-2.07342,-7.24357,-4.12009,2504.93,1649.78)">
        <path d="M-124.55,214.131L368.143,214.131" style="fill:none;fill-rule:nonzero;stroke:rgb(91,155,213);stroke-width:0.65px;"/>
    </g>
</svg>
