<?xml version="1.0" encoding="UTF-8" standalone="no"?>
<!DOCTYPE svg PUBLIC "-//W3C//DTD SVG 1.1//EN" "http://www.w3.org/Graphics/SVG/1.1/DTD/svg11.dtd">
<svg width="100%" height="100%" viewBox="0 0 500 106" version="1.1" xmlns="http://www.w3.org/2000/svg" xmlns:xlink="http://www.w3.org/1999/xlink" xml:space="preserve" xmlns:serif="http://www.serif.com/" style="fill-rule:evenodd;clip-rule:evenodd;stroke-linecap:square;stroke-linejoin:round;stroke-miterlimit:10;">
    <g id="Layer-1" serif:id="Layer 1" transform="matrix(1,0,0,1,-249.121,-104.915)">
        <g transform="matrix(0.2768,0,0,0.2768,465.112,201.263)">
            <path d="M0,0L434,0" style="fill:none;fill-rule:nonzero;stroke:white;stroke-width:0.5px;"/>
        </g>
        <g transform="matrix(0,-0.2768,-0.2768,0,465.713,200.663)">
            <path d="M-2.17,2.17L2.17,2.17" style="fill:none;fill-rule:nonzero;stroke:white;stroke-width:0.5px;"/>
        </g>
        <g transform="matrix(0,-0.2768,-0.2768,0,480.729,200.663)">
            <path d="M-2.17,2.17L2.17,2.17" style="fill:none;fill-rule:nonzero;stroke:white;stroke-width:0.5px;"/>
        </g>
        <g transform="matrix(0,-0.2768,-0.2768,0,495.745,200.663)">
            <path d="M-2.17,2.17L2.17,2.17" style="fill:none;fill-rule:nonzero;stroke:white;stroke-width:0.5px;"/>
        </g>
        <g transform="matrix(0,-0.2768,-0.2768,0,510.762,200.663)">
            <path d="M-2.17,2.17L2.17,2.17" style="fill:none;fill-rule:nonzero;stroke:white;stroke-width:0.5px;"/>
        </g>
        <g transform="matrix(0,-0.2768,-0.2768,0,525.778,200.663)">
            <path d="M-2.17,2.17L2.17,2.17" style="fill:none;fill-rule:nonzero;stroke:white;stroke-width:0.5px;"/>
        </g>
        <g transform="matrix(0,-0.2768,-0.2768,0,540.795,200.663)">
            <path d="M-2.17,2.17L2.17,2.17" style="fill:none;fill-rule:nonzero;stroke:white;stroke-width:0.5px;"/>
        </g>
        <g transform="matrix(0,-0.2768,-0.2768,0,555.811,200.663)">
            <path d="M-2.17,2.17L2.17,2.17" style="fill:none;fill-rule:nonzero;stroke:white;stroke-width:0.5px;"/>
        </g>
        <g transform="matrix(0,-0.2768,-0.2768,0,570.827,200.663)">
            <path d="M-2.17,2.17L2.17,2.17" style="fill:none;fill-rule:nonzero;stroke:white;stroke-width:0.5px;"/>
        </g>
        <g transform="matrix(0,-0.2768,-0.2768,0,585.844,200.663)">
            <path d="M-2.17,2.17L2.17,2.17" style="fill:none;fill-rule:nonzero;stroke:white;stroke-width:0.5px;"/>
        </g>
        <g transform="matrix(0.2768,0,0,0.2768,523.829,205.916)">
            <path d="M0,11.875C0,11.76 0.01,11.672 0.031,11.609L2.266,2.656C2.422,2.104 2.5,1.619 2.5,1.203C2.5,0.338 2.203,-0.094 1.609,-0.094C0.984,-0.094 0.521,0.281 0.219,1.031C-0.084,1.781 -0.375,2.724 -0.656,3.859C-0.656,3.922 -0.686,3.971 -0.742,4.008C-0.8,4.044 -0.854,4.063 -0.906,4.063L-1.25,4.063C-1.323,4.063 -1.383,4.023 -1.43,3.945C-1.477,3.867 -1.5,3.802 -1.5,3.75C-1.292,2.875 -1.086,2.135 -0.883,1.531C-0.68,0.927 -0.367,0.377 0.055,-0.117C0.477,-0.612 1.005,-0.859 1.641,-0.859C2.338,-0.859 2.947,-0.662 3.469,-0.266C3.989,0.13 4.312,0.656 4.437,1.312C4.947,0.646 5.528,0.117 6.18,-0.273C6.83,-0.664 7.541,-0.859 8.312,-0.859C8.947,-0.859 9.505,-0.675 9.984,-0.305C10.463,0.064 10.703,0.567 10.703,1.203C10.703,1.703 10.547,2.143 10.234,2.523C9.922,2.903 9.5,3.094 8.969,3.094C8.645,3.094 8.375,2.992 8.156,2.789C7.937,2.586 7.828,2.322 7.828,2C7.828,1.562 7.989,1.172 8.312,0.828C8.635,0.484 9.005,0.312 9.422,0.312C9.099,0.041 8.708,-0.094 8.25,-0.094C7.385,-0.094 6.638,0.211 6.008,0.82C5.377,1.43 4.807,2.203 4.297,3.141L2.156,11.734C2.083,12.005 1.927,12.239 1.687,12.437C1.447,12.635 1.182,12.734 0.891,12.734C0.65,12.734 0.442,12.656 0.266,12.5C0.088,12.344 0,12.135 0,11.875" style="fill:white;fill-rule:nonzero;"/>
        </g>
        <g transform="matrix(0,-0.2768,-0.2768,0,512.514,153.861)">
            <path d="M-171.25,171.25L171.25,171.25" style="fill:none;fill-rule:nonzero;stroke:white;stroke-width:0.5px;"/>
        </g>
        <g transform="matrix(0.2768,0,0,0.2768,465.112,191.783)">
            <path d="M0,0L4.34,0" style="fill:none;fill-rule:nonzero;stroke:white;stroke-width:0.5px;"/>
        </g>
        <g transform="matrix(0.2768,0,0,0.2768,465.112,182.302)">
            <path d="M0,0L4.34,0" style="fill:none;fill-rule:nonzero;stroke:white;stroke-width:0.5px;"/>
        </g>
        <g transform="matrix(0.2768,0,0,0.2768,465.112,172.822)">
            <path d="M0,0L4.34,0" style="fill:none;fill-rule:nonzero;stroke:white;stroke-width:0.5px;"/>
        </g>
        <g transform="matrix(0.2768,0,0,0.2768,465.112,163.342)">
            <path d="M0,0L4.34,0" style="fill:none;fill-rule:nonzero;stroke:white;stroke-width:0.5px;"/>
        </g>
        <g transform="matrix(0.2768,0,0,0.2768,465.112,153.861)">
            <path d="M0,0L4.34,0" style="fill:none;fill-rule:nonzero;stroke:white;stroke-width:0.5px;"/>
        </g>
        <g transform="matrix(0.2768,0,0,0.2768,465.112,144.381)">
            <path d="M0,0L4.34,0" style="fill:none;fill-rule:nonzero;stroke:white;stroke-width:0.5px;"/>
        </g>
        <g transform="matrix(0.2768,0,0,0.2768,465.112,134.9)">
            <path d="M0,0L4.34,0" style="fill:none;fill-rule:nonzero;stroke:white;stroke-width:0.5px;"/>
        </g>
        <g transform="matrix(0.2768,0,0,0.2768,465.112,125.42)">
            <path d="M0,0L4.34,0" style="fill:none;fill-rule:nonzero;stroke:white;stroke-width:0.5px;"/>
        </g>
        <g transform="matrix(0.2768,0,0,0.2768,465.112,115.94)">
            <path d="M0,0L4.34,0" style="fill:none;fill-rule:nonzero;stroke:white;stroke-width:0.5px;"/>
        </g>
        <g transform="matrix(0.2768,0,0,0.2768,465.112,106.459)">
            <path d="M0,0L4.34,0" style="fill:none;fill-rule:nonzero;stroke:white;stroke-width:0.5px;"/>
        </g>
        <g transform="matrix(0.2768,0,0,0.2768,462.577,158.998)">
            <path d="M0,14.297C-0.114,14.297 -0.192,14.286 -0.234,14.266L-12.219,11.281C-13.292,11 -14.344,10.516 -15.375,9.828C-16.406,9.141 -17.25,8.308 -17.906,7.328C-18.562,6.349 -18.891,5.318 -18.891,4.234C-18.891,3.37 -18.664,2.612 -18.211,1.961C-17.758,1.31 -17.164,0.82 -16.43,0.492C-15.695,0.164 -14.885,0 -14,0C-13.042,0 -12.044,0.198 -11.008,0.594C-9.971,0.989 -9.023,1.536 -8.164,2.234C-7.305,2.933 -6.612,3.737 -6.086,4.649C-5.56,5.56 -5.297,6.511 -5.297,7.5C-5.297,8.094 -5.471,8.649 -5.82,9.164C-6.169,9.68 -6.625,10.083 -7.187,10.375L-0.125,12.156C0.167,12.208 0.398,12.352 0.57,12.586C0.742,12.82 0.828,13.083 0.828,13.375C0.828,13.625 0.753,13.841 0.602,14.024C0.451,14.206 0.25,14.297 0,14.297M-6.094,7.453C-6.094,6.391 -6.638,5.466 -7.727,4.68C-8.815,3.894 -10.094,3.292 -11.563,2.875C-13.031,2.458 -14.276,2.25 -15.297,2.25C-16.057,2.25 -16.719,2.417 -17.281,2.75C-17.844,3.083 -18.125,3.599 -18.125,4.297C-18.125,5.172 -17.794,5.941 -17.133,6.602C-16.471,7.263 -15.698,7.794 -14.813,8.195C-13.927,8.597 -13,8.922 -12.031,9.172L-8.672,10C-7.953,9.875 -7.344,9.589 -6.844,9.141C-6.344,8.693 -6.094,8.13 -6.094,7.453" style="fill:white;fill-rule:nonzero;"/>
        </g>
        <g transform="matrix(0.2768,0,0,0.2768,463.355,155.548)">
            <path d="M0,11.5C-0.083,11.5 -0.141,11.49 -0.172,11.469L-12.563,8.391C-12.76,8.328 -12.922,8.217 -13.047,8.055C-13.172,7.894 -13.234,7.709 -13.234,7.5C-13.234,7.323 -13.182,7.175 -13.078,7.055C-12.974,6.936 -12.833,6.875 -12.656,6.875L-12.555,6.875C-12.528,6.875 -12.5,6.881 -12.469,6.891L-7.562,8.125C-6.979,8.261 -6.479,8.328 -6.062,8.328C-5.542,8.328 -5.112,8.206 -4.773,7.961C-4.435,7.717 -4.266,7.344 -4.266,6.844C-4.266,5.834 -4.901,4.938 -6.172,4.156C-6.192,4.156 -6.206,4.154 -6.211,4.148C-6.216,4.144 -6.224,4.141 -6.234,4.141L-12.328,2.625C-12.516,2.573 -12.674,2.464 -12.805,2.297C-12.935,2.13 -13,1.943 -13,1.734C-13,1.578 -12.945,1.435 -12.836,1.305C-12.727,1.175 -12.583,1.109 -12.406,1.109C-12.333,1.109 -12.281,1.12 -12.25,1.141L-6.203,2.641C-5.807,2.745 -5.463,2.797 -5.172,2.797C-4.567,2.797 -4.266,2.594 -4.266,2.187C-4.266,1.75 -4.536,1.419 -5.078,1.195C-5.62,0.972 -6.276,0.776 -7.047,0.609C-7.12,0.589 -7.156,0.531 -7.156,0.437L-7.156,0.187C-7.156,0.136 -7.135,0.091 -7.094,0.055C-7.052,0.019 -7.005,0 -6.953,0C-5.974,0.25 -5.19,0.519 -4.602,0.805C-4.013,1.091 -3.719,1.562 -3.719,2.219C-3.719,2.687 -3.852,3.102 -4.117,3.461C-4.383,3.82 -4.739,4.053 -5.187,4.156C-4.75,4.511 -4.396,4.922 -4.125,5.391C-3.854,5.859 -3.719,6.354 -3.719,6.875C-3.719,7.75 -3.922,8.437 -4.328,8.937L-0.094,10C0.104,10.042 0.266,10.144 0.391,10.305C0.516,10.467 0.578,10.651 0.578,10.859C0.578,11.026 0.526,11.175 0.422,11.305C0.318,11.436 0.177,11.5 0,11.5" style="fill:white;fill-rule:nonzero;"/>
        </g>
        <g transform="matrix(0.2768,0,0,0.2768,463.074,153.979)">
            <path d="M0,-5.703C-0.875,-4.588 -1.883,-3.63 -3.023,-2.828C-4.164,-2.026 -5.377,-1.367 -6.664,-0.851C-7.95,-0.336 -9.297,0.047 -10.703,0.297C-12.109,0.547 -13.521,0.672 -14.938,0.672C-16.375,0.672 -17.797,0.547 -19.203,0.297C-20.609,0.047 -21.961,-0.341 -23.258,-0.867C-24.555,-1.393 -25.771,-2.06 -26.906,-2.867C-28.042,-3.674 -29.031,-4.62 -29.875,-5.703C-29.917,-5.703 -29.937,-5.755 -29.937,-5.859L-29.937,-6.14C-29.937,-6.193 -29.911,-6.245 -29.859,-6.297C-29.807,-6.349 -29.745,-6.375 -29.672,-6.375C-29.588,-6.375 -29.526,-6.354 -29.484,-6.312C-28.526,-5.333 -27.5,-4.518 -26.406,-3.867C-25.312,-3.216 -24.148,-2.693 -22.914,-2.297C-21.68,-1.901 -20.401,-1.617 -19.078,-1.445C-17.755,-1.273 -16.375,-1.187 -14.938,-1.187C-8.583,-1.187 -3.755,-2.885 -0.453,-6.281C-0.391,-6.344 -0.307,-6.375 -0.203,-6.375C-0.151,-6.375 -0.094,-6.346 -0.031,-6.289C0.031,-6.232 0.062,-6.182 0.062,-6.14L0.062,-5.859C0.062,-5.755 0.042,-5.703 0,-5.703" style="fill:white;fill-rule:nonzero;"/>
        </g>
        <g transform="matrix(0.2768,0,0,0.2768,460.872,148.557)">
            <path d="M0,9.203C-0.114,9.203 -0.203,9.192 -0.266,9.172L-9.219,6.937C-9.771,6.781 -10.255,6.703 -10.672,6.703C-11.536,6.703 -11.969,7 -11.969,7.594C-11.969,8.219 -11.594,8.682 -10.844,8.984C-10.094,9.286 -9.151,9.578 -8.016,9.859C-7.953,9.859 -7.903,9.888 -7.867,9.945C-7.831,10.002 -7.812,10.057 -7.812,10.109L-7.812,10.453C-7.812,10.526 -7.852,10.586 -7.93,10.633C-8.008,10.68 -8.073,10.703 -8.125,10.703C-9,10.495 -9.739,10.289 -10.344,10.086C-10.948,9.883 -11.497,9.57 -11.992,9.148C-12.487,8.726 -12.734,8.198 -12.734,7.562C-12.734,6.864 -12.536,6.255 -12.141,5.734C-11.745,5.213 -11.219,4.891 -10.563,4.766C-11.229,4.255 -11.758,3.674 -12.148,3.023C-12.539,2.372 -12.734,1.661 -12.734,0.89C-12.734,0.255 -12.549,-0.302 -12.18,-0.781C-11.81,-1.261 -11.307,-1.5 -10.672,-1.5C-10.172,-1.5 -9.731,-1.344 -9.352,-1.031C-8.971,-0.719 -8.781,-0.297 -8.781,0.234C-8.781,0.557 -8.883,0.828 -9.086,1.047C-9.289,1.266 -9.552,1.375 -9.875,1.375C-10.313,1.375 -10.703,1.213 -11.047,0.89C-11.391,0.567 -11.563,0.198 -11.563,-0.219C-11.833,0.104 -11.969,0.495 -11.969,0.953C-11.969,1.817 -11.664,2.565 -11.055,3.195C-10.445,3.825 -9.672,4.395 -8.734,4.906L-0.141,7.047C0.13,7.12 0.365,7.276 0.562,7.516C0.761,7.755 0.859,8.02 0.859,8.312C0.859,8.552 0.781,8.76 0.625,8.937C0.469,9.114 0.261,9.203 0,9.203" style="fill:white;fill-rule:nonzero;"/>
        </g>
        <g transform="matrix(0.2768,0,0,0.2768,463.091,145.423)">
            <path d="M0,6.515C0,6.692 -0.088,6.781 -0.266,6.781C-0.349,6.781 -0.411,6.76 -0.453,6.718C-3.797,3.301 -8.646,1.593 -15,1.593C-21.354,1.593 -26.182,3.286 -29.484,6.671C-29.536,6.744 -29.62,6.781 -29.734,6.781C-29.807,6.781 -29.87,6.754 -29.922,6.702C-29.974,6.65 -30,6.588 -30,6.515L-30,6.234C-30,6.182 -29.979,6.135 -29.937,6.093C-28.812,4.656 -27.437,3.46 -25.812,2.507C-24.187,1.554 -22.458,0.853 -20.625,0.406C-18.792,-0.043 -16.917,-0.266 -15,-0.266C-13.583,-0.266 -12.19,-0.147 -10.82,0.093C-9.45,0.332 -8.099,0.713 -6.766,1.234C-5.432,1.754 -4.2,2.416 -3.07,3.218C-1.94,4.02 -0.937,4.978 -0.062,6.093C-0.021,6.135 0,6.182 0,6.234L0,6.515Z" style="fill:white;fill-rule:nonzero;"/>
        </g>
        <g transform="matrix(0.2768,0,0,0.2768,465.112,201.263)">
            <path d="M0,-120.559L2.17,-119.455L3.255,-118.902L4.34,-118.347L5.425,-117.793L6.51,-117.238L7.595,-116.682L9.765,-115.568L11.935,-114.452L15.19,-112.772L16.275,-112.21L17.36,-111.649L18.445,-111.085L19.53,-110.522L20.615,-109.958L22.785,-108.828L23.87,-108.262L24.955,-107.695L28.21,-105.991L29.295,-105.42L30.38,-104.851L31.465,-104.28L32.55,-103.708L33.635,-103.135L34.72,-102.563L35.805,-101.989L39.06,-100.264L40.145,-99.688L41.23,-99.111L43.4,-97.955L44.485,-97.374L45.57,-96.795L47.74,-95.633L49.91,-94.469L53.165,-92.717L56.42,-90.959L57.505,-90.372L58.59,-89.784L59.675,-89.195L61.845,-88.015L62.93,-87.424L64.015,-86.832L65.1,-86.241L66.185,-85.648L69.44,-83.866L70.525,-83.27L71.61,-82.673L72.695,-82.077L73.78,-81.479L74.865,-80.88L75.95,-80.282L77.035,-79.682L79.205,-78.48L81.375,-77.276L82.46,-76.672L83.545,-76.069L85.715,-74.859L87.885,-73.647L88.97,-73.039L90.055,-72.432L91.14,-71.823L92.225,-71.213L93.31,-70.604L94.395,-69.993L95.48,-69.381L96.565,-68.77L97.65,-68.157L100.905,-66.315L101.99,-65.7L105.245,-63.849L106.33,-63.231L107.415,-62.612L108.5,-61.992L111.755,-60.129L112.84,-59.507L113.925,-58.884L116.095,-57.636L117.18,-57.011L118.265,-56.385L120.435,-55.131L122.605,-53.875L124.775,-52.617L126.945,-51.355L128.03,-50.723L129.115,-50.09L130.2,-49.456L131.285,-48.823L133.455,-47.553L134.54,-46.916L135.625,-46.28L136.71,-45.643L137.795,-45.004L138.88,-44.366L142.135,-42.446L144.305,-41.162L145.39,-40.519L147.56,-39.231L149.73,-37.941L150.815,-37.294L151.9,-36.648L152.985,-35.999L155.155,-34.703L157.325,-33.403L160.58,-31.447L161.665,-30.793L162.75,-30.14L163.835,-29.486L167.09,-27.518L168.175,-26.861L169.26,-26.203L171.43,-24.885L172.515,-24.225L174.685,-22.903L175.77,-22.241L176.855,-21.578L179.025,-20.25L181.195,-18.92L182.28,-18.254L183.365,-17.587L185.535,-16.251L187.705,-14.913L188.79,-14.243L189.875,-13.572L192.045,-12.228L193.13,-11.555L194.215,-10.881L195.3,-10.206L196.385,-9.532L197.47,-8.856L200.725,-6.825L203.98,-4.788L205.065,-4.107L206.15,-3.425L207.235,-2.775L208.32,-2.193L209.405,-1.679L210.49,-1.234L211.575,-0.857L212.66,-0.548L213.745,-0.309L214.83,-0.137L215.915,-0.035L217,0L218.085,-0.035L219.17,-0.137L220.255,-0.309L221.34,-0.548L222.425,-0.857L223.51,-1.234L224.595,-1.679L225.68,-2.193L226.765,-2.775L227.85,-3.425L228.935,-4.107L230.02,-4.788L233.275,-6.825L236.53,-8.856L237.615,-9.532L238.7,-10.206L239.785,-10.881L240.87,-11.555L241.955,-12.228L244.125,-13.572L245.21,-14.243L246.295,-14.913L248.465,-16.251L250.635,-17.587L251.72,-18.254L252.805,-18.92L254.975,-20.25L257.145,-21.578L258.23,-22.241L259.315,-22.903L261.485,-24.225L262.57,-24.885L264.74,-26.203L265.825,-26.861L266.91,-27.518L270.165,-29.486L271.25,-30.14L272.335,-30.793L273.42,-31.447L276.675,-33.403L278.845,-34.703L281.015,-35.999L282.1,-36.648L283.185,-37.294L284.27,-37.941L286.44,-39.231L288.61,-40.519L289.695,-41.162L291.865,-42.446L295.12,-44.366L296.205,-45.004L297.29,-45.643L298.375,-46.28L299.46,-46.916L300.545,-47.553L302.715,-48.823L303.8,-49.456L304.885,-50.09L305.97,-50.723L307.055,-51.355L309.225,-52.617L311.395,-53.875L313.565,-55.131L315.735,-56.385L316.82,-57.011L317.905,-57.636L320.075,-58.884L321.16,-59.507L322.245,-60.129L325.5,-61.992L326.585,-62.612L327.67,-63.231L328.755,-63.849L332.01,-65.7L333.095,-66.315L336.35,-68.157L337.435,-68.77L338.52,-69.381L339.605,-69.993L340.69,-70.604L341.775,-71.213L342.86,-71.823L343.945,-72.432L345.03,-73.039L346.115,-73.647L348.285,-74.859L350.455,-76.069L351.54,-76.672L352.625,-77.276L354.795,-78.48L356.965,-79.682L358.05,-80.282L359.135,-80.88L360.22,-81.479L361.305,-82.077L362.39,-82.673L363.475,-83.27L364.56,-83.866L367.815,-85.648L368.9,-86.241L369.985,-86.832L371.07,-87.424L372.155,-88.015L374.325,-89.195L375.41,-89.784L376.495,-90.372L377.58,-90.959L380.835,-92.717L384.09,-94.469L386.26,-95.633L388.43,-96.795L389.515,-97.374L390.6,-97.955L392.77,-99.111L393.855,-99.688L394.94,-100.264L398.195,-101.989L399.28,-102.563L400.365,-103.135L401.45,-103.708L402.535,-104.28L403.62,-104.851L404.705,-105.42L405.79,-105.991L409.045,-107.695L410.13,-108.262L411.215,-108.828L413.385,-109.958L414.47,-110.522L415.555,-111.085L416.64,-111.649L417.725,-112.21L418.81,-112.772L422.065,-114.452L424.235,-115.568L426.405,-116.682L427.49,-117.238L428.575,-117.793L429.66,-118.347L430.745,-118.902L431.83,-119.455L434,-120.559" style="fill:none;fill-rule:nonzero;stroke:rgb(0,172,236);stroke-width:3px;stroke-linecap:butt;"/>
        </g>
        <g transform="matrix(0.2768,0,0,0.2768,465.112,201.263)">
            <path d="M0,-161.425L1.085,-160.72L2.17,-160.014L3.255,-159.306L4.34,-158.597L5.425,-157.886L6.51,-157.174L7.595,-156.461L8.68,-155.746L9.765,-155.03L10.85,-154.313L11.935,-153.594L13.02,-152.874L14.105,-152.153L15.19,-151.43L17.36,-149.98L18.445,-149.253L19.53,-148.525L20.615,-147.795L21.7,-147.064L23.87,-145.598L24.955,-144.863L26.04,-144.126L27.125,-143.388L28.21,-142.649L29.295,-141.907L30.38,-141.166L32.55,-139.678L33.635,-138.932L34.72,-138.184L35.805,-137.435L36.89,-136.685L37.975,-135.933L39.06,-135.18L40.145,-134.426L41.23,-133.67L43.4,-132.154L44.485,-131.395L45.57,-130.633L47.74,-129.107L48.825,-128.341L50.995,-126.807L52.08,-126.037L53.165,-125.266L54.25,-124.494L55.335,-123.721L56.42,-122.946L58.59,-121.392L60.76,-119.832L61.845,-119.05L62.93,-118.267L64.015,-117.483L66.185,-115.909L67.27,-115.121L68.355,-114.331L69.44,-113.539L70.525,-112.746L71.61,-111.952L72.695,-111.157L73.78,-110.361L75.95,-108.763L78.12,-107.159L79.205,-106.356L81.375,-104.744L82.46,-103.936L83.545,-103.127L84.63,-102.317L85.715,-101.504L86.8,-100.692L87.885,-99.876L88.97,-99.061L90.055,-98.243L92.225,-96.605L93.31,-95.782L94.395,-94.96L95.48,-94.136L96.565,-93.31L97.65,-92.483L99.82,-90.825L101.99,-89.161L103.075,-88.327L104.16,-87.492L106.33,-85.818L107.415,-84.979L108.5,-84.138L109.585,-83.296L111.755,-81.608L113.925,-79.914L115.01,-79.065L116.095,-78.215L117.18,-77.362L118.265,-76.51L120.435,-74.8L121.52,-73.943L122.605,-73.084L123.69,-72.224L124.775,-71.363L126.945,-69.637L128.03,-68.771L129.115,-67.904L130.2,-67.036L131.285,-66.167L132.37,-65.296L133.455,-64.424L134.54,-63.55L135.625,-62.675L136.71,-61.799L137.795,-60.921L138.88,-60.042L139.965,-59.161L142.135,-57.397L143.22,-56.512L144.305,-55.626L145.39,-54.739L146.475,-53.851L147.56,-52.96L148.645,-52.07L150.815,-50.282L151.9,-49.387L152.985,-48.489L154.07,-47.592L155.155,-46.692L156.24,-45.791L157.325,-44.889L158.41,-43.985L159.495,-43.08L161.665,-41.266L162.75,-40.357L163.835,-39.446L164.92,-38.534L167.09,-36.706L168.175,-35.79L169.26,-34.872L170.345,-33.953L172.515,-32.113L173.6,-31.19L174.685,-30.265L175.77,-29.339L176.855,-28.412L177.94,-27.484L179.025,-26.554L180.11,-25.623L181.195,-24.691L182.28,-23.757L184.45,-21.885L185.535,-20.947L186.62,-20.008L187.705,-19.067L188.79,-18.125L189.875,-17.182L190.96,-16.237L193.13,-14.343L194.215,-13.394L195.3,-12.444L196.385,-11.492L197.47,-10.539L199.64,-8.629L200.725,-7.672L201.81,-6.713L202.895,-5.788L203.98,-4.932L205.065,-4.145L206.15,-3.425L207.235,-2.775L208.32,-2.193L209.405,-1.679L210.49,-1.234L211.575,-0.857L212.66,-0.548L213.745,-0.309L214.83,-0.137L215.915,-0.034L217,0L218.085,-0.034L219.17,-0.137L220.255,-0.309L221.34,-0.548L222.425,-0.857L223.51,-1.234L224.595,-1.679L225.68,-2.193L226.765,-2.775L227.85,-3.425L228.935,-4.145L230.02,-4.932L231.105,-5.788L232.19,-6.713L233.275,-7.672L234.36,-8.629L236.53,-10.539L237.615,-11.492L238.7,-12.444L239.785,-13.394L240.87,-14.343L243.04,-16.237L244.125,-17.182L245.21,-18.125L246.295,-19.067L247.38,-20.008L248.465,-20.947L249.55,-21.885L251.72,-23.757L252.805,-24.691L253.89,-25.623L254.975,-26.554L256.06,-27.484L257.145,-28.412L258.23,-29.339L259.315,-30.265L260.4,-31.19L261.485,-32.113L263.655,-33.953L264.74,-34.872L265.825,-35.79L266.91,-36.706L269.08,-38.534L270.165,-39.446L271.25,-40.357L272.335,-41.266L274.505,-43.08L275.59,-43.985L276.675,-44.889L277.76,-45.791L278.845,-46.692L279.93,-47.592L281.015,-48.489L282.1,-49.387L283.185,-50.282L285.355,-52.07L286.44,-52.96L287.525,-53.851L288.61,-54.739L289.695,-55.626L290.78,-56.512L291.865,-57.397L294.035,-59.161L295.12,-60.042L296.205,-60.921L297.29,-61.799L298.375,-62.675L299.46,-63.55L300.545,-64.424L301.63,-65.296L302.715,-66.167L303.8,-67.036L304.885,-67.904L305.97,-68.771L307.055,-69.637L309.225,-71.363L310.31,-72.224L311.395,-73.084L312.48,-73.943L313.565,-74.8L315.735,-76.51L316.82,-77.362L317.905,-78.215L318.99,-79.065L320.075,-79.914L322.245,-81.608L324.415,-83.296L325.5,-84.138L326.585,-84.979L327.67,-85.818L329.84,-87.492L330.925,-88.327L332.01,-89.161L334.18,-90.825L336.35,-92.483L337.435,-93.31L338.52,-94.136L339.605,-94.96L340.69,-95.782L341.775,-96.605L343.945,-98.243L345.03,-99.061L346.115,-99.876L347.2,-100.692L348.285,-101.504L349.37,-102.317L350.455,-103.127L351.54,-103.936L352.625,-104.744L354.795,-106.356L355.88,-107.159L358.05,-108.763L360.22,-110.361L361.305,-111.157L362.39,-111.952L363.475,-112.746L364.56,-113.539L365.645,-114.331L366.73,-115.121L367.815,-115.909L369.985,-117.483L371.07,-118.267L372.155,-119.05L373.24,-119.832L375.41,-121.392L377.58,-122.946L378.665,-123.721L379.75,-124.494L380.835,-125.266L381.92,-126.037L383.005,-126.807L385.175,-128.341L386.26,-129.107L388.43,-130.633L389.515,-131.395L390.6,-132.154L392.77,-133.67L393.855,-134.426L394.94,-135.18L396.025,-135.933L397.11,-136.685L398.195,-137.435L399.28,-138.184L400.365,-138.932L401.45,-139.678L403.62,-141.166L404.705,-141.907L405.79,-142.649L406.875,-143.388L407.96,-144.126L409.045,-144.863L410.13,-145.598L412.3,-147.064L413.385,-147.795L414.47,-148.525L415.555,-149.253L416.64,-149.98L418.81,-151.43L419.895,-152.153L420.98,-152.874L422.065,-153.594L423.15,-154.313L424.235,-155.03L425.32,-155.746L426.405,-156.461L427.49,-157.174L428.575,-157.886L429.66,-158.597L430.745,-159.306L431.83,-160.014L432.915,-160.72L434,-161.425" style="fill:none;fill-rule:nonzero;stroke:rgb(236,0,140);stroke-width:3px;stroke-linecap:butt;"/>
        </g>
        <g transform="matrix(0.2768,0,0,0.2768,465.112,201.263)">
            <path d="M0,-265.696L1.085,-264.776L2.17,-263.85L3.255,-262.919L4.34,-261.982L5.425,-261.04L6.51,-260.092L7.595,-259.139L8.68,-258.18L9.765,-257.217L10.85,-256.247L11.935,-255.272L13.02,-254.292L14.105,-253.305L15.19,-252.314L16.275,-251.317L17.36,-250.315L18.445,-249.307L19.53,-248.294L20.615,-247.275L21.7,-246.25L22.785,-245.22L23.87,-244.185L24.955,-243.144L26.04,-242.098L27.125,-241.046L28.21,-239.989L29.295,-238.926L30.38,-237.858L31.465,-236.784L32.55,-235.705L33.635,-234.621L34.72,-233.53L35.805,-232.435L36.89,-231.334L37.975,-230.227L39.06,-229.115L40.145,-227.998L41.23,-226.875L42.315,-225.747L43.4,-224.613L44.485,-223.473L45.57,-222.328L46.655,-221.178L47.74,-220.022L48.825,-218.861L49.91,-217.694L50.995,-216.522L52.08,-215.344L53.165,-214.16L54.25,-212.972L55.335,-211.778L56.42,-210.578L57.505,-209.373L58.59,-208.162L59.675,-206.946L60.76,-205.724L61.845,-204.497L62.93,-203.264L64.015,-202.027L65.1,-200.783L66.185,-199.534L67.27,-198.279L68.355,-197.019L69.44,-195.754L70.525,-194.483L71.61,-193.207L72.695,-191.925L73.78,-190.637L74.865,-189.344L75.95,-188.046L77.035,-186.742L78.12,-185.433L79.205,-184.118L80.29,-182.798L81.375,-181.472L82.46,-180.141L83.545,-178.804L84.63,-177.462L85.715,-176.114L86.8,-174.761L87.885,-173.403L88.97,-172.039L90.055,-170.669L91.14,-169.294L92.225,-167.913L93.31,-166.528L94.395,-165.136L95.48,-163.739L96.565,-162.337L97.65,-160.928L98.735,-159.515L99.82,-158.096L100.905,-156.672L101.99,-155.242L103.075,-153.806L104.16,-152.366L105.245,-150.92L106.33,-149.467L107.415,-148.01L108.5,-146.548L109.585,-145.08L110.67,-143.606L111.755,-142.127L112.84,-140.642L113.925,-139.152L115.01,-137.656L116.095,-136.155L117.18,-134.648L118.265,-133.136L119.35,-131.619L120.435,-130.096L121.52,-128.567L122.605,-127.034L123.69,-125.494L124.775,-123.949L125.86,-122.398L126.945,-120.842L128.03,-119.281L129.115,-117.715L130.2,-116.142L131.285,-114.564L132.37,-112.981L133.455,-111.392L134.54,-109.798L135.625,-108.198L136.71,-106.593L137.795,-104.982L138.88,-103.366L139.965,-101.745L141.05,-100.117L142.135,-98.485L143.22,-96.846L144.305,-95.203L145.39,-93.554L146.475,-91.899L147.56,-90.239L148.645,-88.574L149.73,-86.903L150.815,-85.226L151.9,-83.545L152.985,-81.857L154.07,-80.164L155.155,-78.466L156.24,-76.762L157.325,-75.052L158.41,-73.338L159.495,-71.618L160.58,-69.891L161.665,-68.161L162.75,-66.424L163.835,-64.681L164.92,-62.934L166.005,-61.18L167.09,-59.422L168.175,-57.658L169.26,-55.888L170.345,-54.113L171.43,-52.333L172.515,-50.547L173.6,-48.755L174.685,-46.958L175.77,-45.155L176.855,-43.347L177.94,-41.534L179.025,-39.715L180.11,-37.89L181.195,-36.06L182.28,-34.225L183.365,-32.384L184.45,-30.538L185.535,-28.686L186.62,-26.829L187.705,-24.968L188.79,-23.153L189.875,-21.406L190.96,-19.727L192.045,-18.118L193.13,-16.577L194.215,-15.104L195.3,-13.7L196.385,-12.364L197.47,-11.096L198.555,-9.898L199.64,-8.767L200.725,-7.706L201.81,-6.713L202.895,-5.788L203.98,-4.931L205.065,-4.144L206.15,-3.425L207.235,-2.774L208.32,-2.192L209.405,-1.678L210.49,-1.233L211.575,-0.856L212.66,-0.548L213.745,-0.308L214.83,-0.136L215.915,-0.034L217,0L218.085,-0.034L219.17,-0.136L220.255,-0.308L221.34,-0.548L222.425,-0.856L223.51,-1.233L224.595,-1.678L225.68,-2.192L226.765,-2.774L227.85,-3.425L228.935,-4.144L230.02,-4.931L231.105,-5.788L232.19,-6.713L233.275,-7.706L234.36,-8.767L235.445,-9.898L236.53,-11.096L237.615,-12.364L238.7,-13.7L239.785,-15.104L240.87,-16.577L241.955,-18.118L243.04,-19.727L244.125,-21.406L245.21,-23.153L246.295,-24.968L247.38,-26.829L248.465,-28.686L249.55,-30.538L250.635,-32.384L251.72,-34.225L252.805,-36.06L253.89,-37.89L254.975,-39.715L256.06,-41.534L257.145,-43.347L258.23,-45.155L259.315,-46.958L260.4,-48.755L261.485,-50.547L262.57,-52.333L263.655,-54.113L264.74,-55.888L265.825,-57.658L266.91,-59.422L267.995,-61.18L269.08,-62.934L270.165,-64.681L271.25,-66.424L272.335,-68.161L273.42,-69.891L274.505,-71.618L275.59,-73.338L276.675,-75.052L277.76,-76.762L278.845,-78.466L279.93,-80.164L281.015,-81.857L282.1,-83.545L283.185,-85.226L284.27,-86.903L285.355,-88.574L286.44,-90.239L287.525,-91.899L288.61,-93.554L289.695,-95.203L290.78,-96.846L291.865,-98.485L292.95,-100.117L294.035,-101.745L295.12,-103.366L296.205,-104.982L297.29,-106.593L298.375,-108.198L299.46,-109.798L300.545,-111.392L301.63,-112.981L302.715,-114.564L303.8,-116.142L304.885,-117.715L305.97,-119.281L307.055,-120.842L308.14,-122.398L309.225,-123.949L310.31,-125.494L311.395,-127.034L312.48,-128.567L313.565,-130.096L314.65,-131.619L315.735,-133.136L316.82,-134.648L317.905,-136.155L318.99,-137.656L320.075,-139.152L321.16,-140.642L322.245,-142.127L323.33,-143.606L324.415,-145.08L325.5,-146.548L326.585,-148.01L327.67,-149.467L328.755,-150.92L329.84,-152.366L330.925,-153.806L332.01,-155.242L333.095,-156.672L334.18,-158.096L335.265,-159.515L336.35,-160.928L337.435,-162.337L338.52,-163.739L339.605,-165.136L340.69,-166.528L341.775,-167.913L342.86,-169.294L343.945,-170.669L345.03,-172.039L346.115,-173.403L347.2,-174.761L348.285,-176.114L349.37,-177.462L350.455,-178.804L351.54,-180.141L352.625,-181.472L353.71,-182.798L354.795,-184.118L355.88,-185.433L356.965,-186.742L358.05,-188.046L359.135,-189.344L360.22,-190.637L361.305,-191.925L362.39,-193.207L363.475,-194.483L364.56,-195.754L365.645,-197.019L366.73,-198.279L367.815,-199.534L368.9,-200.783L369.985,-202.027L371.07,-203.264L372.155,-204.497L373.24,-205.724L374.325,-206.946L375.41,-208.162L376.495,-209.373L377.58,-210.578L378.665,-211.778L379.75,-212.972L380.835,-214.16L381.92,-215.344L383.005,-216.522L384.09,-217.694L385.175,-218.861L386.26,-220.022L387.345,-221.178L388.43,-222.328L389.515,-223.473L390.6,-224.613L391.685,-225.747L392.77,-226.875L393.855,-227.998L394.94,-229.115L396.025,-230.227L397.11,-231.334L398.195,-232.435L399.28,-233.53L400.365,-234.621L401.45,-235.705L402.535,-236.784L403.62,-237.858L404.705,-238.926L405.79,-239.989L406.875,-241.046L407.96,-242.098L409.045,-243.144L410.13,-244.185L411.215,-245.22L412.3,-246.25L413.385,-247.275L414.47,-248.294L415.555,-249.307L416.64,-250.315L417.725,-251.317L418.81,-252.314L419.895,-253.305L420.98,-254.292L422.065,-255.272L423.15,-256.247L424.235,-257.217L425.32,-258.18L426.405,-259.139L427.49,-260.092L428.575,-261.04L429.66,-261.982L430.745,-262.919L431.83,-263.85L432.915,-264.776L434,-265.696" style="fill:none;fill-rule:nonzero;stroke:rgb(236,0,140);stroke-width:3px;stroke-linecap:butt;"/>
        </g>
        <g transform="matrix(0.2768,0,0,0.2768,465.112,201.263)">
            <path d="M0,-342.5L43.4,-342.5L44.485,-342.475L45.57,-342.405L46.655,-342.292L47.74,-342.135L48.825,-341.935L49.91,-341.69L50.995,-341.402L52.08,-341.069L53.165,-340.693L54.25,-340.273L55.335,-339.81L56.42,-339.302L57.505,-338.751L58.59,-338.156L59.675,-337.517L60.76,-336.833L61.845,-336.107L62.93,-335.336L64.015,-334.521L65.1,-333.663L66.185,-332.761L67.27,-331.815L68.355,-330.825L69.44,-329.792L70.525,-328.714L71.61,-327.593L72.695,-326.428L73.78,-325.219L74.865,-323.966L75.95,-322.669L77.035,-321.329L78.12,-319.944L79.205,-318.516L80.29,-317.044L81.375,-315.528L82.46,-313.968L83.545,-312.365L84.63,-310.717L85.715,-309.026L86.8,-307.291L87.885,-305.512L88.97,-303.689L90.055,-301.822L91.14,-299.912L92.225,-297.958L93.31,-295.959L94.395,-293.917L95.48,-291.832L96.565,-289.702L97.65,-287.529L98.735,-285.312L99.82,-283.05L100.905,-280.745L101.99,-278.396L103.075,-276.003L104.16,-273.567L105.245,-271.086L106.33,-268.562L107.415,-265.994L108.5,-263.382L109.585,-260.727L110.67,-258.027L111.755,-255.284L112.84,-252.497L113.925,-249.665L115.01,-246.791L116.095,-243.872L117.18,-240.909L118.265,-237.902L119.35,-234.852L120.435,-231.758L121.52,-228.62L122.605,-225.438L123.69,-222.212L124.775,-218.943L125.86,-215.63L126.945,-212.272L128.03,-208.872L129.115,-205.427L130.2,-201.938L131.285,-198.405L132.37,-194.829L133.455,-191.209L134.54,-187.545L135.625,-183.837L136.71,-180.085L137.795,-176.29L138.88,-172.45L139.965,-168.567L141.05,-164.64L142.135,-160.669L143.22,-156.654L144.305,-152.596L145.39,-148.493L146.475,-144.347L147.56,-140.156L148.645,-135.923L149.73,-131.657L150.815,-127.444L151.9,-123.3L152.985,-119.225L154.07,-115.217L155.155,-111.278L156.24,-107.408L157.325,-103.606L158.41,-99.873L159.495,-96.208L160.58,-92.612L161.665,-89.084L162.75,-85.625L163.835,-82.234L164.92,-78.912L166.005,-75.658L167.09,-72.473L168.175,-69.356L169.26,-66.308L170.345,-63.328L171.43,-60.417L172.515,-57.574L173.6,-54.8L174.685,-52.094L175.77,-49.457L176.855,-46.889L177.94,-44.388L179.025,-41.956L180.11,-39.593L181.195,-37.298L182.28,-35.072L183.365,-32.914L184.45,-30.825L185.535,-28.805L186.62,-26.852L187.705,-24.969L188.79,-23.153L189.875,-21.406L190.96,-19.728L192.045,-18.118L193.13,-16.577L194.215,-15.104L195.3,-13.7L196.385,-12.364L197.47,-11.097L198.555,-9.898L199.64,-8.768L200.725,-7.706L201.81,-6.713L202.895,-5.788L203.98,-4.932L205.065,-4.145L206.15,-3.425L207.235,-2.774L208.32,-2.192L209.405,-1.679L210.49,-1.233L211.575,-0.856L212.66,-0.548L213.745,-0.309L214.83,-0.137L215.915,-0.034L217,0L218.085,-0.034L219.17,-0.137L220.255,-0.309L221.34,-0.548L222.425,-0.856L223.51,-1.233L224.595,-1.679L225.68,-2.192L226.765,-2.774L227.85,-3.425L228.935,-4.145L230.02,-4.932L231.105,-5.788L232.19,-6.713L233.275,-7.706L234.36,-8.768L235.445,-9.898L236.53,-11.097L237.615,-12.364L238.7,-13.7L239.785,-15.104L240.87,-16.577L241.955,-18.118L243.04,-19.728L244.125,-21.406L245.21,-23.153L246.295,-24.969L247.38,-26.852L248.465,-28.805L249.55,-30.825L250.635,-32.914L251.72,-35.072L252.805,-37.298L253.89,-39.593L254.975,-41.956L256.06,-44.388L257.145,-46.889L258.23,-49.457L259.315,-52.094L260.4,-54.8L261.485,-57.574L262.57,-60.417L263.655,-63.328L264.74,-66.308L265.825,-69.356L266.91,-72.473L267.995,-75.658L269.08,-78.912L270.165,-82.234L271.25,-85.625L272.335,-89.084L273.42,-92.612L274.505,-96.208L275.59,-99.873L276.675,-103.606L277.76,-107.408L278.845,-111.278L279.93,-115.217L281.015,-119.225L282.1,-123.3L283.185,-127.444L284.27,-131.657L285.355,-135.923L286.44,-140.156L287.525,-144.347L288.61,-148.493L289.695,-152.596L290.78,-156.654L291.865,-160.669L292.95,-164.64L294.035,-168.567L295.12,-172.45L296.205,-176.29L297.29,-180.085L298.375,-183.837L299.46,-187.545L300.545,-191.209L301.63,-194.829L302.715,-198.405L303.8,-201.938L304.885,-205.427L305.97,-208.872L307.055,-212.272L308.14,-215.63L309.225,-218.943L310.31,-222.212L311.395,-225.438L312.48,-228.62L313.565,-231.758L314.65,-234.852L315.735,-237.902L316.82,-240.909L317.905,-243.872L318.99,-246.791L320.075,-249.665L321.16,-252.497L322.245,-255.284L323.33,-258.027L324.415,-260.727L325.5,-263.382L326.585,-265.994L327.67,-268.562L328.755,-271.086L329.84,-273.567L330.925,-276.003L332.01,-278.396L333.095,-280.745L334.18,-283.05L335.265,-285.312L336.35,-287.529L337.435,-289.702L338.52,-291.832L339.605,-293.917L340.69,-295.959L341.775,-297.958L342.86,-299.912L343.945,-301.822L345.03,-303.689L346.115,-305.512L347.2,-307.291L348.285,-309.026L349.37,-310.717L350.455,-312.365L351.54,-313.968L352.625,-315.528L353.71,-317.044L354.795,-318.516L355.88,-319.944L356.965,-321.329L358.05,-322.669L359.135,-323.966L360.22,-325.219L361.305,-326.428L362.39,-327.593L363.475,-328.714L364.56,-329.792L365.645,-330.825L366.73,-331.815L367.815,-332.761L368.9,-333.663L369.985,-334.521L371.07,-335.336L372.155,-336.107L373.24,-336.833L374.325,-337.517L375.41,-338.156L376.495,-338.751L377.58,-339.302L378.665,-339.81L379.75,-340.273L380.835,-340.693L381.92,-341.069L383.005,-341.402L384.09,-341.69L385.175,-341.935L386.26,-342.135L387.345,-342.292L388.43,-342.405L389.515,-342.475L390.6,-342.5L434,-342.5" style="fill:none;fill-rule:nonzero;stroke:rgb(236,0,140);stroke-width:3px;stroke-linecap:butt;"/>
        </g>
        <g transform="matrix(0.2768,0,0,0.2768,465.112,201.263)">
            <path d="M0,-342.5L103.075,-342.5L104.16,-342.292L105.245,-341.402L106.33,-339.811L107.415,-337.518L108.5,-334.523L109.585,-330.827L110.67,-326.43L111.755,-321.331L112.84,-315.531L113.925,-309.106L115.01,-302.633L116.095,-296.228L117.18,-289.892L118.265,-283.624L119.35,-277.425L120.435,-271.294L121.52,-265.232L122.605,-259.238L123.69,-253.313L124.775,-247.456L125.86,-241.668L126.945,-235.948L128.03,-230.297L129.115,-224.714L130.2,-219.2L131.285,-213.754L132.37,-208.377L133.455,-203.068L134.54,-197.828L135.625,-192.656L136.71,-187.553L137.795,-182.518L138.88,-177.552L139.965,-172.654L141.05,-167.825L142.135,-163.064L143.22,-158.372L144.305,-153.748L145.39,-149.193L146.475,-144.706L147.56,-140.288L148.645,-135.938L149.73,-131.657L150.815,-127.444L151.9,-123.3L152.985,-119.225L154.07,-115.217L155.155,-111.278L156.24,-107.408L157.325,-103.606L158.41,-99.873L159.495,-96.208L160.58,-92.612L161.665,-89.084L162.75,-85.625L163.835,-82.234L164.92,-78.912L166.005,-75.658L167.09,-72.473L168.175,-69.356L169.26,-66.308L170.345,-63.328L171.43,-60.417L172.515,-57.574L173.6,-54.8L174.685,-52.094L175.77,-49.457L176.855,-46.889L177.94,-44.388L179.025,-41.956L180.11,-39.593L181.195,-37.298L182.28,-35.072L183.365,-32.914L184.45,-30.825L185.535,-28.805L186.62,-26.852L187.705,-24.969L188.79,-23.153L189.875,-21.406L190.96,-19.728L192.045,-18.118L193.13,-16.577L194.215,-15.104L195.3,-13.7L196.385,-12.364L197.47,-11.097L198.555,-9.898L199.64,-8.768L200.725,-7.706L201.81,-6.713L202.895,-5.788L203.98,-4.932L205.065,-4.145L206.15,-3.425L207.235,-2.774L208.32,-2.192L209.405,-1.679L210.49,-1.233L211.575,-0.856L212.66,-0.548L213.745,-0.309L214.83,-0.137L215.915,-0.034L217,0L218.085,-0.034L219.17,-0.137L220.255,-0.309L221.34,-0.548L222.425,-0.856L223.51,-1.233L224.595,-1.679L225.68,-2.192L226.765,-2.774L227.85,-3.425L228.935,-4.145L230.02,-4.932L231.105,-5.788L232.19,-6.713L233.275,-7.706L234.36,-8.768L235.445,-9.898L236.53,-11.097L237.615,-12.364L238.7,-13.7L239.785,-15.104L240.87,-16.577L241.955,-18.118L243.04,-19.728L244.125,-21.406L245.21,-23.153L246.295,-24.969L247.38,-26.852L248.465,-28.805L249.55,-30.825L250.635,-32.914L251.72,-35.072L252.805,-37.298L253.89,-39.593L254.975,-41.956L256.06,-44.388L257.145,-46.889L258.23,-49.457L259.315,-52.094L260.4,-54.8L261.485,-57.574L262.57,-60.417L263.655,-63.328L264.74,-66.308L265.825,-69.356L266.91,-72.473L267.995,-75.658L269.08,-78.912L270.165,-82.234L271.25,-85.625L272.335,-89.084L273.42,-92.612L274.505,-96.208L275.59,-99.873L276.675,-103.606L277.76,-107.408L278.845,-111.278L279.93,-115.217L281.015,-119.225L282.1,-123.3L283.185,-127.444L284.27,-131.657L285.355,-135.938L286.44,-140.288L287.525,-144.706L288.61,-149.193L289.695,-153.748L290.78,-158.372L291.865,-163.064L292.95,-167.825L294.035,-172.654L295.12,-177.552L296.205,-182.518L297.29,-187.553L298.375,-192.656L299.46,-197.828L300.545,-203.068L301.63,-208.377L302.715,-213.754L303.8,-219.2L304.885,-224.714L305.97,-230.297L307.055,-235.948L308.14,-241.668L309.225,-247.456L310.31,-253.313L311.395,-259.238L312.48,-265.232L313.565,-271.294L314.65,-277.425L315.735,-283.624L316.82,-289.892L317.905,-296.228L318.99,-302.633L320.075,-309.106L321.16,-315.531L322.245,-321.331L323.33,-326.43L324.415,-330.827L325.5,-334.523L326.585,-337.518L327.67,-339.811L328.755,-341.402L329.84,-342.292L330.925,-342.5L434,-342.5" style="fill:none;fill-rule:nonzero;stroke:rgb(0,172,236);stroke-width:3px;stroke-linecap:butt;"/>
        </g>
        <g transform="matrix(0.2768,0,0,0.2768,540.877,191.797)">
            <path d="M0,-75.04C6.577,-68.572 15.353,-58.635 21.1,-47C31.383,-26.183 32.1,0 32.1,0" style="fill:none;fill-rule:nonzero;stroke:white;stroke-width:2px;stroke-linecap:butt;stroke-linejoin:miter;"/>
        </g>
        <g transform="matrix(0.0914946,-0.261241,-0.261241,-0.0914946,543.069,172.267)">
            <path d="M-7.5,6.724L0.548,6.724L6.134,0.931L6.183,19.986L-7.5,6.724Z" style="fill:white;fill-rule:nonzero;"/>
        </g>
        <g transform="matrix(0.2768,0,0,0.2768,549.159,170.218)">
            <path d="M0,18.661C0,18.539 0.016,18.454 0.046,18.408L4.585,0.138C4.677,-0.154 4.843,-0.392 5.08,-0.576C5.318,-0.761 5.591,-0.853 5.898,-0.853C6.159,-0.853 6.378,-0.776 6.555,-0.622C6.731,-0.469 6.82,-0.262 6.82,0L6.82,0.149C6.82,0.187 6.812,0.23 6.797,0.276L4.977,7.511C4.777,8.371 4.677,9.108 4.677,9.723C4.677,10.49 4.857,11.124 5.219,11.623C5.579,12.122 6.129,12.372 6.866,12.372C8.355,12.372 9.677,11.434 10.829,9.561C10.829,9.53 10.833,9.511 10.84,9.504C10.848,9.496 10.852,9.484 10.852,9.469L13.087,0.483C13.163,0.207 13.324,-0.027 13.57,-0.219C13.816,-0.411 14.093,-0.507 14.399,-0.507C14.63,-0.507 14.842,-0.427 15.033,-0.266C15.226,-0.104 15.321,0.107 15.321,0.368C15.321,0.475 15.306,0.553 15.275,0.599L13.063,9.515C12.91,10.098 12.833,10.605 12.833,11.035C12.833,11.927 13.133,12.372 13.731,12.372C14.377,12.372 14.864,11.973 15.194,11.174C15.524,10.375 15.813,9.407 16.059,8.27C16.089,8.163 16.174,8.109 16.312,8.109L16.681,8.109C16.758,8.109 16.822,8.14 16.877,8.202C16.931,8.264 16.957,8.332 16.957,8.409C16.589,9.852 16.193,11.009 15.771,11.877C15.349,12.744 14.653,13.179 13.686,13.179C12.994,13.179 12.384,12.982 11.854,12.591C11.324,12.199 10.982,11.673 10.829,11.013C10.307,11.657 9.7,12.18 9.009,12.579C8.317,12.978 7.588,13.179 6.82,13.179C5.529,13.179 4.516,12.879 3.778,12.279L2.212,18.523C2.15,18.815 2.001,19.054 1.763,19.237C1.524,19.422 1.252,19.514 0.945,19.514C0.699,19.514 0.48,19.437 0.288,19.283C0.097,19.13 0,18.923 0,18.661" style="fill:white;fill-rule:nonzero;"/>
        </g>
        <g transform="matrix(0,0.2768,0.2768,0,560.609,173.873)">
            <path d="M-14.503,-14.503L14.503,-14.503" style="fill:none;fill-rule:nonzero;stroke:white;stroke-width:2px;stroke-linecap:butt;stroke-linejoin:miter;"/>
        </g>
        <g transform="matrix(0.2768,0,0,0.2768,555.308,165.935)">
            <path d="M0,17.346L4.648,0L9.297,17.346L0,17.346Z" style="fill:white;fill-rule:nonzero;"/>
        </g>
        <g transform="matrix(1,0,0,1,399.794,105.39)">
            <text x="12.63px" y="77.657px" style="font-family:'ArialMT', 'Arial', sans-serif;font-size:6.891px;fill:white;">Least Squares</text>
            <text x="25.469px" y="84.773px" style="font-family:'ArialMT', 'Arial', sans-serif;font-size:6.891px;fill:white;">(</text>
            <text x="27.764px" y="84.773px" style="font-family:'Times-Roman', 'Times';font-size:6.891px;fill:white;">μ</text>
            <text x="31.596px" y="84.773px" style="font-family:'LucidaGrande', 'Lucida Grande', sans-serif;font-weight:500;font-size:6.891px;fill:white;">→</text>
            <text x="38.487px" y="84.773px" style="font-family:'Times-Roman', 'Times';font-size:6.891px;fill:white;">0</text>
            <text x="41.932px" y="84.773px" style="font-family:'ArialMT', 'Arial', sans-serif;font-size:6.891px;fill:white;">)</text>
        </g>
        <g transform="matrix(1,0,0,1,418.303,34.0927)">
            <text x="22.11px" y="77.657px" style="font-family:'ArialMT', 'Arial', sans-serif;font-size:6.891px;fill:white;">TLS</text>
            <text x="18.316px" y="84.773px" style="font-family:'ArialMT', 'Arial', sans-serif;font-size:6.891px;fill:white;">(</text>
            <text x="20.611px" y="84.773px" style="font-family:'Times-Roman', 'Times';font-size:6.891px;fill:white;">μ</text>
            <text x="24.443px" y="84.773px" style="font-family:'LucidaGrande', 'Lucida Grande', sans-serif;font-weight:500;font-size:6.891px;fill:white;">→</text>
            <text x="31.334px" y="84.773px" style="font-family:'Times-Roman', 'Times';font-size:6.891px;fill:white;">∞</text>
            <text x="36.246px" y="84.773px" style="font-family:'ArialMT', 'Arial', sans-serif;font-size:6.891px;fill:white;">)</text>
        </g>
        <g transform="matrix(1,0,0,1,390.015,104.95)">
            <g transform="matrix(1,-0,-0,1,-140.894,-0.0346554)">
                <path d="M229.566,74.395L232.919,74.319L230.968,77.047C231.281,76.033 230.58,74.707 229.566,74.395Z" style="fill:white;"/>
                <path d="M209.541,79.984C215.808,79.984 223.714,78.893 230.798,75.44" style="fill:none;stroke:white;stroke-width:0.5px;stroke-linecap:butt;stroke-miterlimit:1.5;"/>
            </g>
        </g>
        <g transform="matrix(1,0,0,1,390.392,37.1908)">
            <g transform="matrix(1,-0,-0,1,-141.271,67.7246)">
                <path d="M233.849,3.089L237.197,2.882L235.354,5.685C235.627,4.659 234.874,3.362 233.849,3.089Z" style="fill:white;"/>
                <path d="M210.815,8.05C217.073,8.05 227.974,7.653 235.121,4.086" style="fill:none;stroke:white;stroke-width:0.5px;stroke-linecap:butt;stroke-miterlimit:1.5;"/>
            </g>
        </g>
    </g>
</svg>
