<?xml version="1.0" encoding="UTF-8" standalone="no"?>
<!DOCTYPE svg PUBLIC "-//W3C//DTD SVG 1.1//EN" "http://www.w3.org/Graphics/SVG/1.1/DTD/svg11.dtd">
<svg width="100%" height="100%" viewBox="0 0 600 300" version="1.1" xmlns="http://www.w3.org/2000/svg" xmlns:xlink="http://www.w3.org/1999/xlink" xml:space="preserve" xmlns:serif="http://www.serif.com/" style="fill-rule:evenodd;clip-rule:evenodd;stroke-linecap:round;stroke-linejoin:round;stroke-miterlimit:1.5;">
    <g transform="matrix(0.153016,0,0,0.153016,-49869,-1065.82)">
        <path d="M329517,7756.89L329517,8856.59" style="fill:none;stroke:black;stroke-width:32.68px;"/>
    </g>
    <g transform="matrix(0.134363,0,0,0.134363,-43788.9,-909.828)">
        <text x="326186px" y="7579.26px" style="font-family:'SFPro-Medium', 'SF Pro';font-size:194.762px;">Object</text>
    </g>
    <g transform="matrix(0.134363,0,0,0.134363,-43313,-909.828)">
        <text x="326289px" y="7579.26px" style="font-family:'SFPro-Medium', 'SF Pro';font-size:194.762px;">Film</text>
    </g>
    <g transform="matrix(1.27513,0,0,1.27513,-291.81,20.6675)">
        <path d="M279.56,206.392C282.48,209.64 296.17,209.14 298.59,205.892C301,202.644 288.99,189.57 294.08,186.9C299.17,184.24 328.12,194.23 329.12,189.9C330.12,185.57 302.17,165.5 300.09,160.92C298,156.34 317.02,166.58 316.61,162.42C316.19,158.26 297.58,140.35 297.58,135.94C297.58,131.52 317.02,139.77 316.61,135.94C316.19,132.1 295.83,117.03 295.08,112.95C294.33,108.87 313.18,115.78 312.1,111.45C311.02,107.12 290.58,85.8 288.57,86.97C285.57,87.13 267.97,108.29 267.05,112.45C266.13,116.61 284.24,108.04 283.07,111.95C281.9,115.86 260.46,132.02 260.04,135.94C259.63,139.85 280.65,131.02 280.57,135.44C280.48,139.85 260.21,158.26 259.54,162.42C258.87,166.58 278.31,155.92 276.56,160.42C274.81,164.92 248.28,185.07 249.03,189.4C249.78,193.73 275.98,183.57 281.07,186.4C286.15,189.24 276.64,203.144 279.56,206.392Z" style="fill:rgb(91,155,213);stroke:black;stroke-width:0.78px;stroke-linecap:butt;stroke-miterlimit:10;"/>
    </g>
    <g transform="matrix(1.27513,0,0,1.27513,-270.615,-304.59)">
        <g transform="matrix(1,0,0,1,5.82077e-11,64.56)">
            <path d="M414.59,208.59L414.62,208.66L414.83,208.87L414.96,209.07L415.1,209.21L415.24,209.38L415.41,209.52L415.54,209.79L415.75,209.97L415.92,210.24L416.12,210.51L416.39,210.75L416.46,210.89L416.56,211.1L416.7,211.27L416.84,211.41L416.9,211.54L417.04,211.75L417.11,211.85L417.28,212.06L417.35,212.19L417.48,212.4L417.62,212.57L417.75,212.78L417.82,212.91L417.93,213.12L417.99,213.29L418.13,213.57L418.27,213.77L418.33,213.94L418.47,214.15L418.57,214.35L418.64,214.53L418.78,214.8L418.84,215.01L418.98,215.18L419.05,215.38L419.12,215.66L419.22,215.83L419.29,216.1L419.35,216.31L419.42,216.48L419.49,216.75L419.56,217.03L419.63,217.2L419.7,217.41L419.76,217.68L419.8,217.92L419.8,218.13L419.87,218.4L419.87,218.64L419.93,218.98L419.93,221.04L419.87,221.52L419.87,222.31L419.8,222.75L419.8,223.2L419.76,223.68L419.76,224.13L419.7,224.57L419.63,225.02L419.56,225.5L419.56,225.94L419.49,226.46L419.42,226.97L419.42,227.45L419.29,227.97L419.22,228.48L419.15,228.93L419.12,229.47L419.05,229.92L418.98,230.43L418.91,230.95L418.91,231.5L418.78,231.94L418.71,232.39L418.64,232.87L418.57,233.38L418.5,233.83L418.4,234.27L418.33,234.75L418.27,235.2L418.2,235.58L418.13,235.99L418.06,236.43L417.99,236.81L417.93,237.22L417.86,237.6L417.82,237.94L417.75,238.32L417.69,238.66L417.62,238.97L417.55,239.25L417.48,239.55L417.48,239.76L417.41,240.03L417.35,240.27L417.35,240.48L417.28,240.62L417.28,241.06L417.21,241.2L417.21,241.34L401.04,266.67L408.36,268.32L424.29,237.81L424.29,237.36L424.33,237.15L424.33,236.5L424.39,236.23L424.46,235.92L424.53,235.65L424.53,235.27L424.6,234.93L424.6,234.55L424.67,234.17L424.73,233.69L424.73,232.8L424.8,232.39L424.87,231.87L424.87,230.85L424.94,230.3L424.94,229.71L424.97,229.2L424.97,226.29L425.04,225.67L424.97,225.09L424.94,224.43L424.94,223.78L424.87,223.2L424.87,222.55L424.73,221.25L424.67,220.66L424.53,220.01L424.46,219.36L424.39,218.78L424.33,218.13L424.22,217.54L424.09,216.89L423.81,215.73L423.64,215.11L423.44,214.46L423.3,213.94L423.1,213.36L422.86,212.78L422.66,212.26L422.38,211.75L422.21,211.2L421.87,210.69L421.64,210.17L421.3,209.73L421.06,209.25L420.72,208.87L420.41,208.42L420,208.01L419.7,207.7L419.49,207.5L419.29,207.43L419.12,207.29L418.91,207.22L418.71,207.19L418.5,207.12L417.93,207.12L417.69,207.19L417.48,207.19L417.28,207.22L417.04,207.29L416.84,207.36L416.63,207.5L416.46,207.57L416.26,207.63L416.05,207.7L415.88,207.84L415.68,207.87L415.54,207.94L415.34,208.01L415.24,208.15L415.17,208.22L414.9,208.35L414.69,208.53L414.62,208.53L414.59,208.59Z" style="fill:rgb(199,199,224);"/>
        </g>
        <g transform="matrix(1,0,0,1,5.82077e-11,17.52)">
            <path d="M361.44,261.72L402.46,290.64L402.46,290.57L402.52,290.47L402.59,290.33L402.73,290.13L402.8,289.99L402.86,289.85L402.97,289.75L403.03,289.54L403.1,289.34L403.24,289.2L403.37,288.96L403.51,288.76L403.58,288.52L403.68,288.24L403.82,287.97L403.95,287.73L404.09,287.38L404.23,287.08L404.26,286.73L404.46,286.49L404.6,286.08L404.74,285.71L404.87,285.29L404.97,284.99L405.11,284.54L405.25,284.13L405.38,283.75L405.52,283.27L405.62,282.83L405.76,282.38L405.89,281.87L406.03,281.39L406.1,280.81L406.2,280.29L406.27,279.78L406.4,279.26L406.47,278.68L406.54,278.06L406.61,277.48L406.74,276.9L406.74,276.25L406.81,275.6L406.85,275.01L406.91,274.36L406.91,272.27L406.98,271.55L406.91,270.83L406.91,268.64L406.81,267.78L406.74,267L406.68,266.21L406.61,265.39L406.47,264.6L406.4,263.74L406.2,262.88L406.17,262.06L422.64,250.21L422.64,250.14L422.57,249.93L422.5,249.8L422.44,249.69L422.44,249.56L422.4,249.35L422.33,249.08L422.2,248.9L422.13,248.63L422.06,248.39L421.93,248.05L421.79,247.77L421.69,247.47L421.55,247.12L421.41,246.75L421.21,246.37L421.11,246.03L420.9,245.65L420.7,245.17L420.5,244.79L420.33,244.42L420.12,244L419.81,243.56L419.61,243.11L419.27,242.63L419.1,242.26L418.76,241.81L418.45,241.33L418.11,240.89L417.87,240.51L417.47,240.03L417.09,239.58L416.68,239.14L416.31,238.66L415.93,238.28L415.46,237.84L415.02,237.43L414.57,237.05L414.1,236.6L413.59,236.19L413.08,235.81L412.56,235.47L411.99,235.1L411.44,234.75L410.86,234.44L410.28,234.1L409.64,233.79L408.99,233.52L408.34,233.28L407.7,233.01L406.98,232.73L406.27,232.63L405.52,232.42L404.8,232.29L404.02,232.08L403.24,232.01L402.39,231.91L401.57,231.91L400.72,231.84L399.8,231.84L398.92,231.91L398,231.98L389.08,251.06L387.85,251.06L387.72,251.1L386.66,251.1L386.49,251.17L386.29,251.17L386.08,251.23L385.57,251.23L385.33,251.3L385.06,251.37L384.79,251.37L384.55,251.44L384.28,251.44L384.04,251.51L383.7,251.58L383.43,251.58L383.12,251.65L382.78,251.71L382.48,251.71L382.2,251.75L381.83,251.82L381.56,251.89L381.25,251.95L380.91,252.02L380.6,252.09L380.26,252.16L379.89,252.23L379.55,252.3L379.17,252.4L378.87,252.47L378.53,252.54L378.15,252.61L377.81,252.67L377.44,252.81L377.1,252.88L376.72,253.02L376.38,253.05L376.08,253.19L375.67,253.26L375.36,253.39L374.99,253.53L374.65,253.67L374.27,253.77L373.86,253.91L373.56,254.04L373.22,254.18L372.84,254.32L372.43,254.42L372.13,254.56L371.79,254.76L371.48,254.9L371.07,255L370.77,255.14L370.49,255.35L370.19,255.48L369.78,255.62L369.54,255.72L369.27,255.93L368.96,256.07L368.62,256.27L368.38,256.37L368.11,256.58L367.84,256.72L367.53,256.85L367.33,256.99L367.09,257.16L366.82,257.3L366.55,257.51L366.31,257.64L366.1,257.81L365.86,257.95L365.66,258.09L365.46,258.22L365.25,258.4L365.01,258.53L364.81,258.74L364.61,258.88L364.5,258.98L364.23,259.12L364.03,259.25L363.92,259.39L363.72,259.6L363.58,259.63L363.38,259.77L363.28,259.9L363.14,260.04L362.87,260.28L362.63,260.55L362.36,260.76L362.22,260.93L362.02,261.07L361.92,261.21L361.71,261.34L361.64,261.48L361.51,261.58L361.44,261.72Z" style="fill:rgb(102,224,224);"/>
        </g>
        <g transform="matrix(1,0,0,1,5.82077e-11,20.4)">
            <path d="M359.52,263.95L359.52,263.88L359.65,263.74L359.79,263.54L360.09,263.3L360.16,263.16L360.37,262.95L360.5,262.75L360.74,262.58L360.95,262.37L361.15,262.16L361.39,261.92L361.66,261.72L361.93,261.38L362.24,261.2L362.58,260.86L362.89,260.62L363.23,260.35L363.54,260.01L363.88,259.7L364.32,259.42L364.63,259.11L365.1,258.77L365.48,258.46L365.92,258.19L366.4,257.88L366.91,257.47L367.35,257.16L367.86,256.89L368.41,256.51L368.92,256.17L369.43,255.86L370.01,255.52L370.52,255.21L371.1,254.87L371.75,254.56L372.33,254.21L372.97,253.91L373.59,253.56L374.23,253.32L374.95,252.98L375.6,252.74L376.28,252.47L376.92,252.19L377.71,251.95L378.42,251.68L379.14,251.44L379.85,251.16L380.64,251.03L381.42,250.79L382.17,250.58L383.02,250.44L383.81,250.31L384.66,250.14L385.41,250L386.26,249.86L387.18,249.79L388,249.73L388.92,249.66L389.77,249.59L390.65,249.59L399.65,230.4L399.85,230.33L399.92,230.26L400.5,230.26L400.7,230.19L402.31,230.19L402.58,230.26L402.78,230.26L402.95,230.33L403.16,230.33L403.36,230.4L403.57,230.4L403.8,230.43L404.08,230.43L404.25,230.5L404.52,230.57L404.79,230.71L405.03,230.78L405.3,230.84L405.54,230.98L405.88,231.05L406.09,231.15L406.39,231.22L406.73,231.36L407.04,231.49L407.31,231.63L407.62,231.73L407.96,231.94L408.27,232.08L408.54,232.28L408.85,232.39L409.26,232.59L409.56,232.87L409.97,233.07L410.28,233.24L410.62,233.52L410.99,233.76L411.37,233.96L411.78,234.24L412.15,234.54L412.56,234.82L412.87,235.06L413.21,235.33L413.51,235.61L413.85,235.78L414.16,236.05L414.43,236.33L414.67,236.63L415.01,236.91L415.29,237.15L415.52,237.35L415.73,237.66L415.97,237.94L416.24,238.21L416.44,238.45L416.61,238.73L416.89,238.97L417.02,239.24L417.23,239.51L417.4,239.75L417.6,240.03L417.74,240.3L417.87,240.54L418.05,240.82L418.18,241.06L418.32,241.26L418.45,241.54L418.56,241.78L418.69,242.05L418.76,242.25L418.9,242.49L419.03,242.7L419.17,242.94L419.17,243.15L419.27,243.35L419.34,243.56L419.41,243.8L419.48,244L419.54,244.21L419.61,244.38L419.68,244.59L419.68,244.72L419.75,244.89L419.82,245.1L419.82,245.3L419.85,245.44L419.85,245.54L419.92,245.68L419.99,245.89L419.99,246.33L420.06,246.54L420.06,246.88L420.12,246.92L420.12,247.05L404.86,258.05L404.86,258.19L404.89,258.33L404.89,258.53L404.96,258.7L404.96,258.91L405.03,259.25L405.03,259.35L405.1,259.49L405.1,259.7L405.17,259.83L405.17,260.14L405.24,260.35L405.3,260.62L405.3,261.2L405.37,261.44L405.37,261.65L405.44,261.92L405.44,262.16L405.51,262.44L405.51,262.88L405.54,263.16L405.54,263.67L405.61,263.95L405.61,264.25L405.68,264.53L405.68,266L405.75,266.28L405.75,270.18L405.68,270.56L405.68,272.27L405.61,272.51L405.54,272.86L405.51,273.16L405.51,273.44L405.44,273.78L405.44,274.09L405.37,274.36L405.37,274.67L405.3,274.95L405.24,275.25L405.17,275.53L405.17,275.84L405.1,276.11L405.1,276.49L405.03,276.76L404.96,277.11L404.89,277.35L404.86,277.69L404.79,277.93L404.72,278.27L404.66,278.51L404.59,278.85L404.52,279.09L404.45,279.44L404.38,279.71L404.32,280.02L404.25,280.36L404.21,280.6L404.08,280.94L404.01,281.25L403.94,281.53L403.87,281.83L403.74,282.11L403.67,282.38L403.57,282.69L403.5,282.97L403.36,283.27L403.23,283.79L403.09,284.13L402.95,284.37L402.92,284.71L402.78,284.99L402.71,285.23L402.51,285.57L402.44,285.81L402.31,286.08L402.2,286.39L402.07,286.67L401.93,286.94L401.79,287.18L401.66,287.45L401.56,287.69L401.42,287.97L401.22,288.28L401.15,288.55L400.98,288.82L400.84,289.06L400.7,289.34L400.57,289.61L400.36,289.85L400.26,290.13L400.06,290.3L399.92,290.64L399.72,290.92L399.65,291.16L399.65,291.36L399.78,291.6L399.92,291.81L400.19,292.01L400.36,292.15L400.7,292.32L400.91,292.46L401.22,292.53L401.49,292.59L401.73,292.66L402,292.73L402.14,292.8L402.31,292.8L402.37,292.66L402.51,292.46L402.71,292.25L402.78,292.08L402.95,291.74L403.09,291.6L403.23,291.36L403.36,291.16L403.5,290.92L403.67,290.71L403.8,290.37L403.94,290.13L404.15,289.78L404.25,289.48L404.45,289.13L404.66,288.82L404.86,288.41L405.03,288.04L405.17,287.63L405.37,287.18L405.54,286.8L405.75,286.32L405.95,285.81L406.16,285.36L406.33,284.85L406.53,284.37L406.67,283.79L406.84,283.27L406.97,282.69L407.18,282.11L407.31,281.53L407.48,280.94L407.62,280.29L407.82,279.64L407.96,278.99L408.1,278.27L408.2,277.55L408.34,276.9L408.47,276.11L408.54,275.39L408.68,274.67L408.74,273.88L408.78,273.06L408.85,272.27L408.91,271.49L408.98,270.63L408.98,269.81L409.05,268.95L409.05,267.2L408.98,266.21L408.91,265.28L408.85,264.32L408.85,263.4L408.74,262.44L408.68,261.38L408.54,260.42L408.4,259.42L423.36,248.94L423.36,247.05L423.29,246.88L423.29,246.47L423.22,246.26L423.22,246.02L423.16,245.82L423.16,245.54L423.09,245.3L423.05,245.03L423.05,244.79L422.92,244.52L422.85,244.24L422.85,244L422.78,243.73L422.64,243.42L422.58,243.15L422.44,242.84L422.34,242.49L422.2,242.19L422.13,241.84L422,241.6L421.86,241.26L421.76,240.95L421.55,240.61L421.42,240.3L421.21,239.96L421.11,239.65L420.91,239.31L420.7,238.97L420.5,238.66L420.26,238.28L419.99,237.94L419.82,237.56L419.54,237.22L419.27,236.91L419.03,236.5L418.69,236.19L418.45,235.85L418.11,235.54L417.81,235.13L417.47,234.82L417.16,234.48L416.75,234.17L416.44,233.82L416.04,233.45L415.66,233.11L415.22,232.73L414.74,232.39L414.37,232.08L413.92,231.8L413.45,231.49L413.07,231.15L412.63,230.91L412.22,230.64L411.78,230.4L411.33,230.12L410.92,229.85L410.55,229.68L410.07,229.47L409.7,229.27L409.32,229.1L408.91,228.89L408.47,228.68L408.1,228.55L407.69,228.38L407.31,228.24L406.9,228.1L406.53,227.97L406.16,227.83L405.81,227.79L405.44,227.66L405.1,227.52L404.72,227.45L404.38,227.38L404.08,227.31L403.74,227.25L403.36,227.18L403.09,227.18L402.78,227.07L402.44,227.01L401.86,227.01L401.56,226.94L401.28,226.87L400.77,226.87L400.5,226.8L398.32,226.8L398.05,226.87L397.84,226.87L397.67,226.94L397.47,226.94L397.47,227.01L388.34,246.68L386.77,246.68L386.6,246.74L386.26,246.74L385.99,246.81L385.68,246.88L385.34,246.88L384.96,246.92L384.59,246.98L384.18,247.05L383.81,247.12L383.36,247.19L382.89,247.26L382.44,247.33L382,247.46L381.52,247.53L381.01,247.57L380.5,247.7L380.06,247.84L379.48,247.98L378.93,248.18L378.42,248.29L377.91,248.49L376.75,248.77L376.17,248.94L375.6,249.14L374.98,249.35L374.4,249.59L373.76,249.79L373.18,250.07L372.6,250.31L371.95,250.58L371.37,250.82L370.72,251.16L370.14,251.44L369.5,251.75L368.92,252.09L368.27,252.47L367.62,252.78L367.04,253.19L366.4,253.49L365.82,253.91L365.17,254.35L364.56,254.76L363.98,255.21L363.4,255.65L362.75,256.17L362.17,256.65L361.59,257.16L361.01,257.68L360.44,258.19L359.92,258.77L359.38,259.35L358.8,260.01L359.52,263.95Z"/>
        </g>
        <g transform="matrix(1,0,0,1,5.82077e-11,54.72)">
            <path d="M401.84,258.99L402.12,258.65L402.29,258.34L402.49,257.93L402.69,257.62L402.9,257.21L403,256.83L403.21,256.45L403.34,256.04L403.41,255.66L403.55,255.25L403.58,254.8L403.72,254.43L403.72,254.02L403.78,253.57L403.85,253.19L403.92,252.71L403.85,252.27L403.85,251.82L403.78,251.34L403.78,250.89L403.72,250.45L403.65,249.97L403.55,249.52L403.48,249.07L403.34,248.56L403.21,248.08L403.07,247.63L402.93,247.19L402.76,246.64L402.63,246.19L402.42,245.68L402.25,245.23L401.98,244.68L401.78,244.24L401.54,243.72L401.26,243.27L400.99,242.73L400.75,242.21L400.41,241.76L400.18,241.25L399.83,240.77L399.53,240.26L399.12,239.74L398.81,239.29L398.41,238.75L398.1,238.3L397.69,237.78L397.32,237.34L396.94,236.79L396.46,236.27L396.09,235.83L395.65,235.38L394.73,234.46L394.29,234.01L393.81,233.53L393.3,233.01L392.79,232.57L392.28,232.12L391.77,231.71L391.19,231.26L390.64,230.82L390.13,230.41L389.62,230.03L388.98,229.55L387.82,228.79L387.31,228.38L386.63,228L386.05,227.59L385.54,227.28L384.96,226.94L384.31,226.63L383.73,226.25L383.15,225.98L382.58,225.71L382,225.4L381.42,225.12L380.81,224.88L380.23,224.68L379.65,224.4L379.07,224.16L378.49,223.89L377.91,223.75L377.33,223.58L376.75,223.37L376.18,223.17L375.63,223.03L375.05,222.86L374.47,222.72L373.96,222.58L373.38,222.51L372.81,222.38L372.29,222.31L371.75,222.27L371.24,222.21L370.66,222.14L369.64,222L367.63,222L367.12,222.07L366.58,222.07L366.13,222.14L365.69,222.21L365.21,222.27L364.7,222.31L364.33,222.45L363.89,222.51L363.48,222.72L363.03,222.86L362.63,222.96L362.25,223.1L361.88,223.3L361.4,223.51L361.09,223.68L360.69,223.89L360.38,224.16L360.01,224.33L359.66,224.61L359.39,224.88L359.09,225.19L358.75,225.47L358.51,225.71L358.23,226.05L358,226.43L357.72,226.7L357.52,227.01L357.28,227.42L357.08,227.73L356.94,228.07L356.74,228.45L356.57,228.86L356.5,229.24L356.36,229.62L356.23,230.03L356.16,230.41L356.09,230.85L356.06,231.26L355.99,231.64L355.99,232.57L355.92,233.01L355.92,233.43L355.99,233.87L356.06,234.32L356.06,234.8L356.09,235.31L356.23,235.76L356.29,236.21L356.36,236.69L356.57,237.2L356.7,237.65L356.81,238.09L357.01,238.64L357.15,239.16L357.35,239.6L357.59,240.12L357.79,240.6L358,241.11L358.23,241.56L358.51,242.07L358.75,242.62L359.02,243.07L359.32,243.58L359.66,244.03L359.94,244.58L360.31,245.02L360.65,245.54L360.96,245.99L361.33,246.53L361.67,247.05L362.05,247.5L362.52,248.01L362.9,248.49L363.27,248.94L363.75,249.38L364.19,249.93L364.57,250.38L365.04,250.82L365.55,251.34L366.06,251.82L366.51,252.27L366.98,252.71L367.49,253.19L368.07,253.64L368.58,254.02L369.09,254.5L369.71,254.94L370.29,255.32L370.86,255.73L371.44,256.18L371.95,256.55L372.53,256.97L373.11,257.27L373.69,257.69L374.3,258L374.88,258.41L375.46,258.65L376.04,258.99L376.62,259.3L377.2,259.64L377.78,259.88L378.35,260.16L378.93,260.43L379.51,260.67L380.12,260.88L380.7,261.15L381.28,261.32L381.86,261.6L382.44,261.74L383.02,261.91L383.6,262.11L384.11,262.32L384.69,262.46L385.3,262.56L385.81,262.7L386.39,262.83L386.9,262.9L387.48,263.04L387.99,263.11L388.6,263.14L389.11,263.21L389.62,263.21L390.13,263.28L391.7,263.28L392.21,263.21L393.16,263.21L393.71,263.14L394.15,263.04L394.59,263.04L395.07,262.9L395.51,262.83L395.95,262.7L396.36,262.63L396.74,262.46L397.18,262.32L397.59,262.11L397.96,261.98L398.34,261.8L398.75,261.6L399.05,261.39L399.46,261.19L399.77,260.95L400.11,260.67L400.41,260.43L400.75,260.16L400.99,259.88L401.33,259.64L401.61,259.3L401.84,258.99Z"/>
        </g>
        <g transform="matrix(1,0,0,1,5.82077e-11,54.72)">
            <path d="M399.36,257.04L399.57,256.76L399.74,256.45L399.88,256.18L400.08,255.9L400.15,255.6L400.29,255.32L400.39,255.01L400.46,254.67L400.53,254.36L400.66,254.02L400.66,253.71L400.73,253.36L400.73,252.99L400.8,252.64L400.8,251.99L400.73,251.61L400.73,251.24L400.66,250.83L400.66,250.52L400.53,250.1L400.46,249.73L400.39,249.32L400.29,248.94L400.15,248.56L400.08,248.15L399.95,247.77L399.74,247.36L399.64,246.91L399.43,246.54L399.23,246.12L399.09,245.75L398.92,245.3L398.65,244.89L398.41,244.44L398.2,244.03L397.93,243.58L397.69,243.21L397.42,242.79L397.14,242.35L396.84,241.9L396.56,241.49L396.19,241.04L395.91,240.67L395.54,240.25L395.2,239.81L394.89,239.4L394.55,238.95L394.17,238.57L393.79,238.16L393.38,237.72L393.01,237.34L392.56,236.93L392.15,236.48L391.78,236.1L391.3,235.69L390.86,235.31L390.41,234.9L389.97,234.52L389.49,234.15L389.04,233.73L388.6,233.36L388.05,232.94L387.61,232.64L387.1,232.22L386.58,231.92L386.04,231.5L385.52,231.19L385.01,230.85L384.57,230.54L383.99,230.2L383.51,229.96L383,229.62L382.48,229.31L381.97,229.03L381.46,228.79L380.91,228.52L380.47,228.24L379.95,228.07L379.44,227.8L378.89,227.56L377.87,227.14L377.43,226.94L376.91,226.77L376.37,226.63L375.92,226.42L375.41,226.29L374.96,226.12L374.42,225.98L373.91,225.84L373.46,225.77L372.98,225.63L372.54,225.57L372.09,225.46L371.65,225.39L371.1,225.33L370.66,225.26L370.21,225.19L369.8,225.19L369.36,225.12L367.28,225.12L366.9,225.19L366.49,225.26L366.11,225.26L365.74,225.33L365.4,225.39L365.02,225.53L364.61,225.57L364.3,225.7L363.96,225.77L363.65,225.91L363.31,226.05L363.07,226.25L362.73,226.36L362.49,226.56L362.15,226.7L361.91,226.9L361.64,227.08L361.36,227.35L361.12,227.56L360.92,227.8L360.71,228.07L360.54,228.31L360.34,228.59L360.13,228.79L359.96,229.1L359.83,229.38L359.69,229.62L359.55,229.96L359.42,230.27L359.35,230.61L359.28,230.92L359.18,231.26L359.18,231.57L359.11,231.92L359.04,232.22L359.04,232.94L359.11,233.36L359.11,234.01L359.18,234.39L359.25,234.8L359.28,235.18L359.35,235.55L359.42,235.96L359.55,236.34L359.62,236.75L359.76,237.13L359.89,237.51L360.07,237.92L360.27,238.37L360.41,238.74L360.61,239.16L360.78,239.6L360.99,240.01L361.19,240.46L361.43,240.84L361.64,241.25L361.91,241.7L362.15,242.07L362.42,242.49L362.73,242.93L363,243.34L363.24,243.79L363.59,244.17L363.96,244.58L364.23,245.03L364.54,245.47L364.95,245.88L365.33,246.33L365.67,246.71L366.05,247.12L366.46,247.5L366.83,247.98L367.21,248.35L367.62,248.73L368.06,249.21L368.51,249.59L368.92,249.97L369.36,250.38L369.8,250.76L370.35,251.17L370.8,251.55L371.24,251.92L371.75,252.34L372.3,252.71L372.81,253.06L373.26,253.36L373.77,253.71L374.32,254.09L374.76,254.43L375.27,254.74L375.78,255.01L376.3,255.32L376.84,255.66L377.36,255.9L377.87,256.18L378.38,256.52L378.86,256.76L379.37,256.97L379.89,257.21L380.47,257.48L380.91,257.69L381.46,257.86L381.9,258.07L382.41,258.34L382.93,258.48L383.41,258.65L383.92,258.79L384.43,258.99L384.88,259.13L385.39,259.3L385.87,259.37L386.38,259.51L386.82,259.65L387.3,259.71L387.75,259.82L388.26,259.89L388.7,259.95L389.11,260.02L389.56,260.02L390,260.09L390.48,260.09L390.92,260.16L392.09,260.16L392.56,260.09L392.94,260.09L393.32,260.02L393.73,260.02L394.1,259.95L394.44,259.82L394.82,259.82L395.16,259.71L395.54,259.58L395.84,259.44L396.19,259.37L396.49,259.16L396.84,259.06L397.11,258.92L397.42,258.72L397.69,258.51L398,258.41L398.2,258.2L398.51,258L398.72,257.76L398.99,257.48L399.16,257.28L399.36,257.04Z" style="fill:rgb(184,184,217);"/>
        </g>
        <g transform="matrix(1,0,0,1,5.82077e-11,49.44)">
            <path d="M379.28,233.04L379.08,233.04L378.94,233.11L378.81,233.18L378.77,233.25L378.57,233.31L378.43,233.38L378.23,233.45L378.06,233.59L377.79,233.69L377.58,233.83L377.34,233.97L377.14,234.17L376.87,234.34L376.63,234.55L376.29,234.69L376.12,234.93L375.78,235.2L375.54,235.41L375.27,235.65L374.93,235.92L374.82,236.13L374.69,236.23L374.55,236.37L374.48,236.58L374.28,236.71L374.18,236.85L374.04,237.02L373.91,237.16L373.77,237.37L373.63,237.54L373.53,237.74L373.46,237.95L373.33,238.09L373.19,238.26L373.05,238.46L372.99,238.67L372.88,238.88L372.82,239.12L372.75,239.32L372.61,239.53L372.54,239.7L372.41,239.98L372.34,240.18L372.27,240.42L372.24,240.7L372.1,240.94L372.03,241.14L372.03,241.49L371.96,241.66L371.9,242L371.83,242.24L371.83,242.83L371.76,243.1L371.76,245.26L371.83,245.57L371.83,245.85L371.9,246.16L371.9,246.5L371.96,246.81L372.03,247.15L372.1,247.46L372.17,247.8L372.24,248.11L372.34,248.46L372.48,248.76L372.54,249.04L372.68,249.38L372.75,249.62L372.92,249.97L373.05,250.28L373.19,250.62L373.39,250.86L373.53,251.2L373.7,251.44L373.84,251.79L374.04,252.03L374.28,252.37L374.48,252.64L374.69,252.88L374.93,253.16L375.2,253.47L375.4,253.74L375.64,253.95L375.91,254.19L376.22,254.46L376.49,254.67L376.83,254.91L377.14,255.19L377.48,255.36L377.79,255.56L378.13,255.77L378.43,255.97L378.81,256.15L379.22,256.35L379.59,256.49L380,256.66L380.44,256.8L380.82,256.94L381.23,257.07L381.67,257.14L382.04,257.28L382.45,257.31L382.83,257.38L383.23,257.45L383.68,257.52L385.18,257.52L385.48,257.45L385.89,257.45L386.27,257.38L386.64,257.38L386.98,257.31L387.29,257.21L387.63,257.14L388,257.07L388.34,256.94L388.65,256.8L388.99,256.66L389.3,256.63L389.57,256.42L389.87,256.28L390.21,256.08L390.52,255.97L390.79,255.77L391.13,255.63L391.37,255.43L391.64,255.25L391.88,255.05L392.16,254.77L392.43,254.6L392.67,254.4L392.87,254.12L393.11,253.95L393.31,253.67L393.59,253.47L393.76,253.23L393.96,252.95L394.16,252.71L394.37,252.44L394.54,252.16L394.74,251.92L394.88,251.65L395.05,251.37L395.19,251.13L395.39,250.86L395.53,250.55L395.66,250.28L395.7,250.04L395.83,249.76L395.97,249.42L396.04,249.18L396.11,248.83L396.24,248.59L396.24,248.32L396.34,248.08L396.34,247.73L396.41,247.46L396.41,247.22L396.48,246.95L396.17,246.43L395.83,246.05L395.46,245.5L395.12,245.13L394.81,244.75L394.4,244.27L394.1,243.89L393.76,243.48L393.38,243.1L393.01,242.72L391.88,241.59L391.58,241.28L391.17,240.94L390.86,240.63L390.49,240.28L390.08,239.91L389.7,239.56L389.36,239.32L388.99,238.98L388.65,238.74L388.27,238.46L387.93,238.19L387.56,237.95L387.25,237.61L386.84,237.37L386.54,237.16L386.2,236.89L385.82,236.71L385.48,236.51L385.24,236.3L384.9,236.06L384.6,235.86L384.26,235.65L383.95,235.48L383.61,235.27L383.34,235.13L383.03,234.93L382.83,234.83L382.52,234.69L382.25,234.48L382.01,234.34L381.74,234.24L381.53,234.1L381.29,233.97L380.89,233.83L380.72,233.69L380.51,233.62L380.17,233.45L379.86,233.31L379.66,233.25L379.42,233.11L379.28,233.04Z" style="fill:rgb(255,240,102);"/>
        </g>
        <g transform="matrix(1,0,0,1,5.82077e-11,48.24)">
            <path d="M382.39,234.26L382.01,234.26L381.74,234.33L381.43,234.4L381.09,234.46L380.79,234.53L380.52,234.67L380.18,234.78L379.94,234.91L379.6,235.05L379.36,235.26L379.02,235.43L378.78,235.64L378.44,235.78L378.2,235.98L377.93,236.23L377.66,236.5L377.35,236.68L377.08,236.95L376.84,237.23L376.57,237.4L376.37,237.68L376.13,237.99L375.86,238.26L375.65,238.61L375.48,238.92L375.28,239.27L375.01,239.58L374.91,239.92L374.7,240.23L374.5,240.58L374.36,240.89L374.26,241.3L374.06,241.61L373.92,241.96L373.78,242.27L373.68,242.65L373.55,243.07L373.48,243.44L373.41,243.79L373.41,244.17L373.27,244.58L373.27,244.96L373.21,245.28L373.21,246.48L373.27,246.86L373.34,247.28L373.48,248.04L373.55,248.45L373.68,248.76L373.72,249.18L373.92,249.56L374.06,249.94L374.26,250.35L374.43,250.66L374.63,251.08L374.91,251.39L375.14,251.8L375.42,252.11L375.72,252.53L375.99,252.84L376.71,253.56L377.08,253.91L377.49,254.22L377.86,254.5L378.24,254.74L378.65,255.02L379.02,255.26L379.5,255.46L379.87,255.67L380.24,255.81L380.65,255.98L381.09,256.12L381.47,256.19L381.88,256.33L382.32,256.4L382.73,256.54L383.1,256.54L383.54,256.57L384.32,256.57L384.76,256.54L385.17,256.47L385.55,256.4L385.99,256.4L386.4,256.26L386.77,256.19L387.11,256.05L387.55,255.91L387.96,255.81L388.33,255.67L388.71,255.46L389.05,255.26L389.42,255.08L389.76,254.88L390.07,254.67L390.48,254.43L390.78,254.22L391.12,253.94L391.43,253.63L391.77,253.43L392.01,253.12L392.28,252.77L392.58,252.53L392.86,252.18L393.13,251.87L393.37,251.53L393.64,251.22L393.88,250.87L394.08,250.49L394.28,250.08L394.45,249.7L394.66,249.35L394.79,248.97L394.93,248.59L395.07,248.18L395.24,247.8L395.3,247.31L395.44,246.93L395.44,246.55L395.58,246.07L395.58,245.69L395.64,245.24L395.64,244.38L398.16,248.11L398.09,248.38L398.02,248.69L397.96,248.97L397.89,249.28L397.82,249.56L397.68,249.9L397.65,250.15L397.51,250.49L397.38,250.8L397.24,251.08L397.11,251.32L397,251.67L396.87,251.91L396.73,252.25L396.53,252.56L396.39,252.84L396.22,253.12L396.02,253.43L395.81,253.63L395.64,253.94L395.24,254.5L395,254.74L394.79,255.02L394.52,255.26L394.35,255.53L394.08,255.81L393.81,255.98L393.57,256.26L393.3,256.54L393.06,256.71L392.79,256.98L392.48,257.19L392.21,257.36L391.87,257.57L391.63,257.78L391.29,257.88L390.99,258.09L390.65,258.3L390.41,258.5L390.07,258.61L389.76,258.75L389.42,258.88L389.05,259.02L388.71,259.16L388.33,259.26L387.99,259.4L387.69,259.47L387.31,259.54L386.91,259.61L386.6,259.68L386.19,259.82L385.82,259.82L385.48,259.85L385.1,259.85L384.7,259.92L384.32,259.85L383.54,259.85L383.17,259.82L382.76,259.82L382.39,259.75L382.01,259.68L381.6,259.61L381.23,259.47L380.82,259.4L380.45,259.26L380.14,259.19L379.73,259.09L379.43,258.95L379.02,258.75L378.71,258.68L378.37,258.5L378.07,258.37L377.73,258.16L377.42,258.02L377.08,257.85L376.71,257.64L376.44,257.43L376.2,257.23L375.79,257.05L375.55,256.85L375.21,256.57L374.97,256.4L374.7,256.12L374.43,255.88L374.19,255.67L373.92,255.4L373.68,255.15L373.41,254.88L373.21,254.6L372.97,254.36L372.7,254.01L372.49,253.77L372.32,253.5L372.12,253.18L371.91,252.84L371.71,252.56L371.54,252.18L371.4,251.91L371.2,251.53L371.06,251.22L370.89,250.87L370.83,250.56L370.62,250.21L370.55,249.83L370.42,249.49L370.38,249.18L370.25,248.76L370.18,248.38L370.11,247.97L370.04,247.66L369.98,247.21L369.98,246.8L369.91,246.42L369.91,246.07L369.84,245.62L369.84,245.24L369.91,244.83L369.91,243.96L369.98,243.58L370.04,243.13L370.11,242.65L370.18,242.27L370.32,241.82L370.38,241.34L370.55,240.96L370.55,240.82L370.62,240.65L370.69,240.44L370.76,240.3L370.83,240.03L370.96,239.85L371.06,239.51L371.2,239.27L371.27,239.06L371.4,238.92L371.47,238.78L371.61,238.64L371.68,238.47L371.78,238.26L371.85,238.13L371.98,237.95L372.12,237.75L372.25,237.61L372.32,237.4L372.49,237.23L372.63,237.02L372.76,236.81L372.9,236.64L373,236.43L373.21,236.23L373.34,236.02L373.55,235.85L373.72,235.64L373.85,235.43L374.06,235.26L374.26,235.05L374.43,234.91L374.63,234.71L374.84,234.53L375.01,234.33L375.28,234.19L375.48,234.02L375.65,233.81L375.93,233.67L376.2,233.46L376.44,233.36L376.71,233.15L376.95,233.01L377.22,232.88L377.49,232.7L377.73,232.57L378.07,232.43L378.37,232.29L378.65,232.15L378.95,232.01L379.29,231.98L379.6,231.84L382.39,234.26Z"/>
        </g>
        <g transform="matrix(1,0,0,1,5.82077e-11,62.88)">
            <path d="M417.97,209.35L418.04,209.42L418.1,209.49L418.31,209.66L418.51,209.87L418.68,210.15L418.82,210.25L418.96,210.45L419.09,210.59L419.26,210.8L419.4,210.97L419.53,211.18L419.67,211.38L419.87,211.62L419.98,211.83L420.18,212.1L420.32,212.35L420.52,212.69L420.69,212.93L420.83,213.27L421.03,213.58L421.17,213.93L421.34,214.24L421.48,214.65L421.68,215.03L421.85,215.44L421.99,215.82L422.19,216.2L422.33,216.68L422.46,217.06L422.57,217.5L422.7,217.98L422.91,218.5L423.04,219.02L423.11,219.46L423.21,220.01L423.35,220.53L423.42,221.11L423.55,221.7L423.62,222.28L423.69,222.87L423.76,223.52L423.79,224.03L423.86,224.76L423.86,225.38L423.93,226.06L423.93,227.44L423.86,228.16L423.86,228.88L423.79,229.6L423.76,230.39L423.69,231.19L423.62,231.98L423.48,232.73L423.35,233.59L423.21,234.45L423.11,235.28L422.97,235.83L422.84,236.34L422.7,236.86L422.57,237.44L422.46,237.96L422.33,238.51L422.19,239.02L421.99,239.61L421.85,240.06L421.68,240.64L421.54,241.19L421.34,241.71L421.17,242.22L420.96,242.74L420.76,243.32L420.62,243.84L420.39,244.39L420.25,244.9L419.98,245.42L419.81,245.93L419.53,246.48L419.33,247L419.16,247.52L418.89,248.1L418.61,248.55L418.44,249.1L418.17,249.61L417.93,250.13L417.66,250.64L417.39,251.23L417.15,251.71L416.88,252.29L416.57,252.74L416.3,253.26L415.99,253.77L415.72,254.32L415.45,254.84L415.14,255.35L414.8,255.87L414.56,256.39L414.22,256.87L413.91,257.38L413.57,257.9L413.34,258.41L413,258.96L412.62,259.41L412.28,259.93L412.04,260.44L411.63,260.99L411.33,261.51L410.99,261.96L410.68,262.47L410.27,262.99L409.96,263.54L409.56,263.98L409.25,264.5L408.84,265.01L408.53,265.57L408.16,266.01L407.82,266.53L407.44,267.04L407.04,267.52L406.73,268.04L406.32,268.56L409.11,270L409.11,269.93L409.18,269.79L409.32,269.66L409.49,269.42L409.56,269.28L409.69,269.14L409.83,268.93L409.96,268.83L410.1,268.56L410.2,268.35L410.34,268.18L410.54,267.9L410.75,267.63L410.85,267.39L411.05,267.11L411.33,266.87L411.5,266.53L411.7,266.25L411.97,265.94L412.14,265.6L412.42,265.22L412.62,264.91L412.86,264.57L413.13,264.19L413.34,263.78L413.57,263.47L413.91,263.06L414.15,262.68L414.43,262.23L414.63,261.82L414.94,261.37L415.21,260.92L415.45,260.51L415.72,260.06L415.99,259.62L416.3,259.14L416.57,258.69L416.88,258.24L417.15,257.76L417.39,257.31L417.66,256.8L417.97,256.35L418.24,255.8L418.58,255.35L418.82,254.84L419.09,254.39L419.33,253.84L419.6,253.39L419.87,252.81L420.11,252.36L420.39,251.81L420.62,251.37L420.83,250.85L421.1,250.33L421.34,249.78L421.61,249.34L421.82,248.82L421.99,248.31L422.26,247.83L422.46,247.31L422.63,246.86L422.77,246.35L422.97,245.87L423.14,245.49L423.28,245.04L423.48,244.56L423.62,244.18L423.79,243.73L423.93,243.32L424.06,242.87L424.2,242.5L424.34,242.08L424.44,241.71L424.57,241.22L424.71,240.85L424.85,240.54L424.98,240.06L425.05,239.75L425.15,239.33L425.29,238.96L425.36,238.54L425.43,238.23L425.56,237.86L425.63,237.51L425.7,237.13L425.73,236.79L425.87,236.41L425.94,236.07L426,235.76L426.07,235.41L426.14,235.1L426.21,234.76L426.28,234.38L426.28,234.04L426.35,233.73L426.38,233.39L426.38,233.08L426.45,232.73L426.45,232.42L426.52,232.08L426.52,231.77L426.58,231.43L426.58,230.77L426.65,230.46L426.65,230.19L426.72,229.81L426.72,223.93L426.65,223.38L426.58,222.93L426.58,222.49L426.52,221.97L426.45,221.49L426.38,221.04L426.38,220.67L426.28,220.18L426.21,219.74L426.07,219.36L426,218.88L425.87,218.5L425.73,218.05L425.7,217.64L425.56,217.26L425.43,216.85L425.15,216.09L425.05,215.75L424.91,215.37L424.78,214.96L424.64,214.65L424.51,214.31L424.34,214L424.2,213.58L424.06,213.27L423.93,213L423.76,212.69L423.62,212.35L423.48,212.1L423.35,211.83L423.21,211.52L423.04,211.25L422.91,210.97L422.77,210.73L422.57,210.45L422.46,210.18L422.33,210.01L422.19,209.8L421.99,209.53L421.92,209.35L421.75,209.15L421.61,208.94L421.48,208.77L421.41,208.63L421.27,208.43L421.2,208.29L420.96,208.05L420.9,207.84L420.76,207.77L420.56,207.53L420.52,207.39L420.25,207.12L417.97,209.35Z"/>
        </g>
        <g transform="matrix(-0.917837,0.396957,0.396957,0.917837,578.455,-58.0495)">
            <path d="M346.223,237.486L356.149,237.486L355.411,241.096L346.198,241.082L346.223,237.486Z" style="fill:rgb(255,255,133);"/>
        </g>
        <g transform="matrix(-0.733676,0.6795,0.6795,0.733676,481.062,-93.5081)">
            <path d="M359.518,220.718L370.409,220.718L369.989,224.106L358.809,224.088L359.518,220.718Z" style="fill:rgb(255,255,133);"/>
        </g>
        <g transform="matrix(-0.357741,0.933821,0.933821,0.357741,322.549,-113.601)">
            <path d="M383.154,214.357L389.108,214.357L388.88,217.525L382.785,217.332L383.154,214.357Z" style="fill:rgb(255,255,133);"/>
        </g>
        <g transform="matrix(1,0,0,1,5.82077e-11,49.44)">
            <path d="M398.4,242.57L398.47,242.71L398.67,242.88L398.87,243.09L399.01,243.22L399.11,243.4L399.24,243.54L399.45,243.81L399.58,243.95L399.68,244.19L399.88,244.47L400.15,244.78L400.22,244.85L400.29,245.06L400.39,245.19L400.52,245.4L400.59,245.5L400.73,245.71L400.79,245.85L400.93,246.06L401,246.23L401.1,246.44L401.23,246.64L401.37,246.82L401.44,247.02L401.57,247.23L401.64,247.4L401.81,247.68L401.87,247.89L402.01,248.13L402.08,248.34L402.21,248.61L402.31,248.86L402.45,249.13L402.51,249.37L402.65,249.65L402.72,249.93L402.85,250.17L402.95,250.45L403.09,250.76L403.22,251.03L403.29,251.34L403.43,251.69L403.56,252L404.64,246.09L404.64,246.06L404.57,245.99L404.51,245.78L404.44,245.5L404.44,245.4L404.37,245.19L404.24,244.99L404.24,244.85L404.13,244.61L404.07,244.4L403.93,244.12L403.8,243.95L403.66,243.67L403.49,243.4L403.36,243.09L403.16,242.81L403.02,242.71L402.95,242.5L402.85,242.36L402.78,242.15L402.65,242.05L402.51,241.84L402.38,241.7L402.31,241.57L402.14,241.39L402.01,241.19L401.87,240.98L401.74,240.84L401.57,240.67L401.44,240.46L401.23,240.25L401.1,240.11L400.93,239.87L400.79,239.73L400.59,239.46L400.39,239.35L400.22,239.08L400.02,238.94L399.82,238.7L399.65,238.56L398.4,242.57Z"/>
        </g>
        <g transform="matrix(1,0,0,1,5.82077e-11,34.08)">
            <path d="M400.08,251.78L400.15,251.78L400.22,251.85L400.39,251.99L400.59,252.16L400.87,252.36L401.18,252.64L401.31,252.81L401.52,253.01L401.69,253.22L401.9,253.42L402.1,253.59L402.31,253.87L402.48,254.07L402.69,254.31L402.89,254.58L403.06,254.89L403.2,255.03L403.34,255.16L403.41,255.37L403.54,255.54L403.61,255.68L403.71,255.81L403.78,256.02L403.92,256.12L403.99,256.33L404.13,256.53L404.26,256.74L404.3,256.91L404.43,257.04L404.5,257.25L404.64,257.42L404.71,257.63L404.85,257.83L404.91,258.04L404.95,258.21L405.09,258.48L405.36,253.22L405.36,253.01L405.22,252.87L405.15,252.7L405.02,252.43L404.91,252.12L404.78,251.99L404.71,251.78L404.57,251.58L404.5,251.4L404.3,251.2L404.19,250.99L403.99,250.76L403.85,250.55L403.61,250.28L403.41,250.04L403.2,249.83L402.99,249.56L402.17,248.74L401.9,248.53L401.76,248.33L401.59,248.23L401.45,248.09L401.25,247.95L401.11,247.82L400.94,247.61L400.8,247.51L400.59,247.44L400.08,251.78Z"/>
        </g>
        <g transform="matrix(1,0,0,1,5.82077e-11,19.92)">
            <path d="M400.59,259.71L400.73,259.78L400.86,259.85L401.03,259.95L401.31,260.09L401.58,260.37L401.75,260.43L401.89,260.54L402.09,260.67L402.26,260.88L402.6,261.22L402.81,261.33L402.98,261.53L403.11,261.74L403.32,261.91L403.52,262.11L403.69,262.39L403.89,262.56L404.1,262.83L404.2,263.04L404.41,263.28L404.61,263.55L404.75,263.83L404.85,263.93L404.92,264.14L404.98,264.27L405.12,264.48L404.54,259.44L404.47,259.3L404.41,259.2L404.27,259.06L404.17,258.86L403.96,258.58L403.76,258.34L403.55,258.07L403.38,257.93L403.25,257.76L403.11,257.62L402.98,257.42L402.81,257.28L402.6,257.11L402.4,256.9L402.23,256.77L402.02,256.63L401.75,256.46L401.58,256.32L401.38,256.18L401.03,255.98L400.86,255.87L400.52,255.67L400.32,255.6L400.59,259.71Z"/>
        </g>
        <g transform="matrix(1,0,0,1,5.82077e-11,9.12)">
            <path d="M402,264.54L402.07,264.54L402.27,264.72L402.37,264.79L402.57,265L402.7,265.21L402.93,265.46L403.13,265.67L403.4,266.02L403.53,266.13L403.63,266.27L403.76,266.48L403.9,266.69L404.03,266.87L404.2,267.08L404.33,267.29L404.46,267.47L404.6,267.75L404.8,268.03L404.9,268.21L405.1,268.56L407.76,266.41L407.76,266.34L407.69,266.27L407.63,266.13L407.56,265.95L407.43,265.74L407.33,265.46L407.13,265.21L406.93,264.93L406.79,264.72L406.69,264.61L406.56,264.4L406.43,264.26L406.29,264.05L406.16,263.94L406.06,263.73L405.93,263.59L405.73,263.38L405.6,263.27L405.43,263.06L405.23,262.92L405.1,262.71L404.9,262.53L404.73,262.39L404.53,262.32L402,264.54Z"/>
        </g>
        <g transform="matrix(1,0,0,1,5.82077e-11,35.04)">
            <path d="M360.42,249.38L360.35,249.38L360.35,249.51L360.28,249.65L360.28,249.72L360.21,249.9L360.21,250.04L360.14,250.25L360.14,250.46L360.07,250.63L360.07,251.96L360,252.1L360,252.9L360.07,253.11L360.07,253.84L360.14,254.01L360.14,254.15L360.21,254.43L360.21,254.61L360.28,254.82L360.28,255.03L360.35,255.24L360.35,255.41L360.49,255.83L360.56,256.07L360.63,256.28L360.66,256.56L360.73,256.74L360.8,257.01L360.87,257.22L360.94,257.47L361.08,257.68L361.15,257.92L361.29,258.2L361.32,258.48L364.32,254.75L364.25,254.68L364.25,254.57L364.11,254.29L364.04,254.08L363.97,253.91L363.94,253.7L363.87,253.49L363.87,253.28L363.8,253.04L363.73,252.76L363.66,252.51L363.66,252.31L363.59,252.1L363.52,251.96L363.52,251.64L363.45,251.5L363.45,251.05L363.38,250.84L363.38,250.63L363.31,250.53L363.31,247.67L363.38,247.46L363.38,247.25L363.45,247L363.45,246.86L363.52,246.58L363.59,246.48L360.42,249.38Z"/>
        </g>
        <g transform="matrix(1,0,0,1,5.82077e-11,2.4)">
            <path d="M405.84,267.98L405.91,267.98L406.08,268.15L406.29,268.22L406.42,268.35L406.7,268.55L406.94,268.78L407.14,269.05L407.38,269.32L407.52,269.48L407.73,269.62L407.86,269.82L408.03,269.98L408.31,270.38L408.45,270.62L408.58,270.82L408.75,271.09L408.89,271.32L409.1,271.59L409.23,271.92L412.08,269.95L412.01,269.88L411.94,269.82L411.91,269.62L411.84,269.48L411.7,269.25L411.57,268.98L411.43,268.85L411.36,268.72L411.29,268.55L411.26,268.42L411.12,268.22L410.91,268.05L410.78,267.85L410.71,267.72L410.54,267.52L410.4,267.35L410.26,267.15L410.13,266.95L409.95,266.81L409.75,266.65L409.54,266.45L409.34,266.31L409.17,266.15L408.96,265.95L408.75,265.81L408.58,265.68L405.84,267.98Z"/>
        </g>
        <g transform="matrix(1,0,0,1,5.82077e-11,-4.08)">
            <path d="M410.16,270.82L410.29,270.89L410.36,270.96L410.56,271.1L410.69,271.25L410.93,271.42L411.19,271.7L411.43,271.99L411.56,272.09L411.69,272.23L411.83,272.45L411.96,272.66L412.06,272.83L412.26,273.05L412.4,273.19L412.6,273.44L412.7,273.65L412.83,273.93L412.96,274.11L413.1,274.39L413.23,274.67L413.33,274.92L413.46,275.2L413.66,275.52L416.4,273.44L416.4,273.36L416.33,273.33L416.27,273.12L416.2,272.91L416.07,272.66L415.93,272.38L415.83,272.16L415.77,271.99L415.63,271.85L415.57,271.63L415.43,271.42L415.3,271.25L415.2,271.03L415.07,270.82L414.86,270.61L414.73,270.43L414.56,270.22L414.43,270.01L414.23,269.83L414.03,269.62L413.86,269.41L413.66,269.27L413.46,269.09L413.3,268.88L413.03,268.74L412.83,268.56L410.16,270.82Z"/>
        </g>
        <g transform="matrix(1,0,0,1,5.82077e-11,-10.56)">
            <path d="M414.24,273.84L414.31,273.91L414.44,273.98L414.57,274.11L414.74,274.32L414.94,274.49L415.08,274.62L415.21,274.76L415.34,274.89L415.51,275.09L415.64,275.2L415.78,275.33L415.91,275.53L416.01,275.74L416.14,275.91L416.35,276.18L416.48,276.38L416.65,276.62L416.78,276.89L416.91,277.05L417.05,277.39L417.18,277.66L417.28,277.9L417.41,278.24L417.48,278.37L417.55,278.54L417.62,278.68L417.68,278.88L419.52,277.73L419.52,277.53L419.45,277.39L419.45,277.12L419.39,276.95L419.32,276.82L419.25,276.62L419.25,276.48L419.19,276.24L419.15,276.04L419.15,275.84L419.09,275.67L418.95,275.4L418.89,275.13L418.75,274.96L418.68,274.69L418.55,274.45L418.45,274.18L418.38,273.91L418.25,273.67L418.05,273.4L417.92,273.17L417.82,272.9L417.62,272.63L417.41,272.39L417.28,272.12L417.11,271.88L416.91,271.68L414.24,273.84Z"/>
        </g>
        <g transform="matrix(1,0,0,1,5.82077e-11,28.56)">
            <path d="M365.54,252.14L365.48,252.14L365.48,252.35L365.41,252.48L365.41,252.79L365.35,252.93L365.35,253.14L365.28,253.31L365.28,256.51L365.35,256.65L365.35,256.86L365.41,256.99L365.41,257.37L365.48,257.51L365.48,257.82L365.54,258.03L365.61,258.16L365.61,258.37L365.67,258.47L365.74,258.68L365.74,258.82L365.8,259.03L365.87,259.13L365.9,259.34L365.97,259.47L366.03,259.68L368.64,256.34L368.64,256.2L368.57,256.06L368.57,255.86L368.51,255.69L368.51,255.41L368.44,255.27L368.44,255.13L368.38,254.96L368.38,254.62L368.35,254.48L368.35,252.28L368.38,252.14L368.44,251.93L368.51,251.76L365.54,252.14Z"/>
        </g>
        <g transform="matrix(1,0,0,1,5.82077e-11,23.76)">
            <path d="M370.21,256.56L370.15,256.77L370.15,256.84L370.08,257.06L370.08,258.12L370.15,258.4L370.15,258.65L370.21,259.01L370.21,259.15L370.28,259.33L370.35,259.47L370.42,259.68L373.2,257.06L370.21,256.56Z"/>
        </g>
        <g transform="matrix(1,0,0,1,5.82077e-11,63.6)">
            <path d="M412.73,210.28L412.87,210.35L413.14,210.62L413.24,210.76L413.52,211L413.65,211.14L413.79,211.27L413.89,211.41L414.09,211.58L414.23,211.79L414.37,211.93L414.5,212.13L414.67,212.37L414.81,212.58L415.01,212.82L415.15,213.09L415.32,213.37L415.52,213.61L415.66,213.88L415.86,214.12L416.03,214.47L416.17,214.78L416.37,215.12L416.51,215.43L416.68,215.84L416.82,216.15L417.02,216.56L417.16,216.94L417.26,217.42L417.46,217.8L417.6,218.18L417.73,218.66L417.84,219.1L417.97,219.55L418.04,220.07L418.18,220.55L418.31,221.06L418.31,221.58L418.45,222.09L418.48,222.68L418.55,223.29L418.62,223.88L418.62,224.39L418.69,225.05L418.69,226.93L418.62,227.66L418.62,228.31L418.48,228.96L418.45,229.68L418.38,230.4L418.31,231.19L418.18,231.91L418.04,232.67L417.84,233.46L417.73,234.32L417.6,234.77L417.46,235.21L417.26,235.76L417.16,236.21L417.02,236.72L416.82,237.17L416.68,237.72L416.54,238.23L416.37,238.75L416.17,239.26L415.97,239.81L415.8,240.33L415.52,240.84L415.32,241.43L415.15,241.94L414.94,242.53L414.67,243.08L414.43,243.59L414.16,244.18L413.89,244.69L413.65,245.27L413.38,245.79L413.14,246.34L412.87,246.92L412.6,247.51L412.29,248.02L412.02,248.61L411.78,249.19L411.44,249.71L411.2,250.32L410.86,250.84L410.62,251.42L410.28,251.94L409.98,252.45L409.64,253.04L409.33,253.59L408.99,254.1L408.69,254.69L408.35,255.2L408.07,255.78L407.7,256.3L407.39,256.85L407.05,257.36L406.75,257.88L406.41,258.39L406.1,258.91L405.76,259.46L405.45,259.97L405.05,260.42L404.74,260.9L404.4,261.42L404.03,261.93L403.69,262.38L403.38,262.86L403.04,263.37L402.73,263.82L402.33,264.27L402.02,264.68L401.68,265.13L401.37,265.57L401.03,265.98L400.73,266.43L400.39,266.84L400.08,267.29L403.62,268.08L403.62,268.01L403.69,267.94L403.82,267.74L404.03,267.5L404.09,267.36L404.2,267.15L404.33,266.95L404.47,266.84L404.6,266.57L404.74,266.36L404.91,266.12L405.11,265.92L405.25,265.64L405.45,265.4L405.62,265.06L405.9,264.82L406.1,264.47L406.27,264.16L406.47,263.82L406.75,263.51L406.99,263.1L407.19,262.79L407.43,262.38L407.77,262.07L407.97,261.59L408.21,261.28L408.48,260.83L408.79,260.42L409.06,259.97L409.33,259.6L409.57,259.12L409.91,258.67L410.15,258.22L410.42,257.74L410.66,257.3L411,256.85L411.27,256.37L411.51,255.85L411.85,255.41L412.09,254.96L412.36,254.41L412.67,253.9L412.94,253.45L413.24,253L413.52,252.45L413.79,251.94L414.03,251.42L414.3,250.91L414.57,250.36L414.81,249.91L415.08,249.4L415.32,248.88L415.59,248.37L415.86,247.89L416.03,247.37L416.31,246.85L416.54,246.34L416.75,245.86L417.02,245.34L417.19,244.9L417.39,244.38L417.6,243.9L417.73,243.45L417.9,243.08L418.04,242.6L418.24,242.22L418.38,241.77L418.55,241.36L418.69,240.98L418.82,240.57L418.96,240.19L419.13,239.81L419.2,239.4L419.4,239.09L419.54,238.75L419.67,238.44L419.74,238.03L419.84,237.72L419.91,237.38L420.05,237.07L420.12,236.72L420.25,236.41L420.32,236.07L420.42,235.76L420.49,235.42L420.63,235.18L420.69,234.83L420.76,234.56L420.83,234.32L420.9,233.98L420.97,233.74L421.03,233.46L421.07,233.15L421.14,232.88L421.14,232.6L421.2,232.29L421.27,232.02L421.34,231.78L421.34,231.5L421.41,231.26L421.41,230.99L421.48,230.71L421.48,230.13L421.54,229.89L421.54,229.61L421.61,229.34L421.61,228.76L421.68,228.51L421.68,224.32L421.61,223.88L421.61,223.33L421.54,222.88L421.48,222.44L421.48,221.92L421.41,221.51L421.34,221.06L421.27,220.68L421.14,220.2L421.07,219.76L421.03,219.38L420.97,218.97L420.83,218.52L420.69,218.11L420.63,217.8L420.49,217.42L420.39,217.01L420.25,216.7L420.12,216.29L420.05,215.98L419.84,215.64L419.74,215.26L419.61,214.91L419.47,214.67L419.33,214.33L419.2,214.02L419.09,213.68L418.89,213.47L418.75,213.16L418.62,212.89L418.48,212.65L418.38,212.37L418.18,212.13L418.04,211.86L417.9,211.65L417.8,211.48L417.6,211.2L417.46,211L417.33,210.83L417.19,210.62L417.09,210.42L416.95,210.21L416.82,210.11L416.68,209.9L416.44,209.56L416.24,209.32L416.03,209.04L415.86,208.84L415.66,208.66L415.32,208.32L412.73,210.28Z"/>
        </g>
    </g>
    <g transform="matrix(1.27513,0,0,1.27513,-291.81,15.2648)">
        <path d="M290.14,88.987L657.38,207.457L656.94,208.827L289.7,90.367L290.14,88.987ZM657.13,204.98L661.92,209.677L655.29,210.69L657.13,204.98Z" style="fill:rgb(255,0,0);fill-rule:nonzero;"/>
    </g>
    <g transform="matrix(1.27513,0,0,1.27513,-291.81,-29.9042)">
        <path d="M290.08,124.4L657.2,207.3L656.88,208.7L289.76,125.8L290.08,124.4ZM656.73,204.85L661.92,209.1L655.41,210.7L656.73,204.85Z" style="fill:rgb(255,0,0);fill-rule:nonzero;"/>
    </g>
    <g transform="matrix(1.27513,0,0,1.27513,-291.81,-75.044)">
        <path d="M290.01,159.79L657.05,207.15L656.87,208.57L289.83,161.21L290.01,159.79ZM656.35,204.76L661.92,208.5L655.59,210.71L656.35,204.76Z" style="fill:rgb(255,0,0);fill-rule:nonzero;"/>
    </g>
    <g transform="matrix(1.27513,0,0,1.27513,-291.81,-136.964)">
        <path d="M289.92,208.34L656.92,208.81L656.92,210.25L289.92,209.78L289.92,208.34ZM655.92,206.53L661.92,209.54L655.92,212.53L655.92,206.53Z" style="fill:rgb(255,0,0);fill-rule:nonzero;"/>
    </g>
    <g transform="matrix(0,1.27513,1.27513,0,-189.901,-238.848)">
        <circle cx="289.44" cy="209.52" r="3" style="fill:rgb(255,0,0);stroke:black;stroke-width:0.78px;stroke-linecap:butt;stroke-miterlimit:10;"/>
    </g>
    <g transform="matrix(1.27513,0,0,1.27513,-291.81,-56.2357)">
        <path d="M313.98,194.47L657,164.9L656.88,163.46L313.86,193.03L313.98,194.47ZM656.2,167.25L661.92,163.75L655.68,161.28L656.2,167.25Z" style="fill:rgb(149,79,114);fill-rule:nonzero;"/>
    </g>
    <g transform="matrix(1.27513,0,0,1.27513,-291.81,-15.7503)">
        <path d="M313.92,161.28L656.92,161.28L656.92,162.72L313.92,162.72L313.92,161.28ZM655.92,159L661.92,162L655.92,165L655.92,159Z" style="fill:rgb(149,79,114);fill-rule:nonzero;"/>
    </g>
    <g transform="matrix(1.27513,0,0,1.27513,-291.81,32.2585)">
        <path d="M313.99,123.63L657.02,159.12L656.87,160.55L313.85,125.07L313.99,123.63ZM656.26,156.75L661.92,160.35L655.64,162.72L656.26,156.75Z" style="fill:rgb(149,79,114);fill-rule:nonzero;"/>
    </g>
    <g transform="matrix(1.27513,0,0,1.27513,-291.81,77.3498)">
        <path d="M314.07,88.278L657.17,159.27L656.88,160.68L313.77,89.688L314.07,88.278ZM656.65,156.834L661.92,160.988L655.44,162.71L656.65,156.834Z" style="fill:rgb(149,79,114);fill-rule:nonzero;"/>
    </g>
    <g transform="matrix(0,1.27513,1.27513,0,-96.8673,-209.468)">
        <circle cx="314.4" cy="161.52" r="3" style="fill:rgb(149,79,114);stroke:black;stroke-width:0.78px;stroke-linecap:butt;stroke-miterlimit:10;"/>
    </g>
</svg>
