<?xml version="1.0" encoding="UTF-8" standalone="no"?>
<!DOCTYPE svg PUBLIC "-//W3C//DTD SVG 1.1//EN" "http://www.w3.org/Graphics/SVG/1.1/DTD/svg11.dtd">
<svg width="100%" height="100%" viewBox="0 0 6000 2700" version="1.1" xmlns="http://www.w3.org/2000/svg" xmlns:xlink="http://www.w3.org/1999/xlink" xml:space="preserve" xmlns:serif="http://www.serif.com/" style="fill-rule:evenodd;clip-rule:evenodd;stroke-linejoin:round;stroke-miterlimit:1.5;">
    <g transform="matrix(1.1543,0,0,1.1543,-316.597,-293.169)">
        <text x="3082.97px" y="1381.68px" style="font-family:'ArialMT', 'Arial', sans-serif;font-size:82.971px;fill:white;">Similarity</text>
    </g>
    <g transform="matrix(1.1543,0,0,1.1543,-485.538,-207.755)">
        <rect x="2911.31" y="550.006" width="359.041" height="359.041" style="fill:rgb(140,140,140);fill-opacity:0.8;stroke:white;stroke-width:5px;"/>
    </g>
    <g transform="matrix(0.826986,0,0,0.826986,486.909,1472.58)">
        <rect x="2911.31" y="550.006" width="359.041" height="359.041" style="fill:rgb(140,140,140);fill-opacity:0.8;stroke:white;stroke-width:6.98px;"/>
    </g>
    <g transform="matrix(0.71113,-0.71113,0,1.1543,1219.55,1862.57)">
        <rect x="2911.31" y="550.006" width="359.041" height="359.041" style="fill:rgb(76,76,76);fill-opacity:0.85;stroke:white;stroke-width:9.74px;"/>
    </g>
    <g transform="matrix(0.515826,-0.515826,0,0.826986,1689.72,2974.31)">
        <rect x="2911.31" y="550.006" width="359.041" height="359.041" style="fill:rgb(76,76,76);fill-opacity:0.85;stroke:white;stroke-width:11.74px;"/>
    </g>
    <g transform="matrix(1.1543,0,-0.712333,0.712333,162.007,-220.426)">
        <rect x="2911.31" y="550.006" width="359.041" height="359.041" style="fill:white;fill-opacity:0.8;stroke:white;stroke-width:9.74px;"/>
    </g>
    <g transform="matrix(0.826986,0,-0.515826,0.515826,955.819,1458.51)">
        <rect x="2911.31" y="550.006" width="359.041" height="359.041" style="fill:white;fill-opacity:0.8;stroke:white;stroke-width:11.74px;"/>
    </g>
    <g transform="matrix(1.1543,0,0,1.1543,-483.837,-207.856)">
        <g transform="matrix(0.866324,-0,-0,0.866324,419.159,180.07)">
            <path d="M2872.84,858.74C2882.32,859.931 2890.99,853.201 2892.18,843.719C2893.37,834.238 2886.64,825.572 2877.16,824.381C2867.67,823.19 2859.01,829.92 2857.82,839.402C2856.63,848.883 2863.36,857.549 2872.84,858.74Z" style="fill:white;"/>
            <path d="M1542.13,691.534C1532.65,690.343 1525.92,681.677 1527.11,672.196C1528.31,662.714 1536.97,655.984 1546.45,657.175C1555.93,658.366 1562.66,667.032 1561.47,676.513C1560.28,685.995 1551.62,692.725 1542.13,691.534Z" style="fill:white;"/>
            <path d="M2875,841.56L1544.29,674.355" style="fill:none;stroke:white;stroke-width:5.77px;"/>
        </g>
    </g>
    <g transform="matrix(1.1543,0,0,1.1543,-483.837,-207.856)">
        <g transform="matrix(0.866324,-0,-0,0.866324,419.159,180.07)">
            <path d="M2877.74,441.866C2885.88,440.353 2891.26,432.517 2889.74,424.378C2888.23,416.239 2880.4,410.858 2872.26,412.37C2864.12,413.883 2858.74,421.719 2860.25,429.858C2861.76,437.997 2869.6,443.378 2877.74,441.866Z" style="fill:white;"/>
            <path d="M1547.03,689.102C1538.89,690.614 1531.06,685.234 1529.55,677.095C1528.03,668.955 1533.41,661.119 1541.55,659.607C1549.69,658.095 1557.53,663.475 1559.04,671.614C1560.55,679.754 1555.17,687.59 1547.03,689.102Z" style="fill:white;"/>
            <path d="M2875,427.118L1544.29,674.355" style="fill:none;stroke:white;stroke-width:5px;"/>
        </g>
    </g>
    <g transform="matrix(1.1543,0,0,1.1543,-445.077,1229.18)">
        <g transform="matrix(0.866324,-0,-0,0.866324,385.581,-1064.87)">
            <path d="M2897.25,1942.17C2905.39,1940.67 2910.78,1932.84 2909.27,1924.7C2907.77,1916.56 2899.94,1911.17 2891.8,1912.67C2883.66,1914.18 2878.27,1922.01 2879.77,1930.15C2881.28,1938.29 2889.11,1943.68 2897.25,1942.17Z" style="fill:white;"/>
            <path d="M1963.47,2114.58C1955.33,2116.08 1947.5,2110.69 1945.99,2102.55C1944.49,2094.41 1949.88,2086.58 1958.02,2085.08C1966.16,2083.57 1973.99,2088.96 1975.5,2097.1C1977,2105.24 1971.61,2113.07 1963.47,2114.58Z" style="fill:white;"/>
            <path d="M2894.52,1927.42L1960.75,2099.83" style="fill:none;stroke:white;stroke-width:5px;"/>
        </g>
    </g>
    <g transform="matrix(1.1543,0,0,1.1543,665.766,1229.18)">
        <g transform="matrix(0.866324,-0,-0,0.866324,-576.769,-1064.87)">
            <path d="M4006.07,2114.65C4014.25,2115.92 4021.92,2110.3 4023.19,2102.12C4024.46,2093.94 4018.84,2086.27 4010.66,2085C4002.48,2083.74 3994.81,2089.35 3993.54,2097.53C3992.28,2105.71 3997.89,2113.38 4006.07,2114.65Z" style="fill:white;"/>
            <path d="M2892.23,1942.25C2884.05,1940.98 2878.43,1933.31 2879.7,1925.13C2880.97,1916.95 2888.64,1911.33 2896.82,1912.6C2905,1913.87 2910.61,1921.54 2909.35,1929.72C2908.08,1937.9 2900.41,1943.51 2892.23,1942.25Z" style="fill:white;"/>
            <path d="M4008.37,2099.83L2894.52,1927.42" style="fill:none;stroke:white;stroke-width:5px;"/>
        </g>
    </g>
    <g transform="matrix(1.1543,0,0,1.1543,665.766,1229.18)">
        <g transform="matrix(0.866324,-0,-0,0.866324,-576.769,-1064.87)">
            <path d="M4010.03,2114.73C4018.26,2113.81 4024.19,2106.39 4023.27,2098.16C4022.35,2089.93 4014.93,2084 4006.7,2084.92C3998.47,2085.84 3992.54,2093.27 3993.46,2101.49C3994.38,2109.72 4001.81,2115.65 4010.03,2114.73Z" style="fill:white;"/>
            <path d="M2896.19,2239.25C2887.96,2240.17 2880.54,2234.24 2879.62,2226.01C2878.7,2217.78 2884.63,2210.36 2892.86,2209.44C2901.08,2208.52 2908.51,2214.45 2909.43,2222.68C2910.35,2230.91 2904.42,2238.33 2896.19,2239.25Z" style="fill:white;"/>
            <path d="M4008.37,2099.83L2894.52,2224.35" style="fill:none;stroke:white;stroke-width:5px;"/>
        </g>
    </g>
    <g transform="matrix(1.1543,0,0,1.1543,-445.077,1229.18)">
        <g transform="matrix(0.866324,-0,-0,0.866324,385.581,-1064.87)">
            <path d="M2892.54,2239.21C2900.75,2240.31 2908.3,2234.53 2909.39,2226.33C2910.49,2218.12 2904.71,2210.57 2896.51,2209.48C2888.3,2208.38 2880.75,2214.16 2879.66,2222.36C2878.56,2230.57 2884.34,2238.12 2892.54,2239.21Z" style="fill:white;"/>
            <path d="M1958.76,2114.7C1950.56,2113.6 1944.78,2106.05 1945.88,2097.84C1946.97,2089.64 1954.52,2083.86 1962.73,2084.96C1970.93,2086.05 1976.71,2093.6 1975.61,2101.81C1974.52,2110.02 1966.97,2115.79 1958.76,2114.7Z" style="fill:white;"/>
            <path d="M2894.52,2224.35L1960.75,2099.83" style="fill:none;stroke:white;stroke-width:5px;"/>
        </g>
    </g>
    <g transform="matrix(1.1543,0,0,1.1543,931.554,-110.883)">
        <g transform="matrix(0.866324,-0,-0,0.866324,-807.028,96.0607)">
            <path d="M4453.39,689.174C4461.57,690.454 4469.25,684.852 4470.53,676.672C4471.81,668.493 4466.2,660.814 4458.03,659.535C4449.85,658.255 4442.17,663.857 4440.89,672.037C4439.61,680.216 4445.21,687.895 4453.39,689.174Z" style="fill:white;"/>
            <path d="M2872.68,441.938C2864.5,440.659 2858.9,432.979 2860.18,424.8C2861.46,416.621 2869.14,411.019 2877.31,412.298C2885.49,413.578 2891.1,421.257 2889.82,429.436C2888.54,437.615 2880.86,443.217 2872.68,441.938Z" style="fill:white;"/>
            <path d="M4455.71,674.355L2875,427.118" style="fill:none;stroke:white;stroke-width:5px;"/>
        </g>
    </g>
    <g transform="matrix(1.1543,0,0,1.1543,931.554,-110.883)">
        <g transform="matrix(0.866324,-0,-0,0.866324,-807.028,96.0607)">
            <path d="M4457.28,689.271C4465.52,688.4 4471.49,681.009 4470.62,672.777C4469.75,664.544 4462.36,658.567 4454.13,659.438C4445.9,660.309 4439.92,667.7 4440.79,675.932C4441.66,684.165 4449.05,690.142 4457.28,689.271Z" style="fill:white;"/>
            <path d="M2876.57,856.477C2868.34,857.348 2860.95,851.371 2860.08,843.138C2859.21,834.906 2865.19,827.515 2873.42,826.644C2881.65,825.773 2889.04,831.75 2889.91,839.983C2890.78,848.215 2884.81,855.606 2876.57,856.477Z" style="fill:white;"/>
            <path d="M4455.71,674.355L2875,841.56" style="fill:none;stroke:white;stroke-width:5px;"/>
        </g>
    </g>
    <g transform="matrix(1.1543,1.13399,0,1.1543,-483.837,-2527.1)">
        <rect x="2045.21" y="265.863" width="364.015" height="571.322" style="fill:rgb(165,165,165);stroke:white;stroke-width:4.41px;"/>
    </g>
    <g transform="matrix(1.1543,1.13399,0,1.1543,-63.6527,-1103.28)">
        <rect x="2045.21" y="265.863" width="364.015" height="571.322" style="fill:rgb(165,165,165);stroke:white;stroke-width:4.41px;"/>
    </g>
    <g transform="matrix(1.1543,-1.16609,0,1.1543,1347.37,2595.68)">
        <rect x="2045.21" y="265.863" width="364.015" height="571.322" style="fill:rgb(165,165,165);stroke:white;stroke-width:9.8px;"/>
    </g>
    <g transform="matrix(1.1543,-1.16609,0,1.1543,896.108,4025.35)">
        <rect x="2045.21" y="265.863" width="364.015" height="571.322" style="fill:rgb(165,165,165);stroke:white;stroke-width:9.8px;"/>
    </g>
    <g transform="matrix(0.590655,-0.0872428,-0.0872428,1.1408,2363.77,1492)">
        <g transform="matrix(1.71238,0.130954,0.130954,0.886593,-4243.05,-1632.34)">
            <path d="M4006.07,2114.65C4014.25,2115.92 4021.92,2110.3 4023.19,2102.12C4024.46,2093.94 4018.84,2086.27 4010.66,2085C4002.48,2083.74 3994.81,2089.35 3993.54,2097.53C3992.28,2105.71 3997.89,2113.38 4006.07,2114.65Z" style="fill:white;"/>
            <path d="M3449.15,2028.45C3440.97,2027.18 3435.36,2019.51 3436.62,2011.33C3437.89,2003.15 3445.56,1997.54 3453.74,1998.8C3461.92,2000.07 3467.53,2007.74 3466.27,2015.92C3465,2024.1 3457.33,2029.72 3449.15,2028.45Z" style="fill:white;"/>
            <path d="M4008.37,2099.83L3451.45,2013.62" style="fill:none;stroke:white;stroke-width:5px;"/>
        </g>
    </g>
    <g transform="matrix(0.584275,0.0637246,0.0637246,1.14718,2268.37,1050.02)">
        <g transform="matrix(1.72195,-0.0956528,-0.0956528,0.877017,-3805.6,-703.908)">
            <path d="M4010.03,2114.73C4018.26,2113.81 4024.19,2106.39 4023.27,2098.16C4022.35,2089.93 4014.93,2084 4006.7,2084.92C3998.47,2085.84 3992.54,2093.27 3993.46,2101.49C3994.38,2109.72 4001.81,2115.65 4010.03,2114.73Z" style="fill:white;"/>
            <path d="M3453.11,2176.99C3444.88,2177.91 3437.46,2171.98 3436.54,2163.75C3435.62,2155.53 3441.55,2148.1 3449.78,2147.18C3458.01,2146.26 3465.43,2152.19 3466.35,2160.42C3467.27,2168.65 3461.34,2176.07 3453.11,2176.99Z" style="fill:white;"/>
            <path d="M4008.37,2099.83L3451.45,2162.09" style="fill:none;stroke:white;stroke-width:5px;"/>
        </g>
    </g>
    <g transform="matrix(0.710346,0.0819677,0.0819677,1.13917,418.402,1069.75)">
        <g transform="matrix(1.41955,-0.102142,-0.102142,0.885182,-484.676,-904.19)">
            <path d="M2525.86,2010.74C2534,2009.24 2539.39,2001.41 2537.89,1993.27C2536.39,1985.13 2528.56,1979.74 2520.42,1981.24C2512.28,1982.74 2506.89,1990.57 2508.39,1998.72C2509.89,2006.86 2517.72,2012.25 2525.86,2010.74Z" style="fill:white;"/>
            <path d="M1963.47,2114.58C1955.33,2116.08 1947.5,2110.69 1945.99,2102.55C1944.49,2094.41 1949.88,2086.58 1958.02,2085.08C1966.16,2083.57 1973.99,2088.96 1975.5,2097.1C1977,2105.24 1971.61,2113.07 1963.47,2114.58Z" style="fill:white;"/>
            <path d="M2523.14,1995.99L1960.75,2099.83" style="fill:none;stroke:white;stroke-width:5px;"/>
        </g>
    </g>
    <g transform="matrix(0.703233,-0.0601499,-0.0601499,1.14628,540.421,1360.59)">
        <g transform="matrix(1.42842,0.0749546,0.0749546,0.876319,-873.928,-1232.82)">
            <path d="M2521.16,2189.69C2529.36,2190.78 2536.91,2185.01 2538.01,2176.8C2539.1,2168.6 2533.33,2161.05 2525.12,2159.95C2516.92,2158.86 2509.37,2164.63 2508.27,2172.84C2507.18,2181.05 2512.95,2188.6 2521.16,2189.69Z" style="fill:white;"/>
            <path d="M1958.76,2114.7C1950.56,2113.6 1944.78,2106.05 1945.88,2097.84C1946.97,2089.64 1954.52,2083.86 1962.73,2084.96C1970.93,2086.05 1976.71,2093.6 1975.61,2101.81C1974.52,2110.02 1966.97,2115.79 1958.76,2114.7Z" style="fill:white;"/>
            <path d="M2523.14,2174.82L1960.75,2099.83" style="fill:none;stroke:white;stroke-width:5px;"/>
        </g>
    </g>
    <g transform="matrix(0.420731,-0.114737,-0.114737,1.13636,3249.24,251.623)">
        <g transform="matrix(2.44411,0.246779,0.246779,0.904922,-8003.6,-1029.54)">
            <path d="M4453.39,689.174C4461.57,690.454 4469.25,684.852 4470.53,676.672C4471.81,668.493 4466.2,660.814 4458.03,659.535C4449.85,658.255 4442.17,663.857 4440.89,672.037C4439.61,680.216 4445.21,687.895 4453.39,689.174Z" style="fill:white;"/>
            <path d="M3901.81,602.903C3893.63,601.624 3888.03,593.944 3889.31,585.765C3890.59,577.586 3898.27,571.984 3906.45,573.263C3914.63,574.543 3920.23,582.222 3918.95,590.401C3917.67,598.58 3909.99,604.182 3901.81,602.903Z" style="fill:white;"/>
            <path d="M4455.71,674.355L3904.13,588.083" style="fill:none;stroke:white;stroke-width:5px;"/>
        </g>
    </g>
    <g transform="matrix(0.411102,0.0786151,0.0786151,1.14599,3147.11,-345.243)">
        <g transform="matrix(2.46482,-0.169088,-0.169088,0.88421,-7815.45,837.405)">
            <path d="M4457.28,689.271C4465.52,688.4 4471.49,681.009 4470.62,672.777C4469.75,664.544 4462.36,658.567 4454.13,659.438C4445.9,660.309 4439.92,667.7 4440.79,675.932C4441.66,684.165 4449.05,690.142 4457.28,689.271Z" style="fill:white;"/>
            <path d="M3905.71,747.617C3897.47,748.487 3890.08,742.511 3889.21,734.278C3888.34,726.045 3894.32,718.654 3902.55,717.783C3910.78,716.912 3918.18,722.889 3919.05,731.122C3919.92,739.355 3913.94,746.746 3905.71,747.617Z" style="fill:white;"/>
            <path d="M4455.71,674.355L3904.13,732.7" style="fill:none;stroke:white;stroke-width:5px;"/>
        </g>
    </g>
    <g transform="matrix(0.481426,-0.0845486,-0.0845486,1.14368,763.039,-51.1828)">
        <g transform="matrix(2.10449,0.155578,0.155578,0.885873,-1597.84,-73.3707)">
            <path d="M2084.88,759.732C2094.37,760.923 2103.03,754.193 2104.22,744.711C2105.41,735.229 2098.68,726.564 2089.2,725.373C2079.72,724.181 2071.05,730.912 2069.86,740.394C2068.67,749.875 2075.4,758.54 2084.88,759.732Z" style="fill:white;"/>
            <path d="M1542.13,691.534C1532.65,690.343 1525.92,681.677 1527.11,672.196C1528.31,662.714 1536.97,655.984 1546.45,657.175C1555.93,658.366 1562.66,667.032 1561.47,676.513C1560.28,685.995 1551.62,692.725 1542.13,691.534Z" style="fill:white;"/>
            <path d="M2087.04,742.552L1544.29,674.355" style="fill:none;stroke:white;stroke-width:5.77px;"/>
        </g>
    </g>
    <g transform="matrix(0.493609,0.122753,0.122753,1.1315,583.197,-406.104)">
        <g transform="matrix(2.08207,-0.225878,-0.225878,0.908291,-1305.99,500.591)">
            <path d="M2090.21,590.538C2099.6,588.793 2105.81,579.747 2104.07,570.352C2102.32,560.957 2093.28,554.746 2083.88,556.492C2074.49,558.237 2068.27,567.282 2070.02,576.678C2071.76,586.073 2080.81,592.284 2090.21,590.538Z" style="fill:white;"/>
            <path d="M1547.46,691.378C1538.06,693.123 1529.02,686.913 1527.27,677.517C1525.52,668.122 1531.74,659.077 1541.13,657.331C1550.53,655.586 1559.57,661.796 1561.32,671.192C1563.06,680.587 1556.85,689.632 1547.46,691.378Z" style="fill:white;"/>
            <path d="M2087.04,573.515L1544.29,674.355" style="fill:none;stroke:white;stroke-width:5.77px;"/>
        </g>
    </g>
    <g transform="matrix(1.1543,0,0,1.1543,-483.837,-207.856)">
        <g transform="matrix(0.866324,-0,-0,0.866324,419.159,180.07)">
            <path d="M3196,1580.99L3158.41,1646.92L3148.93,1571.62L3196,1580.99Z" style="fill:white;"/>
            <path d="M3158.41,996.819C3204.17,1196.07 3205.27,1393.85 3169.65,1590.42" style="fill:none;stroke:white;stroke-width:8px;"/>
        </g>
    </g>
</svg>
