<?xml version="1.0" encoding="UTF-8" standalone="no"?>
<!DOCTYPE svg PUBLIC "-//W3C//DTD SVG 1.1//EN" "http://www.w3.org/Graphics/SVG/1.1/DTD/svg11.dtd">
<svg width="100%" height="100%" viewBox="0 0 6000 2700" version="1.1" xmlns="http://www.w3.org/2000/svg" xmlns:xlink="http://www.w3.org/1999/xlink" xml:space="preserve" xmlns:serif="http://www.serif.com/" style="fill-rule:evenodd;clip-rule:evenodd;stroke-linejoin:round;stroke-miterlimit:10;">
    <g transform="matrix(8.33333,0,0,8.33333,-1333.62,-1532.43)">
        <path d="M244.71,394.71L452.417,272.73L692.73,394.71L244.71,394.71Z" style="fill:rgb(250,250,250);fill-opacity:0.5;stroke:black;stroke-width:0.78px;"/>
    </g>
    <g transform="matrix(-8.05999,-2.11682,-2.11682,8.05999,899.997,940.874)">
        <path d="M-104.962,85.207L-7.816,85.207L11.002,13.553L-86.144,13.553L-104.962,85.207Z" style="fill:none;fill-rule:nonzero;stroke:black;stroke-width:1.74px;stroke-linejoin:miter;stroke-miterlimit:8;"/>
    </g>
    <g transform="matrix(8.06001,-2.11676,-2.11676,-8.06001,3707,1932.84)">
        <path d="M-11.001,13.561L86.207,13.561L105.021,85.199L7.813,85.199L-11.001,13.561Z" style="fill:none;fill-rule:nonzero;stroke:black;stroke-width:1.74px;stroke-linejoin:miter;stroke-miterlimit:8;"/>
    </g>
    <g transform="matrix(8.21006,1.42805,1.42805,-8.21006,698.804,1730.29)">
        <g transform="matrix(0.118225,0.0205639,0.0205639,-0.118225,-118.198,190.193)">
            <path d="M1057.26,1799.05L1139.3,1846.68L1045.08,1857.8L1057.26,1799.05Z" style="fill:rgb(0,0,255);fill-rule:nonzero;"/>
            <path d="M705.627,1756.83C705.627,1756.83 945.952,1806.62 1068.8,1832.07" style="fill:none;fill-rule:nonzero;stroke:rgb(0,0,255);stroke-width:20px;"/>
        </g>
    </g>
    <g transform="matrix(4.19063,7.20299,7.20299,-4.19063,889.118,1771.42)">
        <g transform="matrix(0.060345,0.103723,0.103723,-0.060345,-237.391,14.6742)">
            <path d="M876.8,2027.21L890.86,2121.03L823.32,2054.41L876.8,2027.21Z" style="fill:rgb(0,0,255);fill-rule:nonzero;"/>
            <path d="M705.627,1756.83C705.627,1756.83 805.056,1952.32 858.22,2056.85" style="fill:none;fill-rule:nonzero;stroke:rgb(0,0,255);stroke-width:20px;"/>
        </g>
    </g>
    <g transform="matrix(1.67687,-10.1817,-8.19846,-1.51995,876.32,1638.2)">
        <g transform="matrix(0.017669,-0.11836,-0.0953051,-0.0194932,140.645,135.655)">
            <path d="M713.366,1456.01L754.402,1370.48L772.893,1463.53L713.366,1456.01Z" style="fill:rgb(0,0,255);fill-rule:nonzero;"/>
            <path d="M705.627,1756.83C705.627,1756.83 731.287,1553.57 745.384,1441.91" style="fill:none;fill-rule:nonzero;stroke:rgb(0,0,255);stroke-width:20px;"/>
        </g>
    </g>
    <g transform="matrix(8.26613,-1.05616,-1.05616,-8.26613,4461.99,1795.14)">
        <g transform="matrix(0.119032,-0.0152087,-0.0152087,-0.119032,-503.819,281.54)">
            <path d="M4817.45,1688.28L4910.1,1708.67L4823.75,1747.94L4817.45,1688.28Z" style="fill:rgb(0,0,255);fill-rule:nonzero;"/>
            <path d="M4453.63,1756.83C4453.63,1756.83 4710.03,1729.78 4838.5,1716.22" style="fill:none;fill-rule:nonzero;stroke:rgb(0,0,255);stroke-width:20px;"/>
        </g>
    </g>
    <g transform="matrix(6.12819,5.6471,5.6471,-6.12819,4588.86,1706.43)">
        <g transform="matrix(0.0882459,0.0813183,0.0813183,-0.0882459,-543.712,-222.573)">
            <path d="M4709.35,1960.16L4753.61,2044.07L4667.85,2003.49L4709.35,1960.16Z" style="fill:rgb(0,0,255);fill-rule:nonzero;"/>
            <path d="M4453.63,1756.83C4453.63,1756.83 4615.72,1912.04 4701.6,1994.27" style="fill:none;fill-rule:nonzero;stroke:rgb(0,0,255);stroke-width:20px;"/>
        </g>
    </g>
    <g transform="matrix(-1.21215,-9.53647,-8.26534,1.06262,4593.56,1537.6)">
        <g transform="matrix(-0.0132645,-0.119042,-0.103175,0.0151311,219.572,523.56)">
            <path d="M4390.11,1485.52L4408.93,1392.53L4449.67,1478.21L4390.11,1485.52Z" style="fill:rgb(0,0,255);fill-rule:nonzero;"/>
            <path d="M4453.63,1756.83C4453.63,1756.83 4430.72,1570.08 4417.7,1464" style="fill:none;fill-rule:nonzero;stroke:rgb(0,0,255);stroke-width:20px;"/>
        </g>
    </g>
    <g transform="matrix(1,0,0,1,-8.49104,7.94055)">
        <g transform="matrix(1,-0,-0,1,8.49104,-7.94055)">
            <path d="M885.034,1783.83L804.034,1756.83L885.034,1729.83L885.034,1783.83Z" style="fill:rgb(0,165,0);"/>
            <path d="M4453.63,1756.83L868.834,1756.83" style="fill:none;stroke:rgb(0,165,0);stroke-width:18px;stroke-miterlimit:1.5;"/>
        </g>
    </g>
    <g transform="matrix(-8.11966,5.29788e-16,4.97186e-16,8.65209,6107.84,-2665.66)">
        <path d="M451.86,388.17C448.629,388.17 446.01,390.628 446.01,393.66C446.01,396.692 448.629,399.15 451.86,399.15C455.091,399.15 457.71,396.692 457.71,393.66C457.71,390.628 455.091,388.17 451.86,388.17"/>
    </g>
    <g transform="matrix(0,8.33333,8.33333,0,-1312.37,-1273.18)">
        <path d="M319.44,313.14C317.286,313.14 315.54,314.819 315.54,316.89C315.54,318.961 317.286,320.64 319.44,320.64C321.594,320.64 323.34,318.961 323.34,316.89C323.34,314.819 321.594,313.14 319.44,313.14" style="fill:rgb(33,117,217);"/>
    </g>
    <g transform="matrix(7.28293,-4.0501,-4.0501,-7.28293,825.054,1860.96)">
        <g transform="matrix(0.104874,-0.0583214,-0.0583214,-0.104874,22.0068,243.285)">
            <path d="M1152.58,1459.99L1245.39,1440.35L1182.93,1511.75L1152.58,1459.99Z" style="fill:rgb(255,0,0);fill-rule:nonzero;"/>
            <path d="M705.627,1756.83C705.627,1756.83 1041.39,1559.96 1183.28,1476.77" style="fill:none;fill-rule:nonzero;stroke:rgb(255,0,0);stroke-width:20px;"/>
        </g>
    </g>
    <g transform="matrix(8.33333,0,0,8.33333,-1465.27,-423.798)">
        <text x="419.147px" y="226.702px" style="font-family:'ArialMT', 'Arial', sans-serif;font-size:18px;">Epipolar Plane</text>
        <text x="448.683px" y="248.302px" style="font-family:'ArialMT', 'Arial', sans-serif;font-size:18px;">Normal</text>
    </g>
    <g transform="matrix(8.33333,0,0,8.33333,-1338.18,-493.682)">
        <text x="457.305px" y="297.576px" style="font-family:'TimesNewRomanPS-BoldItalicMT', 'Times New Roman', serif;font-weight:700;font-style:italic;font-size:21.6px;fill:rgb(0,165,0);">T</text>
    </g>
    <g transform="matrix(-7.41057,-3.81154,-3.81154,7.41057,3965.3,1334.08)">
        <g transform="matrix(-0.106712,-0.0548862,-0.0548862,0.106712,496.368,75.2775)">
            <path d="M3973.18,1552.85L3905.78,1486.08L3999.76,1499.06L3973.18,1552.85Z" style="fill:rgb(255,0,0);fill-rule:nonzero;"/>
            <path d="M4453.63,1756.83C4453.63,1756.83 4115.2,1589.57 3970.33,1517.98" style="fill:none;fill-rule:nonzero;stroke:rgb(255,0,0);stroke-width:20px;"/>
        </g>
    </g>
    <g transform="matrix(0,8.33333,8.33333,0,1219.13,-3701.68)">
        <path d="M617.04,306.96C614.886,306.96 613.14,308.639 613.14,310.71C613.14,312.781 614.886,314.46 617.04,314.46C619.194,314.46 620.94,312.781 620.94,310.71C620.94,308.639 619.194,306.96 617.04,306.96" style="fill:rgb(33,117,217);"/>
    </g>
    <g transform="matrix(-8.26972,5.3068e-16,5.06374e-16,8.66667,10189.3,-597.995)">
        <path d="M693.57,267.96C691.4,267.96 689.64,269.639 689.64,271.71C689.64,273.781 691.4,275.46 693.57,275.46C695.74,275.46 697.5,273.781 697.5,271.71C697.5,269.639 695.74,267.96 693.57,267.96"/>
    </g>
    <g transform="matrix(-8.26972,5.3068e-16,5.06374e-16,8.66667,2713.43,-597.995)">
        <path d="M242.79,267.96C240.62,267.96 238.86,269.639 238.86,271.71C238.86,273.781 240.62,275.46 242.79,275.46C244.96,275.46 246.72,273.781 246.72,271.71C246.72,269.639 244.96,267.96 242.79,267.96"/>
    </g>
    <g transform="matrix(7.28586,-4.04483,-4.04483,-7.28586,4566.28,1903.52)">
        <g transform="matrix(0.104916,-0.0582456,-0.0582456,-0.104916,-368.206,465.677)">
            <path d="M4930.96,1481.45L5024.8,1467.55L4958.07,1534.98L4930.96,1481.45Z" style="fill-rule:nonzero;"/>
            <path d="M4453.63,1756.83C4453.63,1756.83 4811.3,1575.68 4960.57,1500.08" style="fill:none;fill-rule:nonzero;stroke:black;stroke-width:20px;stroke-dasharray:40,20,0,0;"/>
        </g>
    </g>
    <g transform="matrix(0,-8.33333,-8.33333,0,3353.27,1350.26)">
        <g transform="matrix(-0,-0.12,-0.12,-0,162.031,402.393)">
            <path d="M3183.66,1295.53L3212.38,1209.36L3241.1,1295.53L3183.66,1295.53Z" style="fill-rule:nonzero;"/>
            <path d="M3212.38,1491.15L3212.38,1278.3" style="fill:none;fill-rule:nonzero;stroke:black;stroke-width:15px;stroke-linejoin:miter;stroke-miterlimit:8;"/>
        </g>
    </g>
    <g transform="matrix(3.08885,-5.10269e-16,-1.89138e-16,-8.33333,3327.04,1445.16)">
        <g transform="matrix(0.323745,-1.98236e-17,-7.34788e-18,-0.12,-1077.11,173.42)">
            <path d="M3350.54,1294.69L3379.26,1304.27L3350.54,1313.84L3350.54,1294.69Z" style="fill-rule:nonzero;"/>
            <path d="M3274.82,1304.27L3356.29,1304.27" style="fill:none;fill-rule:nonzero;stroke:black;stroke-width:5px;stroke-linejoin:miter;stroke-miterlimit:8;"/>
        </g>
    </g>
    <g transform="matrix(8.33333,0,0,8.33333,-1333.62,-470.425)">
        <text x="213.04px" y="281.557px" style="font-family:'TimesNewRomanPS-BoldItalicMT', 'Times New Roman', serif;font-weight:700;font-style:italic;font-size:21.6px;">C</text>
        <text x="227.469px" y="288.75px" style="font-family:'TimesNewRomanPS-BoldItalicMT', 'Times New Roman', serif;font-weight:700;font-style:italic;font-size:12.593px;">1</text>
    </g>
    <g transform="matrix(8.33333,0,0,8.33333,760.186,-1645.43)">
        <text x="210.337px" y="281.557px" style="font-family:'TimesNewRomanPS-BoldItalicMT', 'Times New Roman', serif;font-weight:700;font-style:italic;font-size:21.6px;">P</text>
    </g>
    <g transform="matrix(8.33333,0,0,8.33333,1496.28,-940.732)">
        <text x="212.289px" y="281.557px" style="font-family:'TimesNewRomanPS-BoldItalicMT', 'Times New Roman', serif;font-weight:700;font-style:italic;font-size:21.6px;">n</text>
    </g>
    <g transform="matrix(8.33333,0,0,8.33333,-611.816,-1048.74)">
        <text x="210.632px" y="281.557px" style="font-family:'TimesNewRomanPS-BoldItalicMT', 'Times New Roman', serif;font-weight:700;font-style:italic;font-size:21.6px;">p</text>
        <text x="221.454px" y="288.75px" style="font-family:'TimesNewRomanPS-BoldItalicMT', 'Times New Roman', serif;font-weight:700;font-style:italic;font-size:12.593px;">1</text>
    </g>
    <g transform="matrix(8.33333,0,0,8.33333,3160.44,-965.995)">
        <text x="210.632px" y="281.557px" style="font-family:'TimesNewRomanPS-BoldItalicMT', 'Times New Roman', serif;font-weight:700;font-style:italic;font-size:21.6px;">p</text>
        <text x="221.454px" y="288.75px" style="font-family:'TimesNewRomanPS-BoldItalicMT', 'Times New Roman', serif;font-weight:700;font-style:italic;font-size:12.593px;">1</text>
        <text x="233.185px" y="281.557px" style="font-family:'TimesNewRomanPS-BoldItalicMT', 'Times New Roman', serif;font-weight:700;font-style:italic;font-size:21.6px;">= Rp</text>
        <text x="276.187px" y="288.75px" style="font-family:'TimesNewRomanPS-BoldItalicMT', 'Times New Roman', serif;font-weight:700;font-style:italic;font-size:12.593px;">1</text>
    </g>
    <g transform="matrix(8.33333,0,0,8.33333,3235.98,-954.11)">
        <text x="210.632px" y="281.557px" style="font-family:'TimesNewRomanPS-BoldItalicMT', 'Times New Roman', serif;font-weight:700;font-style:italic;font-size:21.6px;">&apos;</text>
    </g>
    <g transform="matrix(8.33333,0,0,8.33333,2112.11,-968.053)">
        <text x="210.632px" y="281.557px" style="font-family:'TimesNewRomanPS-BoldItalicMT', 'Times New Roman', serif;font-weight:700;font-style:italic;font-size:21.6px;">p</text>
        <text x="221.454px" y="288.75px" style="font-family:'TimesNewRomanPS-BoldItalicMT', 'Times New Roman', serif;font-weight:700;font-style:italic;font-size:12.593px;">2</text>
    </g>
    <g transform="matrix(1,0,0,1,186.979,-73.2404)">
        <path d="M956.474,1265.27L1042.9,1265.27" style="fill:none;stroke:black;stroke-width:5px;stroke-miterlimit:1.5;"/>
    </g>
    <g transform="matrix(1,0,0,1,3964.24,9.50396)">
        <path d="M956.474,1265.27L1042.9,1265.27" style="fill:none;stroke:black;stroke-width:5px;stroke-miterlimit:1.5;"/>
    </g>
    <g transform="matrix(1,0,0,1,4426.65,9.50396)">
        <path d="M956.474,1265.27L1042.9,1265.27" style="fill:none;stroke:black;stroke-width:5px;stroke-miterlimit:1.5;"/>
    </g>
    <g transform="matrix(1,0,0,1,2910.91,7.44603)">
        <path d="M956.474,1265.27L1042.9,1265.27" style="fill:none;stroke:black;stroke-width:5px;stroke-miterlimit:1.5;"/>
    </g>
    <g transform="matrix(8.33333,0,0,8.33333,2485.53,-412.773)">
        <text x="213.04px" y="281.557px" style="font-family:'TimesNewRomanPS-BoldItalicMT', 'Times New Roman', serif;font-weight:700;font-style:italic;font-size:21.6px;">C</text>
        <text x="227.469px" y="288.75px" style="font-family:'TimesNewRomanPS-BoldItalicMT', 'Times New Roman', serif;font-weight:700;font-style:italic;font-size:12.593px;">2</text>
    </g>
</svg>
