<?xml version="1.0" encoding="UTF-8" standalone="no"?>
<!DOCTYPE svg PUBLIC "-//W3C//DTD SVG 1.1//EN" "http://www.w3.org/Graphics/SVG/1.1/DTD/svg11.dtd">
<svg width="100%" height="100%" viewBox="0 0 5500 2120" version="1.1" xmlns="http://www.w3.org/2000/svg" xmlns:xlink="http://www.w3.org/1999/xlink" xml:space="preserve" xmlns:serif="http://www.serif.com/" style="fill-rule:evenodd;clip-rule:evenodd;stroke-linejoin:round;stroke-miterlimit:10;">
    <g transform="matrix(8.33333,0,0,8.33333,-2958.94,-100.525)">
        <path d="M475.95,239.13L629.486,44.4L893.94,239.13L475.95,239.13Z" style="fill:rgb(217,217,217);"/>
    </g>
    <g transform="matrix(6.43137,5.29924,5.29924,-6.43137,2664.94,-165.552)">
        <g transform="matrix(0.0926117,0.076309,0.076309,-0.0926117,-234.172,-218.691)">
            <path d="M2358.49,70.036L2294.89,54.77L2320.84,114.808C2319.06,94.202 2337.89,71.816 2358.49,70.036Z" style="fill-rule:nonzero;"/>
            <path d="M2330.71,84.891C2549.39,268.797 3695.31,1232.48 3695.31,1232.48" style="fill:none;fill-rule:nonzero;stroke:black;stroke-width:6.5px;"/>
        </g>
    </g>
    <g transform="matrix(5.88915,-5.89596,-5.89596,-5.88915,2344.16,874.371)">
        <path d="M-73.358,25.116L62.598,25.95" style="fill:none;fill-rule:nonzero;stroke:black;stroke-width:0.78px;"/>
    </g>
    <g transform="matrix(-8.09944,1.96049,1.96049,8.09944,10257.8,-1671.57)">
        <path d="M734.019,90.378L883.535,90.378L908.361,192.942L758.845,192.942L734.019,90.378Z" style="fill:white;stroke:black;stroke-width:0.78px;stroke-linejoin:miter;stroke-miterlimit:8;"/>
    </g>
    <g transform="matrix(8.09944,1.96049,1.96049,-8.09944,-3098.7,1149.63)">
        <path d="M465.999,188.562L615.515,188.562L640.341,85.998L490.824,85.998L465.999,188.562Z" style="fill:white;stroke:black;stroke-width:0.78px;stroke-linejoin:miter;stroke-miterlimit:8;"/>
    </g>
    <g transform="matrix(5.84414,-5.94058,-5.94058,-5.84414,1394.39,2083.97)">
        <path d="M-16.173,49.25L110.237,46.221" style="fill:none;fill-rule:nonzero;stroke:black;stroke-width:0.78px;"/>
    </g>
    <g transform="matrix(0,-8.33333,-8.33333,0,4626.25,1756.53)">
        <g transform="matrix(-0,-0.12,-0.12,-0,210.783,555.15)">
            <path d="M4443.31,1715.33L4490.56,1620.83L4537.81,1715.33L4443.31,1715.33Z" style="fill-rule:nonzero;"/>
            <path d="M4490.56,1892.23L4490.56,1696.43" style="fill:none;fill-rule:nonzero;stroke:black;stroke-width:31.5px;stroke-linejoin:miter;stroke-miterlimit:8;"/>
        </g>
    </g>
    <g transform="matrix(8.33333,0,0,8.33333,1007.06,1900.22)">
        <path d="M0.03,-0.96L418.02,-0.96" style="fill:none;fill-rule:nonzero;stroke:black;stroke-width:0.48px;stroke-linejoin:miter;stroke-miterlimit:8;"/>
    </g>
    <g transform="matrix(-8.6758,5.13649e-16,5.31239e-16,8.38852,6681.15,44.3918)">
        <path d="M566.76,128.34C564.341,128.34 562.38,130.368 562.38,132.87C562.38,135.372 564.341,137.4 566.76,137.4C569.179,137.4 571.14,135.372 571.14,132.87C571.14,130.368 569.179,128.34 566.76,128.34" style="fill:rgb(91,155,213);stroke:black;stroke-width:0.53px;stroke-miterlimit:2;"/>
    </g>
    <g transform="matrix(-8.61678,5.10269e-16,5.27626e-16,8.33333,5108.46,1554.72)">
        <path d="M475.95,35.94C473.514,35.94 471.54,37.982 471.54,40.5C471.54,43.018 473.514,45.06 475.95,45.06C478.386,45.06 480.36,43.018 480.36,40.5C480.36,37.982 478.386,35.94 475.95,35.94" style="fill:rgb(91,155,213);stroke:black;stroke-width:0.53px;stroke-miterlimit:2;"/>
    </g>
    <g transform="matrix(-8.55856,5.10269e-16,5.24061e-16,8.33333,10529.4,198.725)">
        <path d="M798.51,119.49C796.058,119.49 794.07,121.532 794.07,124.05C794.07,126.568 796.058,128.61 798.51,128.61C800.962,128.61 802.95,126.568 802.95,124.05C802.95,121.532 800.962,119.49 798.51,119.49" style="fill:rgb(91,155,213);stroke:black;stroke-width:0.53px;stroke-miterlimit:2;"/>
    </g>
    <g transform="matrix(6.41573,5.31816,5.31816,-6.41573,4034.17,1118.94)">
        <g transform="matrix(0.0923865,0.0765815,0.0765815,-0.0923865,-458.393,-205.568)">
            <path d="M3798.2,1256.45L3695.31,1232.48L3737.87,1329.18L3798.2,1256.45Z" style="fill-rule:nonzero;"/>
            <path d="M3753.49,1280.75C3936.85,1432.86 4490.56,1892.23 4490.56,1892.23" style="fill:none;fill-rule:nonzero;stroke:black;stroke-width:31.5px;"/>
        </g>
    </g>
    <g transform="matrix(0,8.33333,8.33333,0,4116.56,-5557.28)">
        <path d="M893.94,40.35C891.504,40.35 889.53,42.378 889.53,44.88C889.53,47.382 891.504,49.41 893.94,49.41C896.376,49.41 898.35,47.382 898.35,44.88C898.35,42.378 896.376,40.35 893.94,40.35" style="fill:rgb(91,155,213);stroke:black;stroke-width:0.54px;stroke-miterlimit:2;"/>
    </g>
    <g transform="matrix(-1.7545,1.85094,-5.94283,-5.84165,2896.92,314.139)">
        <g transform="matrix(-0.274914,-0.0871073,0.279675,-0.0825685,708.548,278.281)">
            <path d="M2856.1,93.821L2876.37,31.635L2814.46,52.734C2835.14,52.595 2855.96,73.139 2856.1,93.821Z" style="fill-rule:nonzero;"/>
            <path d="M2843.5,64.949C2777.02,132.323 2632.88,278.413 2632.88,278.413" style="fill:none;fill-rule:nonzero;stroke:black;stroke-width:6.5px;"/>
        </g>
    </g>
    <g transform="matrix(1.43765,0,0,1.43765,1459.54,-398.427)">
        <text x="251.491px" y="1157.74px" style="font-family:'Times-BoldItalic', 'Times';font-weight:700;font-style:italic;font-size:108.048px;">p</text>
        <text x="305.515px" y="1193.72px" style="font-family:'Times-BoldItalic', 'Times';font-weight:700;font-style:italic;font-size:62.992px;">1</text>
    </g>
    <g transform="matrix(1.16014,0,0,1.16014,2423.8,17.608)">
        <text x="-26.093px" y="1157.74px" style="font-family:'SFProDisplay-Regular', 'SF Pro Display';font-size:108.048px;">Epipolar Plane</text>
    </g>
    <g transform="matrix(1.43765,0,0,1.43765,3400.97,-521.678)">
        <text x="251.491px" y="1157.74px" style="font-family:'Times-BoldItalic', 'Times';font-weight:700;font-style:italic;font-size:108.048px;">p</text>
        <text x="305.515px" y="1193.72px" style="font-family:'Times-BoldItalic', 'Times';font-weight:700;font-style:italic;font-size:62.992px;">2</text>
    </g>
    <g transform="matrix(1.43765,0,0,1.43765,4176.38,372.213)">
        <text x="242.47px" y="1157.74px" style="font-family:'Times-BoldItalic', 'Times';font-weight:700;font-style:italic;font-size:108.048px;">C</text>
        <text x="314.537px" y="1193.72px" style="font-family:'Times-BoldItalic', 'Times';font-weight:700;font-style:italic;font-size:62.992px;">2</text>
    </g>
    <g transform="matrix(1.43765,0,0,1.43765,479.172,372.213)">
        <text x="242.47px" y="1157.74px" style="font-family:'Times-BoldItalic', 'Times';font-weight:700;font-style:italic;font-size:108.048px;">C</text>
        <text x="314.537px" y="1193.72px" style="font-family:'Times-BoldItalic', 'Times';font-weight:700;font-style:italic;font-size:62.992px;">1</text>
    </g>
</svg>
