<?xml version="1.0" encoding="UTF-8" standalone="no"?>
<!DOCTYPE svg PUBLIC "-//W3C//DTD SVG 1.1//EN" "http://www.w3.org/Graphics/SVG/1.1/DTD/svg11.dtd">
<svg width="100%" height="100%" viewBox="0 0 600 245" version="1.1" xmlns="http://www.w3.org/2000/svg" xmlns:xlink="http://www.w3.org/1999/xlink" xml:space="preserve" xmlns:serif="http://www.serif.com/" style="fill-rule:evenodd;clip-rule:evenodd;stroke-miterlimit:10;">
    <g transform="matrix(0,0.670521,0.670521,0,145.673,-210.856)">
        <path d="M497.16,-76.08C403.25,-76.08 327.12,61.03 327.12,230.16C327.12,399.29 403.25,536.4 497.16,536.4C591.07,536.4 667.2,399.29 667.2,230.16C667.2,61.03 591.07,-76.08 497.16,-76.08Z" style="fill:rgb(91,155,213);fill-opacity:0.23;stroke:black;stroke-width:1.2px;"/>
    </g>
    <g transform="matrix(0,0.670521,0.670521,0,185.341,-250.524)">
        <path d="M556.32,6.6C497,6.6 448.92,106.69 448.92,230.16C448.92,353.63 497,453.72 556.32,453.72C615.64,453.72 663.72,353.63 663.72,230.16C663.72,106.69 615.64,6.6 556.32,6.6Z" style="fill:rgb(91,155,213);fill-opacity:0.38;stroke:black;stroke-width:1.2px;"/>
    </g>
    <g transform="matrix(0,0.670521,0.670521,0,225.814,-286.894)">
        <ellipse cx="610.56" cy="224.04" rx="84.48" ry="153" style="fill:rgb(91,155,213);fill-opacity:0.61;stroke:black;stroke-width:1.2px;"/>
    </g>
    <g transform="matrix(8.33333,0,0,8.33333,-1759.06,-2352.5)">
        <text x="226.877px" y="297.515px" style="font-family:'Arial-BoldMT', 'Arial', sans-serif;font-weight:700;font-size:1.44px;fill:white;">SFM</text>
    </g>
    <g transform="matrix(8.33333,0,0,8.33333,-2905.07,-2352.5)">
        <text x="374.472px" y="297.515px" style="font-family:'Arial-BoldMT', 'Arial', sans-serif;font-weight:700;font-size:1.44px;fill:white;">VSLAM</text>
    </g>
    <g transform="matrix(8.33333,0,0,8.33333,-4596.55,-2352.5)">
        <text x="595.67px" y="297.515px" style="font-family:'Arial-BoldMT', 'Arial', sans-serif;font-weight:700;font-size:1.44px;fill:white;">VO</text>
    </g>
</svg>
