<?xml version="1.0" encoding="UTF-8" standalone="no"?>
<!DOCTYPE svg PUBLIC "-//W3C//DTD SVG 1.1//EN" "http://www.w3.org/Graphics/SVG/1.1/DTD/svg11.dtd">
<svg width="100%" height="100%" viewBox="0 0 2200 1001" version="1.1" xmlns="http://www.w3.org/2000/svg" xmlns:xlink="http://www.w3.org/1999/xlink" xml:space="preserve" xmlns:serif="http://www.serif.com/" style="fill-rule:evenodd;clip-rule:evenodd;stroke-linecap:round;stroke-miterlimit:8;">
    <g id="Points" transform="matrix(1,0,0,1,599.5,0)">
        <g transform="matrix(1.08087,0,0,1.08087,-10.5851,-28.5086)">
            <circle cx="122.564" cy="345.998" r="7.008" style="fill:rgb(30,30,30);"/>
        </g>
        <g transform="matrix(1.08087,0,0,1.08087,16.8605,34.0713)">
            <circle cx="122.564" cy="345.998" r="7.008" style="fill:rgb(30,30,30);"/>
        </g>
        <g transform="matrix(1.08087,0,0,1.08087,53.9461,55.5913)">
            <circle cx="122.564" cy="345.998" r="7.008" style="fill:rgb(30,30,30);"/>
        </g>
        <g transform="matrix(1.08087,0,0,1.08087,93.0206,64.4112)">
            <circle cx="122.564" cy="345.998" r="7.008" style="fill:rgb(30,30,30);"/>
        </g>
        <g transform="matrix(1.08087,0,0,1.08087,94.1371,103.894)">
            <circle cx="122.564" cy="345.998" r="7.008" style="fill:rgb(30,30,30);"/>
        </g>
        <g transform="matrix(1.08087,0,0,1.08087,-61.8432,152.721)">
            <circle cx="122.564" cy="345.998" r="7.008" style="fill:rgb(30,30,30);"/>
        </g>
        <g transform="matrix(1.08087,0,0,1.08087,4.43827,183.256)">
            <circle cx="122.564" cy="345.998" r="7.008" style="fill:rgb(30,30,30);"/>
        </g>
        <g transform="matrix(1.08087,0,0,1.08087,67.8834,246.558)">
            <circle cx="122.564" cy="345.998" r="7.008" style="fill:rgb(30,30,30);"/>
        </g>
        <g transform="matrix(1.08087,0,0,1.08087,43.1622,288.999)">
            <circle cx="122.564" cy="345.998" r="7.008" style="fill:rgb(30,30,30);"/>
        </g>
        <g transform="matrix(1.08087,0,0,1.08087,150.89,321.859)">
            <circle cx="122.564" cy="345.998" r="7.008" style="fill:rgb(30,30,30);"/>
        </g>
        <g transform="matrix(1.08087,0,0,1.08087,120.009,349.404)">
            <circle cx="122.564" cy="345.998" r="7.008" style="fill:rgb(30,30,30);"/>
        </g>
        <g transform="matrix(1.08087,0,0,1.08087,139.357,371.35)">
            <circle cx="122.564" cy="345.998" r="7.008" style="fill:rgb(30,30,30);"/>
        </g>
        <g transform="matrix(1.08087,0,0,1.08087,156.325,370.523)">
            <circle cx="122.564" cy="345.998" r="7.008" style="fill:rgb(30,30,30);"/>
        </g>
        <g transform="matrix(1.08087,0,0,1.08087,174.023,339.263)">
            <circle cx="122.564" cy="345.998" r="7.008" style="fill:rgb(30,30,30);"/>
        </g>
        <g transform="matrix(1.08087,0,0,1.08087,185.802,331.942)">
            <circle cx="122.564" cy="345.998" r="7.008" style="fill:rgb(30,30,30);"/>
        </g>
        <g transform="matrix(1.08087,0,0,1.08087,194.667,297.873)">
            <circle cx="122.564" cy="345.998" r="7.008" style="fill:rgb(30,30,30);"/>
        </g>
        <g transform="matrix(1.08087,0,0,1.08087,201.311,299.897)">
            <circle cx="122.564" cy="345.998" r="7.008" style="fill:rgb(30,30,30);"/>
        </g>
        <g transform="matrix(1.08087,0,0,1.08087,267.973,235.599)">
            <circle cx="122.564" cy="345.998" r="7.008" style="fill:rgb(30,30,30);"/>
        </g>
        <g transform="matrix(1.08087,0,0,1.08087,295.191,210.106)">
            <circle cx="122.564" cy="345.998" r="7.008" style="fill:rgb(30,30,30);"/>
        </g>
        <g transform="matrix(1.08087,0,0,1.08087,312.514,203.803)">
            <circle cx="122.564" cy="345.998" r="7.008" style="fill:rgb(30,30,30);"/>
        </g>
        <g transform="matrix(1.08087,0,0,1.08087,316.888,198.629)">
            <circle cx="122.564" cy="345.998" r="7.008" style="fill:rgb(30,30,30);"/>
        </g>
        <g transform="matrix(1.08087,0,0,1.08087,318.717,180.171)">
            <circle cx="122.564" cy="345.998" r="7.008" style="fill:rgb(30,30,30);"/>
        </g>
        <g transform="matrix(1.08087,0,0,1.08087,337.583,197.464)">
            <circle cx="122.564" cy="345.998" r="7.008" style="fill:rgb(30,30,30);"/>
        </g>
        <g transform="matrix(1.08087,0,0,1.08087,446.724,249.842)">
            <circle cx="122.564" cy="345.998" r="7.008" style="fill:rgb(30,30,30);"/>
        </g>
        <g transform="matrix(1.08087,0,0,1.08087,445.665,374.909)">
            <circle cx="122.564" cy="345.998" r="7.008" style="fill:rgb(30,30,30);"/>
        </g>
        <g transform="matrix(1.08087,0,0,1.08087,373.846,142.821)">
            <circle cx="122.564" cy="345.998" r="7.008" style="fill:rgb(30,30,30);"/>
        </g>
        <g transform="matrix(1.08087,0,0,1.08087,387.323,124.383)">
            <circle cx="122.564" cy="345.998" r="7.008" style="fill:rgb(30,30,30);"/>
        </g>
        <g transform="matrix(1.08087,0,0,1.08087,375.941,122.78)">
            <circle cx="122.564" cy="345.998" r="7.008" style="fill:rgb(30,30,30);"/>
        </g>
        <g transform="matrix(1.08087,0,0,1.08087,377.749,118.019)">
            <circle cx="122.564" cy="345.998" r="7.008" style="fill:rgb(30,30,30);"/>
        </g>
        <g transform="matrix(1.08087,0,0,1.08087,366.447,110.694)">
            <circle cx="122.564" cy="345.998" r="7.008" style="fill:rgb(30,30,30);"/>
        </g>
        <g transform="matrix(1.08087,0,0,1.08087,373.631,108.129)">
            <circle cx="122.564" cy="345.998" r="7.008" style="fill:rgb(30,30,30);"/>
        </g>
        <g transform="matrix(1.08087,0,0,1.08087,290.489,59.9756)">
            <circle cx="122.564" cy="345.998" r="7.008" style="fill:rgb(30,30,30);"/>
        </g>
        <g transform="matrix(1.08087,0,0,1.08087,408.585,81.2659)">
            <circle cx="122.564" cy="345.998" r="7.008" style="fill:rgb(30,30,30);"/>
        </g>
        <g transform="matrix(1.08087,0,0,1.08087,420.468,69.9216)">
            <circle cx="122.564" cy="345.998" r="7.008" style="fill:rgb(30,30,30);"/>
        </g>
        <g transform="matrix(1.08087,0,0,1.08087,473.288,88.7267)">
            <circle cx="122.564" cy="345.998" r="7.008" style="fill:rgb(30,30,30);"/>
        </g>
        <g transform="matrix(1.08087,0,0,1.08087,427.359,42.6799)">
            <circle cx="122.564" cy="345.998" r="7.008" style="fill:rgb(30,30,30);"/>
        </g>
        <g transform="matrix(1.08087,0,0,1.08087,451.678,39.9832)">
            <circle cx="122.564" cy="345.998" r="7.008" style="fill:rgb(30,30,30);"/>
        </g>
        <g transform="matrix(1.08087,0,0,1.08087,463.551,10.6462)">
            <circle cx="122.564" cy="345.998" r="7.008" style="fill:rgb(30,30,30);"/>
        </g>
        <g transform="matrix(1.08087,0,0,1.08087,471.934,-2.39814)">
            <circle cx="122.564" cy="345.998" r="7.008" style="fill:rgb(30,30,30);"/>
        </g>
        <g transform="matrix(1.08087,0,0,1.08087,490.485,7.82721)">
            <circle cx="122.564" cy="345.998" r="7.008" style="fill:rgb(30,30,30);"/>
        </g>
        <g transform="matrix(1.08087,0,0,1.08087,527.857,-41.4957)">
            <circle cx="122.564" cy="345.998" r="7.008" style="fill:rgb(30,30,30);"/>
        </g>
        <g transform="matrix(1.08087,0,0,1.08087,564.254,-57.7765)">
            <circle cx="122.564" cy="345.998" r="7.008" style="fill:rgb(30,30,30);"/>
        </g>
        <g transform="matrix(1.08087,0,0,1.08087,564.968,-81.9972)">
            <circle cx="122.564" cy="345.998" r="7.008" style="fill:rgb(30,30,30);"/>
        </g>
        <g transform="matrix(1.08087,0,0,1.08087,615.013,22.048)">
            <circle cx="122.564" cy="345.998" r="7.008" style="fill:rgb(30,30,30);"/>
        </g>
        <g transform="matrix(1.08087,0,0,1.08087,794.995,-52.1619)">
            <circle cx="122.564" cy="345.998" r="7.008" style="fill:rgb(30,30,30);"/>
        </g>
        <g transform="matrix(1.08087,0,0,1.08087,779.645,-25.5433)">
            <circle cx="122.564" cy="345.998" r="7.008" style="fill:rgb(30,30,30);"/>
        </g>
        <g transform="matrix(1.08087,0,0,1.08087,789.954,41.0742)">
            <circle cx="122.564" cy="345.998" r="7.008" style="fill:rgb(30,30,30);"/>
        </g>
        <g transform="matrix(1.08087,0,0,1.08087,800.043,89.8271)">
            <circle cx="122.564" cy="345.998" r="7.008" style="fill:rgb(30,30,30);"/>
        </g>
        <g transform="matrix(1.08087,0,0,1.08087,745.887,158.337)">
            <circle cx="122.564" cy="345.998" r="7.008" style="fill:rgb(30,30,30);"/>
        </g>
        <g transform="matrix(1.08087,0,0,1.08087,785.752,218.616)">
            <circle cx="122.564" cy="345.998" r="7.008" style="fill:rgb(30,30,30);"/>
        </g>
        <g transform="matrix(1.08087,0,0,1.08087,686.656,229.963)">
            <circle cx="122.564" cy="345.998" r="7.008" style="fill:rgb(30,30,30);"/>
        </g>
        <g transform="matrix(1.08087,0,0,1.08087,727.054,320.835)">
            <circle cx="122.564" cy="345.998" r="7.008" style="fill:rgb(30,30,30);"/>
        </g>
        <g transform="matrix(1.08087,0,0,1.08087,748.517,363.211)">
            <circle cx="122.564" cy="345.998" r="7.008" style="fill:rgb(30,30,30);"/>
        </g>
        <g transform="matrix(1.08087,0,0,1.08087,607.11,433.925)">
            <circle cx="122.564" cy="345.998" r="7.008" style="fill:rgb(30,30,30);"/>
        </g>
        <g transform="matrix(1.08087,0,0,1.08087,758.085,480.131)">
            <circle cx="122.564" cy="345.998" r="7.008" style="fill:rgb(30,30,30);"/>
        </g>
        <g transform="matrix(1.08087,0,0,1.08087,734.098,513.818)">
            <circle cx="122.564" cy="345.998" r="7.008" style="fill:rgb(30,30,30);"/>
        </g>
        <g transform="matrix(1.08087,0,0,1.08087,736.35,574.081)">
            <circle cx="122.564" cy="345.998" r="7.008" style="fill:rgb(30,30,30);"/>
        </g>
        <g transform="matrix(1.08087,0,0,1.08087,542.322,524.295)">
            <circle cx="122.564" cy="345.998" r="7.008" style="fill:rgb(30,30,30);"/>
        </g>
        <g transform="matrix(1.08087,0,0,1.08087,375.942,558.557)">
            <circle cx="122.564" cy="345.998" r="7.008" style="fill:rgb(30,30,30);"/>
        </g>
        <g transform="matrix(1.08087,0,0,1.08087,298.959,558.771)">
            <circle cx="122.564" cy="345.998" r="7.008" style="fill:rgb(30,30,30);"/>
        </g>
        <g transform="matrix(1.08087,0,0,1.08087,184.159,535.304)">
            <circle cx="122.564" cy="345.998" r="7.008" style="fill:rgb(30,30,30);"/>
        </g>
        <g transform="matrix(1.08087,0,0,1.08087,32.8278,466.878)">
            <circle cx="122.564" cy="345.998" r="7.008" style="fill:rgb(30,30,30);"/>
        </g>
        <g transform="matrix(1.08087,0,0,1.08087,27.2776,461.993)">
            <circle cx="122.564" cy="345.998" r="7.008" style="fill:rgb(30,30,30);"/>
        </g>
        <g transform="matrix(1.08087,0,0,1.08087,-36.1374,495.857)">
            <circle cx="122.564" cy="345.998" r="7.008" style="fill:rgb(30,30,30);"/>
        </g>
        <g transform="matrix(1.08087,0,0,1.08087,-43.9116,506.822)">
            <circle cx="122.564" cy="345.998" r="7.008" style="fill:rgb(30,30,30);"/>
        </g>
        <g transform="matrix(1.08087,0,0,1.08087,-60.8958,542.094)">
            <circle cx="122.564" cy="345.998" r="7.008" style="fill:rgb(30,30,30);"/>
        </g>
        <g transform="matrix(1.08087,0,0,1.08087,-58.7219,555.457)">
            <circle cx="122.564" cy="345.998" r="7.008" style="fill:rgb(30,30,30);"/>
        </g>
        <g transform="matrix(1.08087,0,0,1.08087,-39.4962,550.399)">
            <circle cx="122.564" cy="345.998" r="7.008" style="fill:rgb(30,30,30);"/>
        </g>
        <g transform="matrix(1.08087,0,0,1.08087,614.382,83.0325)">
            <circle cx="122.564" cy="345.998" r="7.008" style="fill:rgb(30,30,30);"/>
        </g>
        <g transform="matrix(1.08087,0,0,1.08087,626.172,80.3443)">
            <circle cx="122.564" cy="345.998" r="7.008" style="fill:rgb(30,30,30);"/>
        </g>
        <g transform="matrix(1.08087,0,0,1.08087,471.559,-89.1847)">
            <circle cx="122.564" cy="345.998" r="7.008" style="fill:rgb(30,30,30);"/>
        </g>
        <g transform="matrix(1.08087,0,0,1.08087,371.49,-87.6472)">
            <circle cx="122.564" cy="345.998" r="7.008" style="fill:rgb(30,30,30);"/>
        </g>
        <g transform="matrix(1.08087,0,0,1.08087,193.298,-124.835)">
            <circle cx="122.564" cy="345.998" r="7.008" style="fill:rgb(30,30,30);"/>
        </g>
        <g transform="matrix(1.08087,0,0,1.08087,472.77,-227.733)">
            <circle cx="122.564" cy="345.998" r="7.008" style="fill:rgb(30,30,30);"/>
        </g>
        <g transform="matrix(1.08087,0,0,1.08087,387.599,-274.746)">
            <circle cx="122.564" cy="345.998" r="7.008" style="fill:rgb(30,30,30);"/>
        </g>
        <g transform="matrix(1.08087,0,0,1.08087,309.656,-299.844)">
            <circle cx="122.564" cy="345.998" r="7.008" style="fill:rgb(30,30,30);"/>
        </g>
        <g transform="matrix(1.08087,0,0,1.08087,458.016,-309.981)">
            <circle cx="122.564" cy="345.998" r="7.008" style="fill:rgb(30,30,30);"/>
        </g>
        <g transform="matrix(1.08087,0,0,1.08087,528.417,-296.182)">
            <circle cx="122.564" cy="345.998" r="7.008" style="fill:rgb(30,30,30);"/>
        </g>
        <g transform="matrix(1.08087,0,0,1.08087,567.053,-220.45)">
            <circle cx="122.564" cy="345.998" r="7.008" style="fill:rgb(30,30,30);"/>
        </g>
        <g transform="matrix(1.08087,0,0,1.08087,599.699,-130.688)">
            <circle cx="122.564" cy="345.998" r="7.008" style="fill:rgb(30,30,30);"/>
        </g>
        <g transform="matrix(1.08087,0,0,1.08087,670.881,-187.413)">
            <circle cx="122.564" cy="345.998" r="7.008" style="fill:rgb(30,30,30);"/>
        </g>
        <g transform="matrix(1.08087,0,0,1.08087,688.457,-173.786)">
            <circle cx="122.564" cy="345.998" r="7.008" style="fill:rgb(30,30,30);"/>
        </g>
        <g transform="matrix(1.08087,0,0,1.08087,704.826,-175.556)">
            <circle cx="122.564" cy="345.998" r="7.008" style="fill:rgb(30,30,30);"/>
        </g>
        <g transform="matrix(1.08087,0,0,1.08087,712.293,-198.152)">
            <circle cx="122.564" cy="345.998" r="7.008" style="fill:rgb(30,30,30);"/>
        </g>
        <g transform="matrix(1.08087,0,0,1.08087,691.717,-217.89)">
            <circle cx="122.564" cy="345.998" r="7.008" style="fill:rgb(30,30,30);"/>
        </g>
        <g transform="matrix(1.08087,0,0,1.08087,749.917,-280.465)">
            <circle cx="122.564" cy="345.998" r="7.008" style="fill:rgb(30,30,30);"/>
        </g>
        <g transform="matrix(1.08087,0,0,1.08087,778.898,-272.973)">
            <circle cx="122.564" cy="345.998" r="7.008" style="fill:rgb(30,30,30);"/>
        </g>
        <g transform="matrix(1.08087,0,0,1.08087,795.529,-295.63)">
            <circle cx="122.564" cy="345.998" r="7.008" style="fill:rgb(30,30,30);"/>
        </g>
        <g transform="matrix(1.08087,0,0,1.08087,499.208,19.5272)">
            <circle cx="122.564" cy="345.998" r="7.008" style="fill:rgb(30,30,30);"/>
        </g>
        <g transform="matrix(1.08087,0,0,1.08087,144.097,32.8103)">
            <circle cx="122.564" cy="345.998" r="7.008" style="fill:rgb(30,30,30);"/>
        </g>
    </g>
    <g transform="matrix(1.12502,-1.97791,-7.24357,-4.12009,2514.24,1623.32)">
        <path d="M-124.55,214.131L368.143,214.131" style="fill:none;fill-rule:nonzero;stroke:rgb(91,155,213);stroke-width:0.65px;"/>
    </g>
</svg>
