<?xml version="1.0" encoding="UTF-8" standalone="no"?>
<!DOCTYPE svg PUBLIC "-//W3C//DTD SVG 1.1//EN" "http://www.w3.org/Graphics/SVG/1.1/DTD/svg11.dtd">
<svg width="100%" height="100%" viewBox="0 0 2200 1030" version="1.1" xmlns="http://www.w3.org/2000/svg" xmlns:xlink="http://www.w3.org/1999/xlink" xml:space="preserve" xmlns:serif="http://www.serif.com/" style="fill-rule:evenodd;clip-rule:evenodd;stroke-linecap:round;stroke-miterlimit:8;">
    <g transform="matrix(1,0,0,1,-1.07492,7.36167)">
        <g transform="matrix(1.08087,0,0,1.08087,588.915,-28.5086)">
            <circle cx="122.564" cy="345.998" r="7.008" style="fill:rgb(206,206,206);"/>
        </g>
        <g transform="matrix(1.08087,0,0,1.08087,616.361,34.0713)">
            <circle cx="122.564" cy="345.998" r="7.008" style="fill:rgb(206,206,206);"/>
        </g>
        <g transform="matrix(1.08087,0,0,1.08087,653.446,55.5913)">
            <circle cx="122.564" cy="345.998" r="7.008" style="fill:rgb(206,206,206);"/>
        </g>
        <g transform="matrix(1.08087,0,0,1.08087,692.521,64.4112)">
            <circle cx="122.564" cy="345.998" r="7.008" style="fill:rgb(206,206,206);"/>
        </g>
        <g transform="matrix(1.08087,0,0,1.08087,693.637,103.894)">
            <circle cx="122.564" cy="345.998" r="7.008" style="fill:rgb(206,206,206);"/>
        </g>
        <g transform="matrix(1.08087,0,0,1.08087,537.657,152.721)">
            <circle cx="122.564" cy="345.998" r="7.008" style="fill:rgb(206,206,206);"/>
        </g>
        <g transform="matrix(1.08087,0,0,1.08087,603.938,183.256)">
            <circle cx="122.564" cy="345.998" r="7.008" style="fill:rgb(206,206,206);"/>
        </g>
        <g transform="matrix(1.08087,0,0,1.08087,667.383,246.558)">
            <circle cx="122.564" cy="345.998" r="7.008" style="fill:rgb(206,206,206);"/>
        </g>
        <g transform="matrix(1.08087,0,0,1.08087,642.662,288.999)">
            <circle cx="122.564" cy="345.998" r="7.008" style="fill:rgb(206,206,206);"/>
        </g>
        <g transform="matrix(1.08087,0,0,1.08087,750.39,321.859)">
            <circle cx="122.564" cy="345.998" r="7.008" style="fill:rgb(11,255,0);"/>
        </g>
        <g transform="matrix(1.08087,0,0,1.08087,719.509,349.404)">
            <circle cx="122.564" cy="345.998" r="7.008" style="fill:rgb(11,255,0);"/>
        </g>
        <g transform="matrix(1.08087,0,0,1.08087,738.857,371.35)">
            <circle cx="122.564" cy="345.998" r="7.008" style="fill:rgb(11,255,0);"/>
        </g>
        <g transform="matrix(1.08087,0,0,1.08087,755.825,370.523)">
            <circle cx="122.564" cy="345.998" r="7.008" style="fill:rgb(11,255,0);"/>
        </g>
        <g transform="matrix(1.08087,0,0,1.08087,773.523,339.263)">
            <circle cx="122.564" cy="345.998" r="7.008" style="fill:rgb(11,255,0);"/>
        </g>
        <g transform="matrix(1.08087,0,0,1.08087,785.302,331.942)">
            <circle cx="122.564" cy="345.998" r="7.008" style="fill:rgb(11,255,0);"/>
        </g>
        <g transform="matrix(1.08087,0,0,1.08087,794.167,297.873)">
            <circle cx="122.564" cy="345.998" r="7.008" style="fill:rgb(11,255,0);"/>
        </g>
        <g transform="matrix(1.08087,0,0,1.08087,800.811,299.897)">
            <circle cx="122.564" cy="345.998" r="7.008" style="fill:rgb(11,255,0);"/>
        </g>
        <g transform="matrix(1.08087,0,0,1.08087,867.473,235.599)">
            <circle cx="122.564" cy="345.998" r="7.008" style="fill:rgb(11,255,0);"/>
        </g>
        <g transform="matrix(1.08087,0,0,1.08087,894.691,210.106)">
            <circle cx="122.564" cy="345.998" r="7.008" style="fill:rgb(11,255,0);"/>
        </g>
        <g transform="matrix(1.08087,0,0,1.08087,912.014,203.803)">
            <circle cx="122.564" cy="345.998" r="7.008" style="fill:rgb(11,255,0);"/>
        </g>
        <g transform="matrix(1.08087,0,0,1.08087,916.388,198.629)">
            <circle cx="122.564" cy="345.998" r="7.008" style="fill:rgb(11,255,0);"/>
        </g>
        <g transform="matrix(1.08087,0,0,1.08087,918.217,180.171)">
            <circle cx="122.564" cy="345.998" r="7.008" style="fill:rgb(11,255,0);"/>
        </g>
        <g transform="matrix(1.08087,0,0,1.08087,937.083,197.464)">
            <circle cx="122.564" cy="345.998" r="7.008" style="fill:rgb(11,255,0);"/>
        </g>
        <g transform="matrix(1.08087,0,0,1.08087,1046.22,249.842)">
            <circle cx="122.564" cy="345.998" r="7.008" style="fill:rgb(206,206,206);"/>
        </g>
        <g transform="matrix(1.08087,0,0,1.08087,1045.17,374.909)">
            <circle cx="122.564" cy="345.998" r="7.008" style="fill:rgb(206,206,206);"/>
        </g>
        <g transform="matrix(1.08087,0,0,1.08087,973.346,142.821)">
            <circle cx="122.564" cy="345.998" r="7.008" style="fill:rgb(11,255,0);"/>
        </g>
        <g transform="matrix(1.08087,0,0,1.08087,986.823,124.383)">
            <circle cx="122.564" cy="345.998" r="7.008" style="fill:rgb(11,255,0);"/>
        </g>
        <g transform="matrix(1.08087,0,0,1.08087,975.441,122.78)">
            <circle cx="122.564" cy="345.998" r="7.008" style="fill:rgb(11,255,0);"/>
        </g>
        <g transform="matrix(1.08087,0,0,1.08087,977.249,118.019)">
            <circle cx="122.564" cy="345.998" r="7.008" style="fill:rgb(11,255,0);"/>
        </g>
        <g transform="matrix(1.08087,0,0,1.08087,965.947,110.694)">
            <circle cx="122.564" cy="345.998" r="7.008" style="fill:rgb(11,255,0);"/>
        </g>
        <g transform="matrix(1.08087,0,0,1.08087,973.131,108.129)">
            <circle cx="122.564" cy="345.998" r="7.008" style="fill:rgb(11,255,0);"/>
        </g>
        <g transform="matrix(1.08087,0,0,1.08087,889.989,59.9756)">
            <circle cx="122.564" cy="345.998" r="7.008" style="fill:rgb(206,206,206);"/>
        </g>
        <g transform="matrix(1.08087,0,0,1.08087,1008.08,81.2659)">
            <circle cx="122.564" cy="345.998" r="7.008" style="fill:rgb(11,255,0);"/>
        </g>
        <g transform="matrix(1.08087,0,0,1.08087,1019.97,69.9216)">
            <circle cx="122.564" cy="345.998" r="7.008" style="fill:rgb(11,255,0);"/>
        </g>
        <g transform="matrix(1.08087,0,0,1.08087,1072.79,88.7267)">
            <circle cx="122.564" cy="345.998" r="7.008" style="fill:rgb(206,206,206);"/>
        </g>
        <g transform="matrix(1.08087,0,0,1.08087,1026.86,42.6799)">
            <circle cx="122.564" cy="345.998" r="7.008" style="fill:rgb(11,255,0);"/>
        </g>
        <g transform="matrix(1.08087,0,0,1.08087,1051.18,39.9832)">
            <circle cx="122.564" cy="345.998" r="7.008" style="fill:rgb(11,255,0);"/>
        </g>
        <g transform="matrix(1.08087,0,0,1.08087,1063.05,10.6462)">
            <circle cx="122.564" cy="345.998" r="7.008" style="fill:rgb(11,255,0);"/>
        </g>
        <g transform="matrix(1.08087,0,0,1.08087,1071.43,-2.39814)">
            <circle cx="122.564" cy="345.998" r="7.008" style="fill:rgb(11,255,0);"/>
        </g>
        <g transform="matrix(1.08087,0,0,1.08087,1089.98,7.82721)">
            <circle cx="122.564" cy="345.998" r="7.008" style="fill:rgb(11,255,0);"/>
        </g>
        <g transform="matrix(1.08087,0,0,1.08087,1127.36,-41.4957)">
            <circle cx="122.564" cy="345.998" r="7.008" style="fill:rgb(11,255,0);"/>
        </g>
        <g transform="matrix(1.08087,0,0,1.08087,1163.75,-57.7765)">
            <circle cx="122.564" cy="345.998" r="7.008" style="fill:rgb(11,255,0);"/>
        </g>
        <g transform="matrix(1.08087,0,0,1.08087,1164.47,-81.9972)">
            <circle cx="122.564" cy="345.998" r="7.008" style="fill:rgb(11,255,0);"/>
        </g>
        <g transform="matrix(1.08087,0,0,1.08087,1214.51,22.048)">
            <circle cx="122.564" cy="345.998" r="7.008" style="fill:rgb(206,206,206);"/>
        </g>
        <g transform="matrix(1.08087,0,0,1.08087,1394.5,-52.1619)">
            <circle cx="122.564" cy="345.998" r="7.008" style="fill:rgb(206,206,206);"/>
        </g>
        <g transform="matrix(1.08087,0,0,1.08087,1379.15,-25.5433)">
            <circle cx="122.564" cy="345.998" r="7.008" style="fill:rgb(206,206,206);"/>
        </g>
        <g transform="matrix(1.08087,0,0,1.08087,1389.45,41.0742)">
            <circle cx="122.564" cy="345.998" r="7.008" style="fill:rgb(206,206,206);"/>
        </g>
        <g transform="matrix(1.08087,0,0,1.08087,1399.54,89.8271)">
            <circle cx="122.564" cy="345.998" r="7.008" style="fill:rgb(206,206,206);"/>
        </g>
        <g transform="matrix(1.08087,0,0,1.08087,1345.39,158.337)">
            <circle cx="122.564" cy="345.998" r="7.008" style="fill:rgb(206,206,206);"/>
        </g>
        <g transform="matrix(1.08087,0,0,1.08087,1385.25,218.616)">
            <circle cx="122.564" cy="345.998" r="7.008" style="fill:rgb(206,206,206);"/>
        </g>
        <g transform="matrix(1.08087,0,0,1.08087,1286.16,229.963)">
            <circle cx="122.564" cy="345.998" r="7.008" style="fill:rgb(206,206,206);"/>
        </g>
        <g transform="matrix(1.08087,0,0,1.08087,1326.55,320.835)">
            <circle cx="122.564" cy="345.998" r="7.008" style="fill:rgb(206,206,206);"/>
        </g>
        <g transform="matrix(1.08087,0,0,1.08087,1348.02,363.211)">
            <circle cx="122.564" cy="345.998" r="7.008" style="fill:rgb(206,206,206);"/>
        </g>
        <g transform="matrix(1.08087,0,0,1.08087,1206.61,433.925)">
            <circle cx="122.564" cy="345.998" r="7.008" style="fill:rgb(206,206,206);"/>
        </g>
        <g transform="matrix(1.08087,0,0,1.08087,1357.58,480.131)">
            <circle cx="122.564" cy="345.998" r="7.008" style="fill:rgb(206,206,206);"/>
        </g>
        <g transform="matrix(1.08087,0,0,1.08087,1333.6,513.818)">
            <circle cx="122.564" cy="345.998" r="7.008" style="fill:rgb(206,206,206);"/>
        </g>
        <g transform="matrix(1.08087,0,0,1.08087,1335.85,574.081)">
            <circle cx="122.564" cy="345.998" r="7.008" style="fill:rgb(206,206,206);"/>
        </g>
        <g transform="matrix(1.08087,0,0,1.08087,1141.82,524.295)">
            <circle cx="122.564" cy="345.998" r="7.008" style="fill:rgb(206,206,206);"/>
        </g>
        <g transform="matrix(1.08087,0,0,1.08087,975.442,558.557)">
            <circle cx="122.564" cy="345.998" r="7.008" style="fill:rgb(206,206,206);"/>
        </g>
        <g transform="matrix(1.08087,0,0,1.08087,898.459,558.771)">
            <circle cx="122.564" cy="345.998" r="7.008" style="fill:rgb(206,206,206);"/>
        </g>
        <g transform="matrix(1.08087,0,0,1.08087,783.659,535.304)">
            <circle cx="122.564" cy="345.998" r="7.008" style="fill:rgb(206,206,206);"/>
        </g>
        <g transform="matrix(1.08087,0,0,1.08087,632.328,466.878)">
            <circle cx="122.564" cy="345.998" r="7.008" style="fill:rgb(11,255,0);"/>
        </g>
        <g transform="matrix(1.08087,0,0,1.08087,626.778,461.993)">
            <circle cx="122.564" cy="345.998" r="7.008" style="fill:rgb(11,255,0);"/>
        </g>
        <g transform="matrix(1.08087,0,0,1.08087,563.363,495.857)">
            <circle cx="122.564" cy="345.998" r="7.008" style="fill:rgb(11,255,0);"/>
        </g>
        <g transform="matrix(1.08087,0,0,1.08087,555.588,506.822)">
            <circle cx="122.564" cy="345.998" r="7.008" style="fill:rgb(11,255,0);"/>
        </g>
        <g transform="matrix(1.08087,0,0,1.08087,538.604,542.094)">
            <circle cx="122.564" cy="345.998" r="7.008" style="fill:rgb(11,255,0);"/>
        </g>
        <g transform="matrix(1.08087,0,0,1.08087,540.778,555.457)">
            <circle cx="122.564" cy="345.998" r="7.008" style="fill:rgb(11,255,0);"/>
        </g>
        <g transform="matrix(1.08087,0,0,1.08087,560.004,550.399)">
            <circle cx="122.564" cy="345.998" r="7.008" style="fill:rgb(11,255,0);"/>
        </g>
        <g transform="matrix(1.08087,0,0,1.08087,1213.88,83.0325)">
            <circle cx="122.564" cy="345.998" r="7.008" style="fill:rgb(206,206,206);"/>
        </g>
        <g transform="matrix(1.08087,0,0,1.08087,1225.67,80.3443)">
            <circle cx="122.564" cy="345.998" r="7.008" style="fill:rgb(206,206,206);"/>
        </g>
        <g transform="matrix(1.08087,0,0,1.08087,1071.06,-89.1847)">
            <circle cx="122.564" cy="345.998" r="7.008" style="fill:rgb(206,206,206);"/>
        </g>
        <g transform="matrix(1.08087,0,0,1.08087,970.99,-87.6472)">
            <circle cx="122.564" cy="345.998" r="7.008" style="fill:rgb(206,206,206);"/>
        </g>
        <g transform="matrix(1.08087,0,0,1.08087,792.798,-124.835)">
            <circle cx="122.564" cy="345.998" r="7.008" style="fill:rgb(206,206,206);"/>
        </g>
        <g transform="matrix(1.08087,0,0,1.08087,1072.27,-227.733)">
            <circle cx="122.564" cy="345.998" r="7.008" style="fill:rgb(206,206,206);"/>
        </g>
        <g transform="matrix(1.08087,0,0,1.08087,987.099,-274.746)">
            <circle cx="122.564" cy="345.998" r="7.008" style="fill:rgb(206,206,206);"/>
        </g>
        <g transform="matrix(1.08087,0,0,1.08087,909.156,-299.844)">
            <circle cx="122.564" cy="345.998" r="7.008" style="fill:rgb(206,206,206);"/>
        </g>
        <g transform="matrix(1.08087,0,0,1.08087,1057.52,-309.981)">
            <circle cx="122.564" cy="345.998" r="7.008" style="fill:rgb(206,206,206);"/>
        </g>
        <g transform="matrix(1.08087,0,0,1.08087,1127.92,-296.182)">
            <circle cx="122.564" cy="345.998" r="7.008" style="fill:rgb(206,206,206);"/>
        </g>
        <g transform="matrix(1.08087,0,0,1.08087,1166.55,-220.45)">
            <circle cx="122.564" cy="345.998" r="7.008" style="fill:rgb(206,206,206);"/>
        </g>
        <g transform="matrix(1.08087,0,0,1.08087,1199.2,-130.688)">
            <circle cx="122.564" cy="345.998" r="7.008" style="fill:rgb(11,255,0);"/>
        </g>
        <g transform="matrix(1.08087,0,0,1.08087,1270.38,-187.413)">
            <circle cx="122.564" cy="345.998" r="7.008" style="fill:rgb(11,255,0);"/>
        </g>
        <g transform="matrix(1.08087,0,0,1.08087,1287.96,-173.786)">
            <circle cx="122.564" cy="345.998" r="7.008" style="fill:rgb(11,255,0);"/>
        </g>
        <g transform="matrix(1.08087,0,0,1.08087,1304.33,-175.556)">
            <circle cx="122.564" cy="345.998" r="7.008" style="fill:rgb(11,255,0);"/>
        </g>
        <g transform="matrix(1.08087,0,0,1.08087,1311.79,-198.152)">
            <circle cx="122.564" cy="345.998" r="7.008" style="fill:rgb(11,255,0);"/>
        </g>
        <g transform="matrix(1.08087,0,0,1.08087,1291.22,-217.89)">
            <circle cx="122.564" cy="345.998" r="7.008" style="fill:rgb(11,255,0);"/>
        </g>
        <g transform="matrix(1.08087,0,0,1.08087,1349.42,-280.465)">
            <circle cx="122.564" cy="345.998" r="7.008" style="fill:rgb(11,255,0);"/>
        </g>
        <g transform="matrix(1.08087,0,0,1.08087,1378.4,-272.973)">
            <circle cx="122.564" cy="345.998" r="7.008" style="fill:rgb(11,255,0);"/>
        </g>
        <g transform="matrix(1.08087,0,0,1.08087,1395.03,-295.63)">
            <circle cx="122.564" cy="345.998" r="7.008" style="fill:rgb(11,255,0);"/>
        </g>
        <g transform="matrix(1.08087,0,0,1.08087,1098.71,19.5272)">
            <circle cx="122.564" cy="345.998" r="7.008" style="fill:rgb(11,255,0);"/>
        </g>
        <g transform="matrix(1.08087,0,0,1.08087,743.597,32.8103)">
            <circle cx="122.564" cy="345.998" r="7.008" style="fill:rgb(206,206,206);"/>
        </g>
    </g>
    <g transform="matrix(1.77739,-1.78279,-5.90148,-5.88362,2151.74,1979.97)">
        <path d="M-124.55,214.131L368.143,214.131" style="fill:none;fill-rule:nonzero;stroke:rgb(11,255,0);stroke-width:0.65px;"/>
    </g>
    <g transform="matrix(1.77739,-1.78279,-5.90148,-5.88362,2127.17,1952.34)">
        <path d="M-124.55,214.131L368.143,214.131" style="fill:none;fill-rule:nonzero;stroke:rgb(11,255,0);stroke-width:0.32px;stroke-linecap:butt;stroke-dasharray:1.3,0.97,0,0;"/>
    </g>
    <g transform="matrix(1.77739,-1.78279,-5.90148,-5.88362,2177.68,2009.99)">
        <path d="M-124.55,214.131L368.143,214.131" style="fill:none;fill-rule:nonzero;stroke:rgb(11,255,0);stroke-width:0.32px;stroke-linecap:butt;stroke-dasharray:1.3,0.97,0,0;"/>
    </g>
</svg>
