<?xml version="1.0" encoding="UTF-8" standalone="no"?>
<!DOCTYPE svg PUBLIC "-//W3C//DTD SVG 1.1//EN" "http://www.w3.org/Graphics/SVG/1.1/DTD/svg11.dtd">
<svg width="100%" height="100%" viewBox="0 0 360 190" version="1.1" xmlns="http://www.w3.org/2000/svg" xmlns:xlink="http://www.w3.org/1999/xlink" xml:space="preserve" xmlns:serif="http://www.serif.com/" style="fill-rule:evenodd;clip-rule:evenodd;stroke-linejoin:round;stroke-miterlimit:10;">
    <g transform="matrix(0.821554,0,0,0.821554,-200.775,-147.299)">
        <path d="M414.59,209.07L414.62,209.14L414.83,209.35L414.96,209.55L415.1,209.69L415.24,209.86L415.41,210L415.54,210.27L415.75,210.45L415.92,210.72L416.12,210.99L416.39,211.23L416.46,211.37L416.56,211.58L416.7,211.75L416.84,211.89L416.9,212.02L417.04,212.23L417.11,212.33L417.28,212.54L417.35,212.67L417.48,212.88L417.62,213.05L417.75,213.26L417.82,213.39L417.93,213.6L417.99,213.77L418.13,214.05L418.27,214.25L418.33,214.42L418.47,214.63L418.57,214.83L418.64,215.01L418.78,215.28L418.84,215.49L418.98,215.66L419.05,215.86L419.12,216.14L419.22,216.31L419.29,216.58L419.35,216.79L419.42,216.96L419.49,217.23L419.56,217.51L419.63,217.68L419.7,217.89L419.76,218.16L419.8,218.4L419.8,218.61L419.87,218.88L419.87,219.12L419.93,219.46L419.93,221.52L419.87,222L419.87,222.79L419.8,223.23L419.8,223.68L419.76,224.16L419.76,224.61L419.7,225.05L419.63,225.5L419.56,225.98L419.56,226.42L419.49,226.94L419.42,227.45L419.42,227.93L419.29,228.45L419.22,228.96L419.15,229.41L419.12,229.95L419.05,230.4L418.98,230.91L418.91,231.43L418.91,231.98L418.78,232.42L418.71,232.87L418.64,233.35L418.57,233.86L418.5,234.31L418.4,234.75L418.33,235.23L418.27,235.68L418.2,236.06L418.13,236.47L418.06,236.91L417.99,237.29L417.93,237.7L417.86,238.08L417.82,238.42L417.75,238.8L417.69,239.14L417.62,239.45L417.55,239.73L417.48,240.03L417.48,240.24L417.41,240.51L417.35,240.75L417.35,240.96L417.28,241.1L417.28,241.54L417.21,241.68L417.21,241.82L401.04,267.15L408.36,268.8L424.29,238.29L424.29,237.84L424.33,237.63L424.33,236.98L424.39,236.71L424.46,236.4L424.53,236.13L424.53,235.75L424.6,235.41L424.6,235.03L424.67,234.65L424.73,234.17L424.73,233.28L424.8,232.87L424.87,232.35L424.87,231.33L424.94,230.78L424.94,230.19L424.97,229.68L424.97,226.77L425.04,226.15L424.97,225.57L424.94,224.91L424.94,224.26L424.87,223.68L424.87,223.03L424.73,221.73L424.67,221.14L424.53,220.49L424.46,219.84L424.39,219.26L424.33,218.61L424.22,218.02L424.09,217.37L423.81,216.21L423.64,215.59L423.44,214.94L423.3,214.42L423.1,213.84L422.86,213.26L422.66,212.74L422.38,212.23L422.21,211.68L421.87,211.17L421.64,210.65L421.3,210.21L421.06,209.73L420.72,209.35L420.41,208.9L420,208.49L419.7,208.18L419.49,207.98L419.29,207.91L419.12,207.77L418.91,207.7L418.71,207.67L418.5,207.6L417.93,207.6L417.69,207.67L417.48,207.67L417.28,207.7L417.04,207.77L416.84,207.84L416.63,207.98L416.46,208.05L416.26,208.11L416.05,208.18L415.88,208.32L415.68,208.35L415.54,208.42L415.34,208.49L415.24,208.63L415.17,208.7L414.9,208.83L414.69,209.01L414.62,209.01L414.59,209.07Z" style="fill:rgb(199,199,224);"/>
    </g>
    <g transform="matrix(0.821554,0,0,0.821554,-200.775,-186.142)">
        <path d="M361.44,262.32L402.46,291.36L402.46,291.29L402.52,291.19L402.59,291.05L402.73,290.84L402.8,290.71L402.86,290.57L402.97,290.47L403.03,290.26L403.1,290.05L403.24,289.91L403.37,289.67L403.51,289.47L403.58,289.23L403.68,288.95L403.82,288.68L403.95,288.44L404.09,288.09L404.23,287.78L404.26,287.44L404.46,287.2L404.6,286.78L404.74,286.41L404.87,285.99L404.97,285.68L405.11,285.24L405.25,284.82L405.38,284.44L405.52,283.96L405.62,283.52L405.76,283.07L405.89,282.55L406.03,282.07L406.1,281.49L406.2,280.97L406.27,280.45L406.4,279.94L406.47,279.35L406.54,278.73L406.61,278.15L406.74,277.56L406.74,276.91L406.81,276.26L406.85,275.67L406.91,275.02L406.91,272.92L406.98,272.2L406.91,271.47L406.91,269.27L406.81,268.41L406.74,267.62L406.68,266.83L406.61,266L406.47,265.21L406.4,264.35L406.2,263.49L406.17,262.67L422.64,250.76L422.64,250.69L422.57,250.49L422.5,250.35L422.44,250.25L422.44,250.11L422.4,249.9L422.33,249.63L422.2,249.45L422.13,249.18L422.06,248.94L421.93,248.59L421.79,248.32L421.69,248.01L421.55,247.66L421.41,247.29L421.21,246.91L421.11,246.56L420.9,246.19L420.7,245.7L420.5,245.33L420.33,244.95L420.12,244.53L419.81,244.09L419.61,243.64L419.27,243.16L419.1,242.78L418.76,242.33L418.45,241.85L418.11,241.4L417.87,241.02L417.47,240.54L417.09,240.1L416.68,239.65L416.31,239.17L415.93,238.79L415.46,238.34L415.02,237.93L414.57,237.55L414.1,237.1L413.59,236.69L413.08,236.31L412.56,235.97L411.99,235.59L411.44,235.24L410.86,234.93L410.28,234.59L409.64,234.28L408.99,234.01L408.34,233.77L407.7,233.49L406.98,233.21L406.27,233.11L405.52,232.9L404.8,232.77L404.02,232.56L403.24,232.49L402.39,232.39L401.57,232.39L400.72,232.32L399.8,232.32L398.92,232.39L398,232.46L389.08,251.62L387.85,251.62L387.72,251.66L386.66,251.66L386.49,251.72L386.29,251.72L386.08,251.79L385.57,251.79L385.33,251.86L385.06,251.93L384.79,251.93L384.55,252L384.28,252L384.04,252.07L383.7,252.14L383.43,252.14L383.12,252.21L382.78,252.28L382.48,252.28L382.2,252.31L381.83,252.38L381.56,252.45L381.25,252.52L380.91,252.58L380.6,252.65L380.26,252.72L379.89,252.79L379.55,252.86L379.17,252.96L378.87,253.03L378.53,253.1L378.15,253.17L377.81,253.24L377.44,253.38L377.1,253.45L376.72,253.58L376.38,253.62L376.08,253.75L375.67,253.82L375.36,253.96L374.99,254.1L374.65,254.24L374.27,254.34L373.86,254.48L373.56,254.61L373.22,254.75L372.84,254.89L372.43,254.99L372.13,255.13L371.79,255.34L371.48,255.47L371.07,255.58L370.77,255.72L370.49,255.92L370.19,256.06L369.78,256.2L369.54,256.3L369.27,256.51L368.96,256.64L368.62,256.85L368.38,256.95L368.11,257.16L367.84,257.3L367.53,257.44L367.33,257.57L367.09,257.75L366.82,257.88L366.55,258.09L366.31,258.23L366.1,258.4L365.86,258.54L365.66,258.67L365.46,258.81L365.25,258.98L365.01,259.12L364.81,259.33L364.61,259.47L364.5,259.57L364.23,259.71L364.03,259.84L363.92,259.98L363.72,260.19L363.58,260.22L363.38,260.36L363.28,260.5L363.14,260.64L362.87,260.88L362.63,261.15L362.36,261.36L362.22,261.53L362.02,261.67L361.92,261.81L361.71,261.94L361.64,262.08L361.51,262.18L361.44,262.32Z" style="fill:rgb(102,224,224);"/>
    </g>
    <g transform="matrix(0.821554,0,0,0.821554,-200.775,-183.776)">
        <path d="M359.52,264.56L359.52,264.49L359.65,264.36L359.79,264.15L360.09,263.91L360.16,263.77L360.37,263.56L360.5,263.36L360.74,263.19L360.95,262.98L361.15,262.77L361.39,262.53L361.66,262.33L361.93,261.98L362.24,261.81L362.58,261.47L362.89,261.23L363.23,260.95L363.54,260.61L363.88,260.3L364.32,260.02L364.63,259.71L365.1,259.37L365.48,259.06L365.92,258.78L366.4,258.47L366.91,258.06L367.35,257.75L367.86,257.48L368.41,257.1L368.92,256.75L369.43,256.44L370.01,256.1L370.52,255.79L371.1,255.45L371.75,255.14L372.33,254.79L372.97,254.48L373.59,254.14L374.23,253.9L374.95,253.56L375.6,253.32L376.28,253.04L376.92,252.76L377.71,252.52L378.42,252.25L379.14,252.01L379.85,251.73L380.64,251.6L381.42,251.35L382.17,251.15L383.02,251.01L383.81,250.87L384.66,250.7L385.41,250.56L386.26,250.43L387.18,250.36L388,250.29L388.92,250.22L389.77,250.15L390.65,250.15L399.65,230.89L399.85,230.82L399.92,230.75L400.5,230.75L400.7,230.68L402.31,230.68L402.58,230.75L402.78,230.75L402.95,230.82L403.16,230.82L403.36,230.89L403.57,230.89L403.8,230.93L404.08,230.93L404.25,230.99L404.52,231.06L404.79,231.2L405.03,231.27L405.3,231.34L405.54,231.48L405.88,231.54L406.09,231.65L406.39,231.72L406.73,231.85L407.04,231.99L407.31,232.13L407.62,232.23L407.96,232.44L408.27,232.58L408.54,232.78L408.85,232.89L409.26,233.09L409.56,233.37L409.97,233.57L410.28,233.75L410.62,234.02L410.99,234.26L411.37,234.47L411.78,234.74L412.15,235.05L412.56,235.33L412.87,235.57L413.21,235.84L413.51,236.12L413.85,236.29L414.16,236.57L414.43,236.84L414.67,237.15L415.01,237.43L415.29,237.67L415.52,237.87L415.73,238.18L415.97,238.46L416.24,238.73L416.44,238.97L416.61,239.25L416.89,239.49L417.02,239.76L417.23,240.04L417.4,240.28L417.6,240.56L417.74,240.83L417.87,241.07L418.05,241.35L418.18,241.59L418.32,241.79L418.45,242.07L418.56,242.31L418.69,242.58L418.76,242.79L418.9,243.03L419.03,243.24L419.17,243.48L419.17,243.69L419.27,243.89L419.34,244.1L419.41,244.34L419.48,244.55L419.54,244.75L419.61,244.92L419.68,245.13L419.68,245.27L419.75,245.44L419.82,245.65L419.82,245.85L419.85,245.99L419.85,246.09L419.92,246.23L419.99,246.44L419.99,246.88L420.06,247.09L420.06,247.43L420.12,247.47L420.12,247.61L404.86,258.65L404.86,258.78L404.89,258.92L404.89,259.13L404.96,259.3L404.96,259.51L405.03,259.85L405.03,259.95L405.1,260.09L405.1,260.3L405.17,260.43L405.17,260.74L405.24,260.95L405.3,261.23L405.3,261.81L405.37,262.05L405.37,262.26L405.44,262.53L405.44,262.77L405.51,263.05L405.51,263.5L405.54,263.77L405.54,264.29L405.61,264.56L405.61,264.87L405.68,265.15L405.68,266.63L405.75,266.9L405.75,270.82L405.68,271.2L405.68,272.92L405.61,273.16L405.54,273.5L405.51,273.81L405.51,274.09L405.44,274.43L405.44,274.74L405.37,275.02L405.37,275.33L405.3,275.6L405.24,275.91L405.17,276.19L405.17,276.5L405.1,276.77L405.1,277.15L405.03,277.42L404.96,277.77L404.89,278.01L404.86,278.35L404.79,278.59L404.72,278.94L404.66,279.18L404.59,279.52L404.52,279.76L404.45,280.11L404.38,280.38L404.32,280.69L404.25,281.04L404.21,281.28L404.08,281.62L404.01,281.93L403.94,282.2L403.87,282.51L403.74,282.79L403.67,283.06L403.57,283.37L403.5,283.65L403.36,283.96L403.29,284.23L403.23,284.47L403.09,284.82L402.95,285.06L402.92,285.4L402.78,285.68L402.71,285.92L402.51,286.26L402.44,286.5L402.31,286.78L402.2,287.09L402.07,287.36L401.93,287.64L401.79,287.88L401.66,288.15L401.56,288.4L401.42,288.67L401.22,288.98L401.15,289.26L400.98,289.53L400.84,289.77L400.7,290.05L400.57,290.32L400.36,290.56L400.26,290.84L400.06,291.01L399.92,291.35L399.72,291.63L399.65,291.87L399.65,292.08L399.78,292.32L399.92,292.52L400.19,292.73L400.36,292.87L400.7,293.04L400.91,293.18L401.22,293.24L401.49,293.31L401.73,293.38L402,293.45L402.14,293.52L402.31,293.52L402.37,293.38L402.51,293.18L402.71,292.97L402.78,292.8L402.85,292.66L402.95,292.45L403.09,292.32L403.23,292.08L403.36,291.87L403.5,291.63L403.67,291.42L403.8,291.08L403.94,290.84L404.15,290.49L404.25,290.18L404.45,289.84L404.66,289.53L404.86,289.12L405.03,288.74L405.17,288.33L405.37,287.88L405.54,287.5L405.75,287.02L405.95,286.5L406.16,286.06L406.33,285.54L406.53,285.06L406.67,284.47L406.84,283.96L406.97,283.37L407.18,282.79L407.31,282.2L407.48,281.62L407.62,280.97L407.82,280.31L407.96,279.66L408.1,278.94L408.2,278.22L408.34,277.56L408.47,276.77L408.54,276.05L408.68,275.33L408.74,274.54L408.78,273.71L408.85,272.92L408.91,272.13L408.98,271.27L408.98,270.44L409.05,269.58L409.05,267.83L408.98,266.83L408.91,265.9L408.85,264.94L408.85,264.01L408.74,263.05L408.68,261.98L408.54,261.02L408.4,260.02L423.36,249.5L423.36,247.61L423.29,247.43L423.29,247.02L423.22,246.81L423.22,246.57L423.16,246.37L423.16,246.09L423.09,245.85L423.05,245.58L423.05,245.34L422.92,245.06L422.85,244.79L422.85,244.55L422.78,244.27L422.64,243.96L422.58,243.69L422.44,243.38L422.34,243.03L422.2,242.72L422.13,242.38L422,242.14L421.86,241.79L421.76,241.48L421.55,241.14L421.42,240.83L421.21,240.49L421.11,240.18L420.91,239.83L420.7,239.49L420.5,239.18L420.26,238.8L419.99,238.46L419.82,238.08L419.54,237.74L419.27,237.43L419.03,237.01L418.69,236.7L418.45,236.36L418.11,236.05L417.81,235.64L417.47,235.33L417.16,234.98L416.75,234.67L416.44,234.33L416.04,233.95L415.66,233.61L415.22,233.23L414.74,232.89L414.37,232.58L413.92,232.3L413.45,231.99L413.07,231.65L412.63,231.41L412.22,231.13L411.78,230.89L411.33,230.62L410.92,230.34L410.55,230.17L410.07,229.96L409.7,229.76L409.32,229.58L408.91,229.38L408.47,229.17L408.1,229.03L407.69,228.86L407.31,228.72L406.9,228.59L406.16,228.31L405.81,228.28L405.44,228.14L405.1,228L404.72,227.93L404.38,227.86L404.08,227.8L403.74,227.73L403.36,227.66L403.09,227.66L402.78,227.56L402.44,227.49L401.86,227.49L401.56,227.42L401.28,227.35L400.77,227.35L400.5,227.28L398.32,227.28L398.05,227.35L397.84,227.35L397.67,227.42L397.47,227.42L397.47,227.49L388.34,247.23L386.77,247.23L386.6,247.3L386.26,247.3L385.99,247.37L385.68,247.43L385.34,247.43L384.96,247.47L384.59,247.54L384.18,247.61L383.81,247.67L383.36,247.74L382.89,247.81L382.44,247.88L382,248.02L381.52,248.09L381.01,248.12L380.5,248.26L380.06,248.4L379.48,248.53L378.93,248.74L378.42,248.84L377.91,249.05L376.75,249.33L376.17,249.5L375.6,249.7L374.98,249.91L374.4,250.15L373.76,250.36L373.18,250.63L372.6,250.87L371.95,251.15L371.37,251.39L370.72,251.73L370.14,252.01L369.5,252.32L368.92,252.66L368.27,253.04L367.62,253.35L367.04,253.76L366.4,254.07L365.82,254.48L365.17,254.93L364.56,255.34L363.4,256.24L362.75,256.75L362.17,257.24L361.59,257.75L361.01,258.27L360.44,258.78L359.92,259.37L359.38,259.95L358.8,260.61L359.52,264.56Z"/>
    </g>
    <g transform="matrix(0.821554,0,0,0.821554,-200.775,-155.383)">
        <path d="M401.84,259.47L402.12,259.13L402.29,258.82L402.49,258.41L402.69,258.1L402.9,257.69L403,257.31L403.21,256.93L403.34,256.52L403.41,256.14L403.55,255.73L403.58,255.28L403.72,254.91L403.72,254.5L403.78,254.05L403.85,253.67L403.92,253.19L403.85,252.75L403.85,252.3L403.78,251.82L403.78,251.37L403.72,250.93L403.65,250.45L403.55,250L403.48,249.55L403.34,249.04L403.21,248.56L403.07,248.11L402.93,247.67L402.76,247.12L402.63,246.67L402.42,246.16L402.25,245.71L401.98,245.16L401.78,244.72L401.54,244.2L401.26,243.75L400.99,243.21L400.75,242.69L400.41,242.24L400.18,241.73L399.83,241.25L399.53,240.74L399.12,240.22L398.81,239.77L398.41,239.23L398.1,238.78L397.69,238.26L397.32,237.82L396.94,237.27L396.46,236.75L396.09,236.31L395.65,235.86L394.73,234.94L394.29,234.49L393.81,234.01L393.3,233.49L392.79,233.05L392.28,232.6L391.77,232.19L391.19,231.74L390.64,231.3L390.13,230.89L389.62,230.51L388.98,230.03L387.82,229.27L387.31,228.86L386.63,228.48L386.05,228.07L385.54,227.76L384.96,227.42L384.31,227.11L383.73,226.73L383.15,226.46L382.58,226.19L382,225.88L381.42,225.6L380.81,225.36L380.23,225.16L379.65,224.88L379.07,224.64L378.49,224.37L377.91,224.23L377.33,224.06L376.75,223.85L376.18,223.65L375.63,223.51L375.05,223.34L374.47,223.2L373.96,223.06L373.38,222.99L372.81,222.86L372.29,222.79L371.75,222.75L371.24,222.69L370.66,222.62L369.64,222.48L367.63,222.48L367.12,222.55L366.58,222.55L366.13,222.62L365.69,222.69L365.21,222.75L364.7,222.79L364.33,222.93L363.89,222.99L363.48,223.2L363.03,223.34L362.63,223.44L362.25,223.58L361.88,223.78L361.4,223.99L361.09,224.16L360.69,224.37L360.38,224.64L360.01,224.81L359.66,225.09L359.39,225.36L359.09,225.67L358.75,225.95L358.51,226.19L358.23,226.53L358,226.91L357.72,227.18L357.52,227.49L357.28,227.9L357.08,228.21L356.94,228.55L356.74,228.93L356.57,229.34L356.5,229.72L356.36,230.1L356.23,230.51L356.16,230.89L356.09,231.33L356.06,231.74L355.99,232.12L355.99,233.05L355.92,233.49L355.92,233.91L355.99,234.35L356.06,234.8L356.06,235.28L356.09,235.79L356.23,236.24L356.29,236.69L356.36,237.17L356.57,237.68L356.7,238.13L356.81,238.57L357.01,239.12L357.15,239.64L357.35,240.08L357.59,240.6L357.79,241.08L358,241.59L358.23,242.04L358.51,242.55L358.75,243.1L359.02,243.55L359.32,244.06L359.66,244.51L359.94,245.06L360.31,245.5L360.65,246.02L360.96,246.47L361.33,247.01L361.67,247.53L362.05,247.98L362.52,248.49L362.9,248.97L363.27,249.42L363.75,249.86L364.19,250.41L364.57,250.86L365.04,251.3L365.55,251.82L366.06,252.3L366.51,252.75L366.98,253.19L367.49,253.67L368.07,254.12L368.58,254.5L369.09,254.98L369.71,255.42L370.29,255.8L370.86,256.21L371.44,256.66L371.95,257.03L372.53,257.45L373.11,257.76L373.69,258.17L374.3,258.48L374.88,258.89L375.46,259.13L376.04,259.47L376.62,259.78L377.2,260.12L377.78,260.36L378.35,260.64L378.93,260.91L379.51,261.15L380.12,261.36L380.7,261.63L381.28,261.8L381.86,262.08L382.44,262.22L383.02,262.39L383.6,262.59L384.11,262.8L384.69,262.94L385.3,263.04L385.81,263.18L386.39,263.31L386.9,263.38L387.48,263.52L387.99,263.59L388.6,263.62L389.11,263.69L389.62,263.69L390.13,263.76L391.7,263.76L392.21,263.69L393.16,263.69L393.71,263.62L394.15,263.52L394.59,263.52L395.07,263.38L395.51,263.31L395.95,263.18L396.36,263.11L396.74,262.94L397.18,262.8L397.59,262.59L397.96,262.46L398.34,262.28L398.75,262.08L399.05,261.87L399.46,261.67L399.77,261.43L400.11,261.15L400.41,260.91L400.75,260.64L400.99,260.36L401.33,260.12L401.61,259.78L401.84,259.47Z"/>
    </g>
    <g transform="matrix(0.821554,0,0,0.821554,-200.775,-155.383)">
        <path d="M399.36,257.52L399.57,257.24L399.74,256.93L399.88,256.66L400.08,256.38L400.15,256.08L400.29,255.8L400.39,255.49L400.46,255.15L400.53,254.84L400.66,254.5L400.66,254.19L400.73,253.84L400.73,253.47L400.8,253.12L400.8,252.47L400.73,252.09L400.73,251.72L400.66,251.31L400.66,251L400.53,250.58L400.46,250.21L400.39,249.8L400.29,249.42L400.15,249.04L400.08,248.63L399.95,248.25L399.74,247.84L399.64,247.39L399.43,247.02L399.23,246.6L399.09,246.23L398.92,245.78L398.65,245.37L398.41,244.92L398.2,244.51L397.93,244.06L397.69,243.69L397.42,243.27L397.14,242.83L396.84,242.38L396.56,241.97L396.19,241.52L395.91,241.15L395.54,240.73L395.2,240.29L394.89,239.88L394.55,239.43L394.17,239.05L393.79,238.64L393.38,238.2L393.01,237.82L392.56,237.41L392.15,236.96L391.78,236.58L391.3,236.17L390.86,235.79L390.41,235.38L389.97,235L389.49,234.63L389.04,234.21L388.6,233.84L388.05,233.42L387.61,233.12L387.1,232.7L386.58,232.4L386.04,231.98L385.52,231.67L385.01,231.33L384.57,231.02L383.99,230.68L383.51,230.44L383,230.1L382.48,229.79L381.97,229.51L381.46,229.27L380.91,229L380.47,228.72L379.95,228.55L379.44,228.28L378.89,228.04L377.87,227.62L377.43,227.42L376.91,227.25L376.37,227.11L375.92,226.9L375.41,226.77L374.96,226.6L374.42,226.46L373.91,226.32L373.46,226.25L372.98,226.11L372.54,226.05L372.09,225.94L371.65,225.87L371.1,225.81L370.66,225.74L370.21,225.67L369.8,225.67L369.36,225.6L367.28,225.6L366.9,225.67L366.49,225.74L366.11,225.74L365.74,225.81L365.4,225.87L365.02,226.01L364.61,226.05L364.3,226.18L363.96,226.25L363.65,226.39L363.31,226.53L363.07,226.73L362.73,226.84L362.49,227.04L362.15,227.18L361.91,227.38L361.64,227.56L361.36,227.83L361.12,228.04L360.92,228.28L360.71,228.55L360.54,228.79L360.34,229.07L360.13,229.27L359.96,229.58L359.83,229.86L359.69,230.1L359.55,230.44L359.42,230.75L359.35,231.09L359.28,231.4L359.18,231.74L359.18,232.05L359.11,232.4L359.04,232.7L359.04,233.42L359.11,233.84L359.11,234.49L359.18,234.87L359.25,235.28L359.28,235.66L359.35,236.03L359.42,236.44L359.55,236.82L359.62,237.23L359.76,237.61L359.89,237.99L360.07,238.4L360.27,238.85L360.41,239.22L360.61,239.64L360.78,240.08L360.99,240.49L361.19,240.94L361.43,241.32L361.64,241.73L361.91,242.18L362.15,242.55L362.42,242.97L362.73,243.41L363,243.82L363.24,244.27L363.59,244.65L363.96,245.06L364.23,245.51L364.54,245.95L364.95,246.36L365.33,246.81L365.67,247.19L366.05,247.6L366.46,247.98L366.83,248.46L367.21,248.83L367.62,249.21L368.06,249.69L368.51,250.07L368.92,250.45L369.36,250.86L369.8,251.24L370.35,251.65L370.8,252.03L371.24,252.4L371.75,252.82L372.3,253.19L372.81,253.54L373.26,253.84L373.77,254.19L374.32,254.57L374.76,254.91L375.27,255.22L375.78,255.49L376.3,255.8L376.84,256.14L377.36,256.38L377.87,256.66L378.38,257L378.86,257.24L379.37,257.45L379.89,257.69L380.47,257.96L380.91,258.17L381.46,258.34L381.9,258.55L382.41,258.82L382.93,258.96L383.41,259.13L383.92,259.27L384.43,259.47L384.88,259.61L385.39,259.78L385.87,259.85L386.38,259.99L386.82,260.13L387.3,260.19L387.75,260.3L388.26,260.37L388.7,260.43L389.11,260.5L389.56,260.5L390,260.57L390.48,260.57L390.92,260.64L392.09,260.64L392.56,260.57L392.94,260.57L393.32,260.5L393.73,260.5L394.1,260.43L394.44,260.3L394.82,260.3L395.16,260.19L395.54,260.06L395.84,259.92L396.19,259.85L396.49,259.64L396.84,259.54L397.11,259.4L397.42,259.2L397.69,258.99L398,258.89L398.2,258.68L398.51,258.48L398.72,258.24L398.99,257.96L399.16,257.76L399.36,257.52Z" style="fill:rgb(184,184,217);"/>
    </g>
    <g transform="matrix(0.821554,0,0,0.821554,-200.775,-159.721)">
        <path d="M379.28,233.52L379.08,233.52L378.94,233.59L378.81,233.66L378.77,233.73L378.57,233.79L378.43,233.86L378.23,233.93L378.06,234.07L377.79,234.17L377.58,234.31L377.34,234.45L377.14,234.65L376.87,234.82L376.63,235.03L376.29,235.17L376.12,235.41L375.78,235.68L375.54,235.89L375.27,236.13L374.93,236.4L374.82,236.61L374.69,236.71L374.55,236.85L374.48,237.06L374.28,237.19L374.18,237.33L374.04,237.5L373.91,237.64L373.77,237.85L373.63,238.02L373.53,238.22L373.46,238.43L373.33,238.57L373.19,238.74L373.05,238.94L372.99,239.15L372.88,239.36L372.82,239.6L372.75,239.8L372.61,240.01L372.54,240.18L372.41,240.46L372.34,240.66L372.27,240.9L372.24,241.18L372.1,241.42L372.03,241.62L372.03,241.97L371.96,242.14L371.9,242.48L371.83,242.72L371.83,243.31L371.76,243.58L371.76,245.74L371.83,246.05L371.83,246.33L371.9,246.64L371.9,246.98L371.96,247.29L372.03,247.63L372.1,247.94L372.17,248.28L372.24,248.59L372.34,248.94L372.48,249.24L372.54,249.52L372.68,249.86L372.75,250.1L372.92,250.45L373.05,250.76L373.19,251.1L373.39,251.34L373.53,251.68L373.7,251.92L373.84,252.27L374.04,252.51L374.28,252.85L374.48,253.12L374.69,253.36L374.93,253.64L375.2,253.95L375.4,254.22L375.64,254.43L375.91,254.67L376.22,254.94L376.49,255.15L376.83,255.39L377.14,255.67L377.48,255.84L377.79,256.04L378.13,256.25L378.43,256.45L378.81,256.63L379.22,256.83L379.59,256.97L380,257.14L380.44,257.28L380.82,257.42L381.23,257.55L381.67,257.62L382.04,257.76L382.45,257.79L382.83,257.86L383.23,257.93L383.68,258L385.18,258L385.48,257.93L385.89,257.93L386.27,257.86L386.64,257.86L386.98,257.79L387.29,257.69L387.63,257.62L388,257.55L388.34,257.42L388.65,257.28L388.99,257.14L389.3,257.11L389.57,256.9L389.87,256.76L390.21,256.56L390.52,256.45L390.79,256.25L391.13,256.11L391.37,255.91L391.64,255.73L391.88,255.53L392.16,255.25L392.43,255.08L392.67,254.88L392.87,254.6L393.11,254.43L393.31,254.15L393.59,253.95L393.76,253.71L393.96,253.43L394.16,253.19L394.37,252.92L394.54,252.64L394.74,252.4L394.88,252.13L395.05,251.85L395.19,251.61L395.39,251.34L395.53,251.03L395.66,250.76L395.7,250.52L395.83,250.24L395.97,249.9L396.04,249.66L396.11,249.31L396.24,249.07L396.24,248.8L396.34,248.56L396.34,248.21L396.41,247.94L396.41,247.7L396.48,247.43L396.17,246.91L395.83,246.53L395.46,245.98L395.12,245.61L394.81,245.23L394.4,244.75L394.1,244.37L393.76,243.96L393.38,243.58L393.01,243.2L391.88,242.07L391.58,241.76L391.17,241.42L390.86,241.11L390.49,240.76L390.08,240.39L389.7,240.04L389.36,239.8L388.99,239.46L388.65,239.22L388.27,238.94L387.93,238.67L387.56,238.43L387.25,238.09L386.84,237.85L386.54,237.64L386.2,237.37L385.82,237.19L385.48,236.99L385.24,236.78L384.9,236.54L384.6,236.34L384.26,236.13L383.95,235.96L383.61,235.75L383.34,235.61L383.03,235.41L382.83,235.31L382.52,235.17L382.25,234.96L382.01,234.82L381.74,234.72L381.53,234.58L381.29,234.45L380.89,234.31L380.72,234.17L380.51,234.1L380.17,233.93L379.86,233.79L379.66,233.73L379.42,233.59L379.28,233.52Z" style="fill:rgb(255,240,102);"/>
    </g>
    <g transform="matrix(0.821554,0,0,0.821554,-200.775,-160.904)">
        <path d="M382.39,234.96L382.01,234.96L381.74,235.03L381.43,235.09L381.09,235.16L380.79,235.23L380.52,235.37L380.18,235.47L379.94,235.61L379.6,235.74L379.36,235.95L379.02,236.12L378.78,236.33L378.44,236.46L378.2,236.67L377.93,236.91L377.66,237.18L377.35,237.35L377.08,237.63L376.84,237.9L376.57,238.07L376.37,238.35L376.13,238.66L375.86,238.93L375.65,239.27L375.48,239.58L375.28,239.92L375.01,240.23L374.91,240.57L374.7,240.88L374.5,241.22L374.36,241.53L374.26,241.94L374.06,242.25L373.92,242.59L373.78,242.9L373.68,243.28L373.55,243.69L373.48,244.07L373.41,244.41L373.41,244.78L373.27,245.2L373.27,245.57L373.21,245.88L373.21,247.08L373.27,247.46L373.34,247.87L373.41,248.24L373.48,248.62L373.55,249.03L373.68,249.34L373.72,249.75L373.92,250.13L374.06,250.5L374.26,250.91L374.43,251.22L374.63,251.63L374.91,251.94L375.14,252.35L375.42,252.66L375.72,253.07L375.99,253.38L376.71,254.1L377.08,254.44L377.49,254.75L377.86,255.02L378.24,255.26L378.65,255.54L379.02,255.78L379.5,255.98L379.87,256.19L380.24,256.32L380.65,256.5L381.09,256.63L381.47,256.7L381.88,256.84L382.32,256.91L382.73,257.04L383.1,257.04L383.54,257.08L384.32,257.08L384.76,257.04L385.17,256.98L385.55,256.91L385.99,256.91L386.4,256.77L386.77,256.7L387.11,256.56L387.55,256.43L387.96,256.32L388.33,256.19L388.71,255.98L389.05,255.78L389.42,255.61L389.76,255.4L390.07,255.19L390.48,254.96L390.78,254.75L391.12,254.48L391.43,254.17L391.77,253.96L392.01,253.65L392.28,253.31L392.58,253.07L392.86,252.73L393.13,252.42L393.37,252.08L393.64,251.77L393.88,251.43L394.08,251.05L394.28,250.64L394.45,250.26L394.66,249.92L394.79,249.54L394.93,249.17L395.07,248.76L395.24,248.38L395.3,247.9L395.44,247.52L395.44,247.15L395.58,246.67L395.58,246.29L395.64,245.85L395.64,244.99L398.16,248.69L398.09,248.96L398.02,249.27L397.96,249.54L397.89,249.85L397.82,250.13L397.68,250.47L397.65,250.71L397.51,251.05L397.38,251.36L397.24,251.63L397.11,251.87L397,252.22L396.87,252.46L396.73,252.8L396.53,253.11L396.39,253.38L396.22,253.65L396.02,253.96L395.81,254.17L395.64,254.48L395.24,255.02L395,255.26L394.79,255.54L394.52,255.78L394.35,256.05L394.08,256.32L393.81,256.5L393.57,256.77L393.3,257.04L393.06,257.22L392.79,257.49L392.48,257.69L392.21,257.87L391.87,258.07L391.63,258.28L391.29,258.38L390.99,258.59L390.65,258.79L390.41,259L390.07,259.1L389.76,259.24L389.42,259.37L389.05,259.51L388.71,259.65L388.33,259.75L387.99,259.89L387.69,259.95L387.31,260.02L386.91,260.09L386.6,260.16L386.19,260.3L385.82,260.3L385.48,260.33L385.1,260.33L384.7,260.4L384.32,260.33L383.54,260.33L383.17,260.3L382.76,260.3L382.39,260.23L382.01,260.16L381.6,260.09L381.23,259.95L380.82,259.89L380.45,259.75L380.14,259.68L379.73,259.58L379.43,259.44L379.02,259.24L378.71,259.17L378.37,259L378.07,258.86L377.73,258.65L377.42,258.52L377.08,258.35L376.71,258.14L376.44,257.93L376.2,257.73L375.79,257.56L375.55,257.35L375.21,257.08L374.97,256.91L374.7,256.63L374.43,256.39L374.19,256.19L373.92,255.91L373.41,255.4L373.21,255.13L372.97,254.89L372.7,254.54L372.49,254.3L372.32,254.03L372.12,253.72L371.91,253.38L371.71,253.11L371.54,252.73L371.4,252.46L371.2,252.08L371.06,251.77L370.89,251.43L370.83,251.12L370.62,250.78L370.55,250.4L370.42,250.06L370.38,249.75L370.25,249.34L370.18,248.96L370.11,248.55L370.04,248.24L369.98,247.8L369.98,247.39L369.91,247.01L369.91,246.67L369.84,246.22L369.84,245.85L369.91,245.44L369.91,244.58L369.98,244.2L370.04,243.76L370.11,243.28L370.18,242.9L370.32,242.46L370.38,241.98L370.55,241.6L370.55,241.46L370.62,241.29L370.69,241.09L370.76,240.95L370.83,240.68L370.96,240.5L371.06,240.16L371.2,239.92L371.27,239.72L371.4,239.58L371.47,239.44L371.61,239.31L371.68,239.13L371.85,238.79L371.98,238.62L372.12,238.42L372.25,238.28L372.32,238.07L372.49,237.9L372.63,237.7L372.76,237.49L372.9,237.32L373,237.11L373.21,236.91L373.34,236.7L373.55,236.53L373.72,236.33L373.85,236.12L374.06,235.95L374.26,235.74L374.43,235.61L374.63,235.4L374.84,235.23L375.01,235.03L375.28,234.89L375.48,234.72L375.65,234.51L375.93,234.37L376.2,234.17L376.44,234.07L376.71,233.86L376.95,233.72L377.22,233.59L377.49,233.42L377.73,233.28L378.07,233.14L378.37,233.01L378.65,232.87L378.95,232.73L379.29,232.7L379.6,232.56L382.39,234.96Z"/>
    </g>
    <g transform="matrix(0.821554,0,0,0.821554,-200.775,-148.876)">
        <path d="M417.97,210.07L418.04,210.13L418.1,210.2L418.31,210.37L418.51,210.58L418.68,210.85L418.82,210.96L418.96,211.16L419.09,211.3L419.26,211.5L419.4,211.68L419.53,211.88L419.67,212.09L419.87,212.33L419.98,212.53L420.18,212.81L420.32,213.05L420.52,213.39L420.69,213.63L420.83,213.97L421.03,214.28L421.17,214.62L421.34,214.93L421.48,215.34L421.68,215.72L421.85,216.13L421.99,216.5L422.19,216.88L422.33,217.36L422.46,217.74L422.57,218.18L422.7,218.66L422.91,219.18L423.04,219.69L423.11,220.14L423.21,220.68L423.35,221.2L423.42,221.78L423.55,222.36L423.62,222.94L423.69,223.53L423.76,224.18L423.79,224.69L423.86,225.41L423.86,226.03L423.93,226.71L423.93,228.08L423.86,228.8L423.86,229.52L423.79,230.24L423.76,231.03L423.69,231.81L423.62,232.6L423.48,233.35L423.35,234.21L423.21,235.07L423.11,235.89L422.97,236.44L422.84,236.95L422.7,237.46L422.57,238.05L422.46,238.56L422.33,239.11L422.19,239.62L421.99,240.2L421.85,240.65L421.68,241.23L421.54,241.78L421.34,242.29L421.17,242.81L420.96,243.32L420.76,243.9L420.62,244.42L420.39,244.97L420.25,245.48L419.98,245.99L419.81,246.51L419.53,247.05L419.33,247.57L419.16,248.08L418.89,248.66L418.61,249.11L418.44,249.66L418.17,250.17L417.93,250.68L417.66,251.2L417.39,251.78L417.15,252.26L416.88,252.84L416.57,253.29L416.3,253.8L415.99,254.31L415.72,254.86L415.45,255.38L415.14,255.89L414.8,256.4L414.56,256.92L414.22,257.4L413.91,257.91L413.57,258.42L413.34,258.94L413,259.49L412.62,259.93L412.28,260.45L412.04,260.96L411.63,261.51L411.33,262.02L410.99,262.47L410.68,262.98L410.27,263.49L409.96,264.04L409.56,264.49L409.25,265L408.84,265.51L408.53,266.06L408.16,266.51L407.82,267.02L407.44,267.53L407.04,268.01L406.73,268.53L406.32,269.04L409.11,270.48L409.11,270.41L409.18,270.27L409.32,270.14L409.49,269.9L409.56,269.76L409.69,269.62L409.83,269.42L409.96,269.32L410.2,268.84L410.34,268.66L410.54,268.39L410.75,268.12L410.85,267.88L411.05,267.6L411.33,267.36L411.5,267.02L411.7,266.75L411.97,266.44L412.14,266.1L412.42,265.72L412.62,265.41L412.86,265.07L413.13,264.69L413.34,264.28L413.57,263.97L413.91,263.56L414.15,263.19L414.43,262.74L414.63,262.33L414.94,261.88L415.21,261.44L415.45,261.03L415.72,260.58L415.99,260.14L416.3,259.66L416.57,259.21L416.88,258.77L417.15,258.29L417.39,257.84L417.66,257.33L417.97,256.88L418.24,256.34L418.58,255.89L418.82,255.38L419.09,254.93L419.33,254.38L419.6,253.94L419.87,253.36L420.11,252.91L420.39,252.36L420.62,251.92L420.83,251.4L421.1,250.89L421.34,250.34L421.61,249.9L421.82,249.38L421.99,248.87L422.26,248.39L422.46,247.88L422.63,247.43L422.77,246.92L422.97,246.44L423.14,246.06L423.28,245.62L423.48,245.14L423.62,244.76L423.79,244.31L423.93,243.9L424.06,243.46L424.2,243.08L424.34,242.67L424.44,242.29L424.57,241.81L424.71,241.44L424.85,241.13L424.98,240.65L425.05,240.34L425.15,239.93L425.29,239.55L425.36,239.14L425.43,238.83L425.56,238.46L425.63,238.12L425.7,237.74L425.73,237.4L425.87,237.02L425.94,236.68L426,236.37L426.07,236.03L426.14,235.72L426.21,235.38L426.28,235L426.28,234.66L426.35,234.35L426.38,234.01L426.38,233.7L426.45,233.35L426.45,233.05L426.52,232.7L426.52,232.4L426.58,232.05L426.58,231.4L426.65,231.09L426.65,230.82L426.72,230.44L426.72,224.59L426.65,224.04L426.58,223.59L426.58,223.15L426.52,222.64L426.45,222.16L426.38,221.71L426.38,221.33L426.28,220.85L426.21,220.41L426.07,220.03L426,219.55L425.87,219.18L425.73,218.73L425.7,218.32L425.56,217.94L425.43,217.53L425.29,217.16L425.15,216.78L425.05,216.44L424.91,216.06L424.78,215.65L424.64,215.34L424.51,215L424.34,214.69L424.2,214.28L424.06,213.97L423.93,213.7L423.76,213.39L423.62,213.05L423.48,212.81L423.35,212.53L423.21,212.22L423.04,211.95L422.91,211.68L422.77,211.44L422.57,211.16L422.46,210.89L422.33,210.72L422.19,210.51L421.99,210.24L421.92,210.07L421.75,209.86L421.61,209.66L421.48,209.48L421.41,209.35L421.27,209.14L421.2,209L420.96,208.76L420.9,208.56L420.76,208.49L420.56,208.25L420.52,208.11L420.25,207.84L417.97,210.07Z"/>
    </g>
    <g transform="matrix(-0.750099,0.335116,0.335116,0.750099,270.717,-250.396)">
        <path d="M346.155,238.035L356.132,238.035L355.483,241.754L346.222,241.74L346.155,238.035Z" style="fill:rgb(255,255,133);"/>
    </g>
    <g transform="matrix(-0.595645,0.565825,0.565825,0.595645,189.825,-278.405)">
        <path d="M359.414,221.297L370.434,221.297L370.091,224.726L358.781,224.711L359.414,221.297Z" style="fill:rgb(255,255,133);"/>
    </g>
    <g transform="matrix(-0.293903,0.767185,0.767185,0.293903,63.8483,-293.415)">
        <path d="M383.154,214.837L389.108,214.837L388.88,218.005L382.785,217.812L383.154,214.837Z" style="fill:rgb(255,255,133);"/>
    </g>
    <g transform="matrix(0.821554,0,0,0.821554,-200.775,-159.721)">
        <path d="M398.4,243.05L398.47,243.19L398.67,243.36L398.87,243.57L399.01,243.7L399.11,243.88L399.24,244.02L399.45,244.29L399.58,244.43L399.68,244.67L399.88,244.95L400.15,245.26L400.22,245.33L400.29,245.54L400.39,245.67L400.52,245.88L400.59,245.98L400.73,246.19L400.79,246.33L400.93,246.54L401,246.71L401.1,246.92L401.23,247.12L401.37,247.3L401.44,247.5L401.57,247.71L401.64,247.88L401.81,248.16L401.87,248.37L402.01,248.61L402.08,248.82L402.21,249.09L402.31,249.34L402.45,249.61L402.51,249.85L402.65,250.13L402.72,250.41L402.85,250.65L402.95,250.93L403.09,251.24L403.22,251.51L403.29,251.82L403.43,252.17L403.56,252.48L404.64,246.57L404.64,246.54L404.57,246.47L404.51,246.26L404.44,245.98L404.44,245.88L404.37,245.67L404.24,245.47L404.24,245.33L404.13,245.09L404.07,244.88L403.93,244.6L403.8,244.43L403.66,244.15L403.49,243.88L403.36,243.57L403.16,243.29L403.02,243.19L402.95,242.98L402.85,242.84L402.78,242.63L402.65,242.53L402.51,242.32L402.38,242.18L402.31,242.05L402.14,241.87L402.01,241.67L401.87,241.46L401.74,241.32L401.57,241.15L401.44,240.94L401.23,240.73L401.1,240.59L400.93,240.35L400.79,240.21L400.59,239.94L400.39,239.83L400.22,239.56L400.02,239.42L399.82,239.18L399.65,239.04L398.4,243.05Z"/>
    </g>
    <g transform="matrix(0.821554,0,0,0.821554,-200.775,-172.34)">
        <path d="M400.08,252.26L400.15,252.26L400.22,252.33L400.39,252.47L400.59,252.64L400.87,252.84L401.18,253.12L401.31,253.29L401.52,253.49L401.69,253.7L401.9,253.9L402.1,254.07L402.31,254.35L402.48,254.55L402.69,254.79L402.89,255.06L403.06,255.37L403.2,255.51L403.34,255.64L403.41,255.85L403.54,256.02L403.61,256.16L403.71,256.29L403.78,256.5L403.92,256.6L403.99,256.81L404.13,257.01L404.26,257.22L404.3,257.39L404.43,257.52L404.5,257.73L404.64,257.9L404.71,258.11L404.85,258.31L404.91,258.52L404.95,258.69L405.09,258.96L405.36,253.7L405.36,253.49L405.22,253.35L405.15,253.18L405.02,252.91L404.91,252.6L404.78,252.47L404.71,252.26L404.57,252.06L404.5,251.88L404.3,251.68L404.19,251.47L403.99,251.24L403.85,251.03L403.61,250.76L403.41,250.52L403.2,250.31L402.99,250.04L402.17,249.22L401.9,249.01L401.76,248.81L401.59,248.71L401.45,248.57L401.25,248.43L401.11,248.3L400.94,248.09L400.8,247.99L400.59,247.92L400.08,252.26Z"/>
    </g>
    <g transform="matrix(0.821554,0,0,0.821554,-200.775,-184.368)">
        <path d="M400.59,260.43L400.73,260.5L400.86,260.57L401.03,260.67L401.31,260.81L401.58,261.09L401.75,261.15L401.89,261.26L402.09,261.39L402.26,261.6L402.6,261.94L402.81,262.05L402.98,262.25L403.11,262.46L403.32,262.63L403.52,262.83L403.69,263.11L403.89,263.28L404.1,263.55L404.2,263.76L404.41,264L404.61,264.27L404.75,264.55L404.85,264.65L404.92,264.86L404.98,264.99L405.12,265.2L404.54,260.16L404.47,260.02L404.41,259.92L404.27,259.78L404.17,259.58L403.96,259.3L403.76,259.06L403.55,258.79L403.38,258.65L403.25,258.48L403.11,258.34L402.98,258.14L402.81,258L402.6,257.83L402.4,257.62L402.23,257.49L402.02,257.35L401.75,257.18L401.58,257.04L401.38,256.9L401.03,256.7L400.86,256.59L400.52,256.39L400.32,256.32L400.59,260.43Z"/>
    </g>
    <g transform="matrix(0.821554,0,0,0.821554,-200.775,-193.043)">
        <path d="M402,265.18L402.07,265.18L402.27,265.35L402.37,265.41L402.57,265.62L402.7,265.82L402.93,266.06L403.13,266.26L403.4,266.6L403.53,266.7L403.63,266.84L403.76,267.04L403.9,267.24L404.03,267.41L404.2,267.62L404.33,267.82L404.46,267.99L404.6,268.26L404.8,268.53L405.1,269.04L407.76,266.97L407.76,266.9L407.69,266.84L407.63,266.7L407.56,266.53L407.43,266.33L407.33,266.06L407.13,265.82L406.93,265.55L406.79,265.35L406.69,265.24L406.56,265.04L406.43,264.9L406.29,264.7L406.16,264.6L406.06,264.4L405.93,264.26L405.73,264.06L405.6,263.96L405.43,263.75L405.23,263.62L405.1,263.41L404.9,263.24L404.73,263.11L404.53,263.04L402,265.18Z"/>
    </g>
    <g transform="matrix(0.821554,0,0,0.821554,-200.775,-171.748)">
        <path d="M360.42,250.04L360.35,250.04L360.35,250.17L360.28,250.31L360.28,250.38L360.21,250.55L360.21,250.69L360.14,250.89L360.14,251.1L360.07,251.27L360.07,252.57L360,252.7L360,253.49L360.07,253.7L360.07,254.41L360.14,254.58L360.14,254.72L360.21,254.99L360.21,255.17L360.28,255.37L360.28,255.58L360.35,255.78L360.35,255.95L360.42,256.16L360.49,256.36L360.56,256.6L360.63,256.81L360.66,257.08L360.73,257.25L360.8,257.52L360.87,257.73L360.94,257.97L361.08,258.17L361.15,258.41L361.29,258.69L361.32,258.96L364.32,255.3L364.25,255.23L364.25,255.13L364.11,254.86L364.04,254.65L363.97,254.48L363.94,254.28L363.87,254.07L363.87,253.87L363.8,253.63L363.73,253.35L363.66,253.11L363.66,252.91L363.59,252.7L363.52,252.57L363.52,252.26L363.45,252.12L363.45,251.68L363.38,251.47L363.38,251.27L363.31,251.17L363.31,248.36L363.38,248.16L363.38,247.95L363.45,247.71L363.45,247.58L363.52,247.3L363.59,247.2L360.42,250.04Z"/>
    </g>
    <g transform="matrix(0.821554,0,0,0.821554,-200.775,-198.367)">
        <path d="M405.84,268.46L405.91,268.46L406.08,268.63L406.29,268.7L406.42,268.83L406.7,269.03L406.94,269.26L407.14,269.53L407.38,269.8L407.52,269.96L407.73,270.1L407.86,270.3L408.03,270.46L408.31,270.86L408.45,271.1L408.58,271.3L408.75,271.57L408.89,271.8L409.1,272.07L409.23,272.4L412.08,270.43L412.01,270.36L411.94,270.3L411.91,270.1L411.84,269.96L411.7,269.73L411.57,269.46L411.43,269.33L411.36,269.2L411.29,269.03L411.26,268.9L411.12,268.7L410.91,268.53L410.78,268.33L410.71,268.2L410.54,268L410.4,267.83L410.26,267.63L410.13,267.43L409.95,267.29L409.75,267.13L409.54,266.93L409.34,266.79L409.17,266.63L408.96,266.43L408.75,266.29L408.58,266.16L405.84,268.46Z"/>
    </g>
    <g transform="matrix(0.821554,0,0,0.821554,-200.775,-203.888)">
        <path d="M410.16,271.46L410.29,271.53L410.36,271.6L410.56,271.74L410.69,271.87L410.93,272.04L411.19,272.32L411.43,272.59L411.56,272.69L411.69,272.83L411.83,273.03L411.96,273.24L412.06,273.41L412.4,273.75L412.6,273.99L412.7,274.19L412.83,274.46L412.96,274.64L413.1,274.91L413.23,275.18L413.33,275.42L413.46,275.69L413.66,276L416.4,273.99L416.4,273.92L416.33,273.89L416.27,273.68L416.2,273.48L416.07,273.24L415.83,272.76L415.77,272.59L415.63,272.45L415.57,272.25L415.43,272.04L415.3,271.87L415.2,271.67L415.07,271.46L414.86,271.26L414.73,271.09L414.56,270.88L414.43,270.68L414.23,270.51L414.03,270.3L413.86,270.1L413.66,269.96L413.46,269.79L413.3,269.59L413.03,269.45L412.83,269.28L410.16,271.46Z"/>
    </g>
    <g transform="matrix(0.821554,0,0,0.821554,-200.775,-209.211)">
        <path d="M414.24,274.4L414.31,274.47L414.44,274.54L414.57,274.67L414.74,274.88L414.94,275.06L415.08,275.2L415.34,275.48L415.51,275.69L415.64,275.79L415.78,275.93L415.91,276.14L416.01,276.35L416.14,276.53L416.35,276.81L416.48,277.02L416.65,277.26L416.78,277.54L416.91,277.71L417.05,278.06L417.18,278.34L417.28,278.59L417.41,278.94L417.48,279.08L417.55,279.25L417.62,279.39L417.68,279.6L419.52,278.41L419.52,278.2L419.45,278.06L419.45,277.78L419.39,277.61L419.32,277.47L419.25,277.26L419.25,277.12L419.19,276.88L419.15,276.67L419.15,276.46L419.09,276.28L418.95,276L418.89,275.72L418.75,275.55L418.68,275.27L418.55,275.02L418.45,274.74L418.38,274.47L418.25,274.22L418.05,273.94L417.92,273.7L417.82,273.42L417.62,273.14L417.41,272.89L417.28,272.61L417.11,272.37L416.91,272.16L414.24,274.4Z"/>
    </g>
    <g transform="matrix(0.821554,0,0,0.821554,-200.775,-176.875)">
        <path d="M365.54,252.62L365.48,252.62L365.48,252.83L365.41,252.96L365.41,253.27L365.35,253.41L365.35,253.62L365.28,253.79L365.28,256.99L365.35,257.13L365.35,257.34L365.41,257.47L365.41,257.85L365.48,257.99L365.48,258.3L365.54,258.51L365.61,258.64L365.61,258.85L365.67,258.95L365.74,259.16L365.74,259.3L365.8,259.51L365.87,259.61L365.9,259.82L365.97,259.95L366.03,260.16L368.64,256.82L368.64,256.68L368.57,256.54L368.57,256.34L368.51,256.17L368.51,255.89L368.44,255.75L368.44,255.61L368.38,255.44L368.38,255.1L368.35,254.96L368.35,252.76L368.38,252.62L368.44,252.41L368.51,252.24L365.54,252.62Z"/>
    </g>
    <g transform="matrix(0.821554,0,0,0.821554,-200.775,-181.016)">
        <path d="M370.21,257.28L370.15,257.48L370.15,257.54L370.08,257.74L370.08,258.72L370.15,258.98L370.15,259.21L370.21,259.54L370.21,259.67L370.28,259.83L370.35,259.96L370.42,260.16L373.2,257.74L370.21,257.28Z"/>
    </g>
    <g transform="matrix(0.821554,0,0,0.821554,-200.775,-148.088)">
        <path d="M412.73,210.76L412.87,210.83L412.94,210.89L413.14,211.1L413.24,211.24L413.52,211.48L413.65,211.62L413.79,211.75L413.89,211.89L414.09,212.06L414.23,212.27L414.37,212.41L414.5,212.61L414.67,212.85L414.81,213.06L415.01,213.3L415.15,213.57L415.32,213.85L415.52,214.09L415.66,214.36L415.86,214.6L416.03,214.95L416.17,215.26L416.37,215.6L416.51,215.91L416.68,216.32L416.82,216.63L417.02,217.04L417.16,217.42L417.26,217.9L417.46,218.28L417.6,218.66L417.73,219.14L417.84,219.58L417.97,220.03L418.04,220.55L418.18,221.03L418.31,221.54L418.31,222.06L418.45,222.57L418.48,223.16L418.55,223.77L418.62,224.36L418.62,224.87L418.69,225.53L418.69,227.41L418.62,228.14L418.62,228.79L418.48,229.44L418.45,230.16L418.38,230.88L418.31,231.67L418.18,232.39L418.04,233.15L417.84,233.94L417.73,234.8L417.6,235.25L417.46,235.69L417.26,236.24L417.16,236.69L417.02,237.2L416.82,237.65L416.68,238.2L416.54,238.71L416.37,239.23L416.17,239.74L415.97,240.29L415.8,240.81L415.52,241.32L415.32,241.91L415.15,242.42L414.94,243.01L414.67,243.56L414.43,244.07L414.16,244.66L413.89,245.17L413.65,245.76L413.38,246.27L413.14,246.82L412.87,247.4L412.6,247.99L412.29,248.5L412.02,249.09L411.78,249.67L411.44,250.19L411.2,250.8L410.86,251.32L410.62,251.9L410.28,252.42L409.98,252.93L409.64,253.52L409.33,254.07L408.99,254.58L408.69,255.17L408.35,255.68L408.07,256.26L407.7,256.78L407.39,257.33L407.05,257.84L406.75,258.36L406.41,258.87L406.1,259.39L405.76,259.94L405.45,260.45L405.05,260.9L404.74,261.38L404.4,261.9L404.03,262.41L403.69,262.86L403.38,263.34L403.04,263.85L402.73,264.3L402.33,264.75L402.02,265.16L401.68,265.61L401.37,266.05L401.03,266.46L400.73,266.91L400.39,267.32L400.08,267.77L403.62,268.56L403.62,268.49L403.69,268.42L403.82,268.22L404.03,267.98L404.09,267.84L404.2,267.63L404.33,267.43L404.47,267.32L404.6,267.05L404.74,266.84L404.91,266.6L405.11,266.4L405.25,266.12L405.45,265.88L405.62,265.54L405.9,265.3L406.1,264.95L406.27,264.64L406.47,264.3L406.75,263.99L406.99,263.58L407.19,263.27L407.43,262.86L407.77,262.55L407.97,262.07L408.21,261.76L408.48,261.31L408.79,260.9L409.06,260.45L409.33,260.08L409.57,259.6L409.91,259.15L410.15,258.7L410.42,258.22L410.66,257.78L411,257.33L411.27,256.85L411.51,256.33L411.85,255.89L412.09,255.44L412.36,254.89L412.67,254.38L412.94,253.93L413.24,253.48L413.52,252.93L413.79,252.42L414.03,251.9L414.3,251.39L414.57,250.84L414.81,250.39L415.08,249.88L415.32,249.36L415.59,248.85L415.86,248.37L416.03,247.85L416.31,247.33L416.54,246.82L416.75,246.34L417.02,245.82L417.19,245.38L417.39,244.86L417.6,244.38L417.73,243.93L417.9,243.56L418.04,243.08L418.24,242.7L418.38,242.25L418.55,241.84L418.69,241.46L418.82,241.05L418.96,240.67L419.13,240.29L419.2,239.88L419.4,239.57L419.54,239.23L419.67,238.92L419.74,238.51L419.84,238.2L419.91,237.86L420.05,237.55L420.12,237.2L420.25,236.89L420.32,236.55L420.42,236.24L420.49,235.9L420.63,235.66L420.69,235.31L420.76,235.04L420.83,234.8L420.9,234.46L420.97,234.22L421.03,233.94L421.07,233.63L421.14,233.36L421.14,233.08L421.2,232.77L421.27,232.5L421.34,232.26L421.34,231.98L421.41,231.74L421.41,231.47L421.48,231.19L421.48,230.61L421.54,230.37L421.54,230.09L421.61,229.82L421.61,229.24L421.68,228.99L421.68,224.8L421.61,224.36L421.61,223.81L421.54,223.36L421.48,222.92L421.48,222.4L421.41,221.99L421.34,221.54L421.27,221.16L421.14,220.68L421.07,220.24L421.03,219.86L420.97,219.45L420.83,219L420.69,218.59L420.63,218.28L420.49,217.9L420.39,217.49L420.25,217.18L420.12,216.77L420.05,216.46L419.84,216.12L419.74,215.74L419.61,215.39L419.47,215.15L419.33,214.81L419.2,214.5L419.09,214.16L418.89,213.95L418.75,213.64L418.62,213.37L418.48,213.13L418.38,212.85L418.18,212.61L418.04,212.34L417.9,212.13L417.8,211.96L417.6,211.68L417.46,211.48L417.33,211.31L417.19,211.1L417.09,210.89L416.95,210.69L416.82,210.59L416.68,210.38L416.44,210.04L416.24,209.8L416.03,209.52L415.86,209.32L415.66,209.14L415.32,208.8L412.73,210.76Z"/>
    </g>
    <g transform="matrix(0.821554,0,0,0.821554,-200.775,0.580735)">
        <path d="M279.56,206.872C282.48,210.12 296.17,209.62 298.59,206.372C301,203.124 288.99,190.05 294.08,187.38C299.17,184.72 328.12,194.71 329.12,190.38C330.12,186.05 302.17,165.98 300.09,161.4C298,156.82 317.02,167.06 316.61,162.9C316.19,158.74 297.58,140.83 297.58,136.42C297.58,132 317.02,140.25 316.61,136.42C316.19,132.58 295.83,117.51 295.08,113.43C294.33,109.35 313.18,116.26 312.1,111.93C311.02,107.6 290.58,86.28 288.57,87.45C285.57,87.61 267.97,108.77 267.05,112.93C266.13,117.09 284.24,108.52 283.07,112.43C281.9,116.34 260.46,132.5 260.04,136.42C259.63,140.33 280.65,131.5 280.57,135.92C280.48,140.33 260.21,158.74 259.54,162.9C258.87,167.06 278.31,156.4 276.56,160.9C274.81,165.4 248.28,185.55 249.03,189.88C249.78,194.21 275.98,184.05 281.07,186.88C286.15,189.72 276.64,203.624 279.56,206.872Z" style="fill:rgb(91,155,213);stroke:black;stroke-width:1.22px;"/>
    </g>
    <g transform="matrix(1,0,0,1,-115.451,-21.4205)">
        <path d="M304.425,139.557L304.425,90.716L457.085,90.716L457.085,208.474L304.425,208.474L304.425,150" style="fill:none;stroke:black;stroke-width:1.5px;stroke-linecap:round;stroke-miterlimit:1.5;"/>
    </g>
    <g transform="matrix(1,0,0,1,-115.451,-21.4205)">
        <g transform="matrix(1,-0,-0,1,115.451,21.4205)">
            <path d="M182.461,78.004L188.974,81.816L182.016,84.739L182.461,78.004Z" style="fill:rgb(255,0,0);"/>
            <path d="M36.72,71.76C36.72,71.76 156.523,79.673 183.586,81.46" style="fill:none;stroke:rgb(255,0,0);stroke-width:1.5px;stroke-linecap:round;stroke-miterlimit:1.5;"/>
        </g>
    </g>
    <g transform="matrix(1,0,0,1,-115.451,-21.4205)">
        <g transform="matrix(1,-0,-0,1,115.451,21.4205)">
            <path d="M182.912,94.084L188.974,98.579L181.741,100.732L182.912,94.084Z" style="fill:rgb(255,0,0);"/>
            <path d="M36.72,71.76C36.72,71.76 156.731,92.899 183.656,97.642" style="fill:none;stroke:rgb(255,0,0);stroke-width:1.5px;stroke-linecap:round;stroke-miterlimit:1.5;"/>
        </g>
    </g>
    <g transform="matrix(1,0,0,1,-115.451,-21.4205)">
        <g transform="matrix(1,-0,-0,1,115.451,21.4205)">
            <path d="M184.35,138.909L188.974,144.874L181.428,144.994L184.35,138.909Z" style="fill:rgb(255,0,0);"/>
            <path d="M36.72,71.76C36.72,71.76 158.1,130.047 184.106,142.536" style="fill:none;stroke:rgb(255,0,0);stroke-width:1.5px;stroke-linecap:round;stroke-miterlimit:1.5;"/>
        </g>
    </g>
    <g transform="matrix(1,0,0,1,-115.451,-21.4205)">
        <g transform="matrix(1,-0,-0,1,115.451,21.4205)">
            <path d="M336.3,168.236L341.634,173.575L334.162,174.639L336.3,168.236Z" style="fill:rgb(255,0,0);"/>
            <path d="M36.72,71.76C36.72,71.76 296.585,158.533 336.512,171.865" style="fill:none;stroke:rgb(255,0,0);stroke-width:1.5px;stroke-linecap:round;stroke-miterlimit:1.5;"/>
        </g>
    </g>
    <g transform="matrix(1,0,0,1,-115.451,-21.4205)">
        <g transform="matrix(1,-0,-0,1,115.451,21.4205)">
            <path d="M181.619,80.127L188.974,81.816L183.21,86.687L181.619,80.127Z" style="fill:rgb(149,79,114);"/>
            <path d="M58.902,113.364C58.902,113.364 159.413,88.986 183.726,83.089" style="fill:none;stroke:rgb(149,79,114);stroke-width:1.5px;stroke-linecap:round;stroke-miterlimit:1.5;"/>
        </g>
    </g>
    <g transform="matrix(1,0,0,1,-115.451,-21.4205)">
        <g transform="matrix(1,-0,-0,1,115.451,21.4205)">
            <path d="M181.886,95.988L188.974,98.579L182.649,102.694L181.886,95.988Z" style="fill:rgb(149,79,114);"/>
            <path d="M58.902,113.364C58.902,113.364 159.091,101.975 183.609,99.188" style="fill:none;stroke:rgb(149,79,114);stroke-width:1.5px;stroke-linecap:round;stroke-miterlimit:1.5;"/>
        </g>
    </g>
    <g transform="matrix(1,0,0,1,-115.451,-21.4205)">
        <g transform="matrix(1,-0,-0,1,115.451,21.4205)">
            <path d="M183.209,140.004L188.974,144.874L181.619,146.565L183.209,140.004Z" style="fill:rgb(149,79,114);"/>
            <path d="M58.902,113.364C58.902,113.364 159.412,137.712 183.726,143.602" style="fill:none;stroke:rgb(149,79,114);stroke-width:1.5px;stroke-linecap:round;stroke-miterlimit:1.5;"/>
        </g>
    </g>
    <g transform="matrix(1,0,0,1,-115.451,-21.4205)">
        <g transform="matrix(1,-0,-0,1,115.451,21.4205)">
            <path d="M335.144,129.886L341.634,133.737L334.659,136.618L335.144,129.886Z" style="fill:rgb(149,79,114);"/>
            <path d="M58.902,113.364C58.902,113.364 297.189,130.534 336.248,133.349" style="fill:none;stroke:rgb(149,79,114);stroke-width:1.5px;stroke-linecap:round;stroke-miterlimit:1.5;"/>
        </g>
    </g>
    <g transform="matrix(0,0.821554,0.821554,0,-135.609,-164.847)">
        <circle cx="288" cy="209.76" r="3" style="fill:rgb(255,0,0);stroke:black;stroke-width:1.22px;"/>
    </g>
    <g transform="matrix(0,0.821554,0.821554,0,-71.8238,-146.313)">
        <circle cx="316.08" cy="159.12" r="3" style="fill:rgb(149,79,114);stroke:black;stroke-width:1.22px;"/>
    </g>
    <g transform="matrix(0.740286,0,0,0.740286,-76.1382,6.17118)">
        <text x="117.321px" y="70.99px" style="font-family:'SFPro-Medium', 'SF Pro';font-size:24.256px;">Object</text>
    </g>
    <g transform="matrix(0.740286,0,0,0.740286,76.1157,7.71065)">
        <text x="117.996px" y="70.99px" style="font-family:'SFPro-Medium', 'SF Pro';font-size:24.256px;">Barrier</text>
    </g>
    <g transform="matrix(0.740286,0,0,0.740286,228.203,7.80121)">
        <text x="130.219px" y="70.99px" style="font-family:'SFPro-Medium', 'SF Pro';font-size:24.256px;">Film</text>
    </g>
</svg>
