<?xml version="1.0" encoding="UTF-8" standalone="no"?>
<!DOCTYPE svg PUBLIC "-//W3C//DTD SVG 1.1//EN" "http://www.w3.org/Graphics/SVG/1.1/DTD/svg11.dtd">
<svg width="100%" height="100%" viewBox="0 0 600 295" version="1.1" xmlns="http://www.w3.org/2000/svg" xmlns:xlink="http://www.w3.org/1999/xlink" xml:space="preserve" xmlns:serif="http://www.serif.com/" style="fill-rule:evenodd;clip-rule:evenodd;stroke-linecap:round;stroke-linejoin:round;stroke-miterlimit:10;">
    <g transform="matrix(0,1.34456,1.34456,0,344.266,-673.272)">
        <path d="M512.19,156.03L708.69,156.03" style="fill:none;fill-rule:nonzero;stroke:black;stroke-width:2.16px;"/>
    </g>
    <g transform="matrix(2.82332,-1.45565e-16,1.45565e-16,2.82332,-416.503,-149.057)">
        <g transform="matrix(0.354193,1.82615e-17,-1.82615e-17,0.354193,147.522,52.7948)">
            <path d="M548.151,235.004L554.057,243.15L543.996,242.987L548.151,235.004Z" style="fill:rgb(1,176,80);"/>
            <path d="M210.842,64.568C210.842,64.568 500.723,215.399 547.67,239.826" style="fill:none;stroke:rgb(1,176,80);stroke-width:1.5px;stroke-miterlimit:1.5;"/>
        </g>
    </g>
    <g transform="matrix(2.16166,0.101168,0.101168,1.32317,-203.099,-49.2219)">
        <g transform="matrix(0.46427,-0.0354975,-0.0354975,0.758477,92.5454,30.1241)">
            <path d="M545.652,163.834L554.057,169.366L544.589,172.771L545.652,163.834Z" style="fill:rgb(255,0,1);"/>
            <path d="M90.8,114.263C90.8,114.263 488.418,161.558 546.908,168.516" style="fill:none;stroke:rgb(255,0,1);stroke-width:1.5px;stroke-miterlimit:1.5;"/>
        </g>
    </g>
    <g transform="matrix(1.97779,0.220474,0.220474,1.38405,-156.465,-59.7634)">
        <g transform="matrix(0.514756,-0.081999,-0.081999,0.735581,75.6408,31.1308)">
            <path d="M546.925,201.197L554.057,208.295L544.1,209.742L546.925,201.197Z" style="fill:rgb(255,101,255);"/>
            <path d="M44.332,39.72C44.332,39.72 486.674,186.01 547.221,206.034" style="fill:none;stroke:rgb(255,101,255);stroke-width:1.5px;stroke-miterlimit:1.5;"/>
        </g>
    </g>
    <g transform="matrix(0,1.34456,1.34456,0,-284.493,-274.261)">
        <circle cx="233.52" cy="244.56" r="3" style="fill:rgb(255,102,255);stroke:black;stroke-width:0.72px;stroke-linecap:butt;"/>
    </g>
    <g transform="matrix(0.99929,0,0,1.34456,-132.917,-73.5452)">
        <path d="M149.76,164.4L716.69,164.4" style="fill:none;fill-rule:nonzero;stroke:black;stroke-width:0.96px;"/>
    </g>
    <g transform="matrix(0,1.34456,1.34456,0,-163.483,-246.186)">
        <circle cx="268.08" cy="189.12" r="3" style="fill:rgb(255,0,0);stroke:black;stroke-width:0.72px;stroke-linecap:butt;"/>
    </g>
    <g transform="matrix(0,1.34456,1.34456,0,-93.1355,-415.923)">
        <circle cx="357.36" cy="226.08" r="3" style="fill:rgb(0,176,80);stroke:black;stroke-width:0.72px;stroke-linecap:butt;"/>
    </g>
    <g transform="matrix(0,1.34456,1.34456,0,149.506,-491.918)">
        <ellipse cx="475.56" cy="164.16" rx="4.2" ry="4.32" style="fill:rgb(112,48,160);stroke:black;stroke-width:0.72px;stroke-linecap:butt;"/>
    </g>
</svg>
